<?xml version="1.0" standalone="no"?>
<!DOCTYPE svg PUBLIC "-//W3C//DTD SVG 1.1//EN" "http://www.w3.org/Graphics/SVG/1.1/DTD/svg11.dtd" >
<svg xmlns="http://www.w3.org/2000/svg" xmlns:xlink="http://www.w3.org/1999/xlink" version="1.1">
<metadata>
Created by FontForge 20170731 at Tue Mar 25 21:27:24 2008
 By ,,,
Copyright (c) ParaType, Inc., 2008. All rights reserved.
</metadata>
<defs>
<font id="Pallada-Regular" horiz-adv-x="462" >
  <font-face 
    font-family="Pallada"
    font-weight="400"
    font-stretch="normal"
    units-per-em="1000"
    panose-1="4 3 5 4 5 1 2 2 2 2"
    ascent="800"
    descent="-200"
    x-height="472"
    cap-height="687"
    bbox="-75 -238.075 963 858"
    underline-thickness="20"
    underline-position="-173"
    unicode-range="U+0020-F6DE"
  />
<missing-glyph horiz-adv-x="500" 
 />
    <glyph glyph-name="afii10017.var.accented" unicode="&#x410;`" horiz-adv-x="545" 
d="M537 31l-1 -33q-61 -5 -87 -5q-23 0 -34 13.5t-23 56.5q-1 3 -45 191l-210 2q-39 -124 -39 -169q0 -27 6 -40t24 -26l-1 -23q-44 -5 -73 -5q-21 0 -26.5 9.5t-5.5 29.5q0 39 50 184l43 128q7 21 24 68t27 75t18.5 58.5t8.5 44.5q0 8 -1.5 14.5t-5.5 10.5t-7 6t-10 3.5
t-9.5 2t-11.5 0.5h-10v28q140 36 170 36q26 0 31 -20q16 -64 34 -145l57 -252q28 -127 40 -157q16 -45 30.5 -65t36.5 -21zM151 296l188 -6l-49 223q-18 85 -32 112h-9l-36 -126zM327 858l86 -14l-142 -129l-27 7z" />
    <glyph glyph-name="afii10022.var.accented" unicode="&#x415;`" horiz-adv-x="509" 
d="M441 176l28 -5l-26 -167q-83 -10 -222 -10q-89 0 -110.5 4.5t-21.5 27.5q0 19 2 70.5t3 106.5l4 254q1 25 1 84q0 62 -14 80.5t-53 18.5l1 33q168 14 269 14q92 0 124.5 -7t32.5 -33q0 -19 -15 -61t-32 -69l-30 -5q4 28 4 55q0 19 -2 29.5t-11 23t-31.5 18.5t-58.5 6
q-68 0 -87 -23q-11 -14 -13 -77l-3 -173l189 5l-11 -59q-22 4 -66.5 7.5t-77.5 4.5l-34 1q0 -20 -2 -106t-2 -107q0 -49 19.5 -64.5t80.5 -15.5q38 0 67 12.5t48 37.5t28.5 42.5t21.5 46.5zM309 858l86 -14l-142 -129l-27 7z" />
    <glyph glyph-name="afii10026.var.accented" unicode="&#x418;`" horiz-adv-x="612" 
d="M591 27v-27h-110q-17 0 -23.5 13.5t-6.5 48.5q0 14 1.5 151t1.5 152l-2 191q-24 -51 -160 -333q-70 -144 -114 -204q-14 -11 -39.5 -20t-38.5 -9l-12 7q1 25 3.5 124.5t2.5 105.5l4 230q2 116 -10 149.5t-56 33.5l1 33q80 18 128 18q27 0 27 -63q0 -85 -8 -242l-8 -293h2
q86 150 130 246q133 287 150 312q13 19 30.5 27.5t50.5 12.5l7 -4q-5 -92 -5 -150v-371q0 -29 0.5 -41.5t3 -33.5t8 -31t16 -20t26.5 -13zM361 858l86 -14l-142 -129l-27 7z" />
    <glyph glyph-name="afii10032.var.accented" unicode="&#x41e;`" horiz-adv-x="627" 
d="M588 358q0 -86 -20.5 -154t-51.5 -107.5t-70.5 -65.5t-73.5 -35t-65 -9q-113 0 -188 86t-75 253q0 89 20.5 157.5t50.5 107.5t70.5 63.5t75.5 32.5t70 8q115 0 186 -84.5t71 -252.5zM497 354q0 298 -176 298q-186 0 -186 -322q0 -148 48 -224t134 -76q30 0 58 13.5
t57.5 46.5t47 101t17.5 163zM368 858l86 -14l-142 -129l-27 7z" />
    <glyph glyph-name="afii10037.var.accented" unicode="&#x423;`" horiz-adv-x="528" 
d="M518 654q0 -40 -59 -186l-49 -120q-24 -60 -73 -171l-7 -15q-6 -16 -10 -24t-13 -26.5t-16 -30t-17.5 -28t-20.5 -27t-22 -21t-24.5 -15.5t-25.5 -5q-40 0 -40 39q0 38 16 80l13 2q13 -17 23 -24t28 -7q16 0 27 16.5t11 50.5q0 8 -3 21.5t-10 33.5t-14 38t-18.5 48.5
t-19.5 51.5l-32 87q-32 86 -72 164q-27 53 -74 53v29q63 19 108 19q18 0 35 -31.5t52 -127.5l103 -288h9l46 114q21 54 41 123.5t20 108.5q0 33 -9.5 44.5t-32.5 19.5l1 23q67 14 96 14q19 0 26 -6.5t7 -26.5zM319 858l86 -14l-142 -129l-27 7z" />
    <glyph glyph-name="afii10045.var.accented" unicode="&#x42b;`" horiz-adv-x="749" 
d="M499 224q0 -59 -23.5 -106t-61.5 -75.5t-82 -43t-89 -14.5q-49 0 -106.5 10.5t-57.5 21.5q0 6 1.5 18t4 33.5t4.5 43.5q9 110 9 208v137q0 87 -4.5 122.5t-17.5 48t-44 12.5v33q81 18 129 18q27 0 27 -63q0 -13 -1.5 -53t-3 -94t-2.5 -87l-3 -155q-1 -34 -3 -91.5
t-2 -67.5q0 -29 15.5 -40.5t66.5 -11.5q75 0 115 56t40 129q0 144 -128 144q-55 0 -86 -13v38q44 17 109 17q87 0 140.5 -42.5t53.5 -132.5zM714 27v-27h-105q-20 0 -26.5 11.5t-6.5 55.5q0 31 4 151l8 239q4 121 -4.5 152t-51.5 31v33q71 18 119 18q27 0 27 -63
q0 -23 -4 -122.5t-5 -156.5l-3 -140l-2 -89q0 -45 11 -68t39 -25zM429 858l86 -14l-142 -129l-27 7z" />
    <glyph glyph-name="afii10047.var.accented" unicode="&#x42d;`" horiz-adv-x="549" 
d="M508 379q0 -101 -29 -180t-75.5 -123t-98.5 -66.5t-106 -22.5q-74 0 -113 24t-39 60q0 45 57 79l12 -5q0 -64 32 -88.5t77 -24.5q19 0 40.5 6.5t47.5 26.5t47 51t37 85.5t19 123.5q-50 -3 -138 -11t-115 -13l11 66l243 -2q-1 149 -42 218t-129 69q-27 0 -50 -6.5
t-40 -21.5t-28 -27t-22 -36t-15 -34t-13 -35l-30 -7q0 111 12 159l8 13q7 4 21.5 10.5t63.5 17t103 10.5q123 0 187.5 -73.5t64.5 -242.5zM329 858l86 -14l-142 -129l-27 7z" />
    <glyph glyph-name="afii10048.var.accented" unicode="&#x42e;`" horiz-adv-x="872" 
d="M830 358q0 -89 -21 -158t-51 -108t-69.5 -64t-71.5 -33t-61 -8q-118 0 -191 90.5t-73 267.5l-112 2l-2 -76q0 -18 -1.5 -68.5t-1.5 -68.5q0 -62 8.5 -81t30.5 -26v-27h-97q-17 0 -22.5 13t-5.5 49q0 44 4 164l5 231q1 25 1 84q0 62 -14 80.5t-53 18.5l1 33q80 18 128 18
q27 0 27 -63q0 -45 -3.5 -129t-4.5 -113l115 7q8 70 30.5 125t51 87.5t64 53.5t67 28.5t63.5 7.5q121 0 190 -83.5t69 -253.5zM740 354q0 298 -177 298q-28 0 -52 -8.5t-49 -31.5t-42 -59t-28 -95.5t-11 -137.5q0 -143 47.5 -216.5t136.5 -73.5q22 0 43 7.5t46 29.5t43 56.5
t30.5 94t12.5 136.5zM491 858l86 -14l-142 -129l-27 7z" />
    <glyph glyph-name="afii10049.var.accented" unicode="&#x42f;`" horiz-adv-x="523" 
d="M496 27v-27h-107q-17 0 -23 13t-6 49q0 14 2 70t2 71l1 198q2 155 -3 196q-6 48 -65 48q-56 0 -98 -38t-43 -104q0 -127 118 -149q23 -4 78 -4v-21q-52 -15 -74 -46q-18 -27 -37.5 -60.5t-47.5 -85.5t-29 -54q-18 -33 -29 -48t-30.5 -28.5t-45.5 -13.5q-9 0 -25 5t-28 10
l-11 6l4 23q26 0 42.5 17.5t44.5 64.5q68 115 77 129q39 58 69 81q-17 2 -34.5 6t-43 16t-44 29t-32 46.5t-13.5 67.5q0 54 22 93t60 60t79.5 30.5t89.5 9.5l139 -4l7 -4q-7 -33 -9 -135q-2 -44 -4 -158l-3 -220q0 -78 9 -107t41 -32zM316 858l86 -14l-142 -129l-27 7z" />
    <glyph glyph-name="afii10065.var.accented" unicode="&#x430;`" horiz-adv-x="446" 
d="M436 29l-1 -23q-60 -15 -88 -15q-50 0 -53 74q-60 -77 -137 -77q-47 0 -80 29t-33 92q0 43 12 71.5t41.5 46.5t58.5 27t82 20l61 13q1 27 1 74q0 43 -18 57.5t-52 14.5q-83 0 -79 -76l-8 -11q-74 0 -74 37q0 36 66 64t146 28q56 0 78 -25.5t22 -78.5q0 -3 -5 -150l-2 -94
q0 -61 11 -79.5t51 -18.5zM298 249l-55 -11q-61 -13 -85 -35q-30 -27 -30 -75q0 -38 16.5 -60.5t45.5 -22.5q34 0 60 19t35 38l9 19zM267 654l82 -13l-135 -123l-26 7z" />
    <glyph glyph-name="afii10070.var.accented" unicode="&#x435;`" horiz-adv-x="429" 
d="M397 373q-2 -55 -47.5 -86.5t-111.5 -40.5l-105 -14q-3 -81 35.5 -134.5t99.5 -53.5q38 0 69 9t43 19l12 9v-32q-7 -6 -20 -16t-55 -26t-87 -16q-79 0 -132 57.5t-49 177.5q2 69 27 121t61.5 78.5t70.5 39t64 12.5q23 0 42.5 -4t40 -14.5t32 -32t10.5 -53.5zM314 371
q1 28 -13 46.5t-43 18.5q-46 0 -80 -38.5t-43 -128.5l78 9q97 11 101 93zM258 654l82 -13l-135 -123l-26 7z" />
    <glyph glyph-name="afii10074.var.accented" unicode="&#x438;`" horiz-adv-x="504" 
d="M485 32l-2 -24q-64 -13 -86 -13q-19 0 -28.5 4.5t-15.5 19.5q-9 27 -6 147l2 116q0 9 4 55.5t4 57.5l-3 1q-55 -121 -95 -201q-52 -104 -92 -160q-32 -45 -65 -45q-30 0 -30 67q0 37 3 121q3 94 3 151q0 64 -13.5 83.5t-45.5 22.5l2 28q60 9 93 9q26 0 36.5 -16t10.5 -57
q0 -9 -4 -103t-4 -122q0 -64 9 -64q3 0 7 3t9 9t9.5 12t10.5 17t10 19t11 21.5t11 21.5l11 22t10 21q18 37 39.5 83t35 75t21.5 42q12 21 63 21q15 0 20 -3.5t5 -16.5q0 -4 -2 -37t-4 -75.5t-2 -66.5l-2 -83q-2 -67 2 -106q2 -57 58 -57zM296 654l82 -13l-135 -123l-26 7z
" />
    <glyph glyph-name="afii10080.var.accented" unicode="&#x43e;`" horiz-adv-x="471" 
d="M441 248q0 -109 -57 -183t-151 -74q-88 0 -137.5 60.5t-49.5 175.5q0 69 21.5 120.5t55.5 78t68.5 39t68.5 12.5q78 0 129.5 -52t51.5 -177zM355 237q0 63 -8 104.5t-24 61.5t-33 27.5t-41 7.5q-50 0 -84 -48t-34 -153q0 -112 30 -159.5t77 -47.5q50 0 83.5 50t33.5 157z
M279 654l82 -13l-135 -123l-26 7z" />
    <glyph glyph-name="afii10085.var.accented" unicode="&#x443;`" horiz-adv-x="456" 
d="M437 442q0 -30 -19.5 -110.5t-64.5 -197.5l-44 -115q-97 -254 -203 -254q-42 0 -42 33q0 34 21 74l13 2q23 -31 52 -31q24 0 39.5 20.5t15.5 54.5q0 35 -40 183l-23 85q-38 139 -67 204q-7 16 -16 26t-20 14t-14.5 4.5t-14.5 1.5v27q71 9 108 9q18 0 30 -22t34 -100
l44 -160q31 -117 40 -157h5l37 106q51 145 51 238q0 27 -10 40t-31 19l-1 21q41 11 77 11q17 0 23.5 -0.5t13 -6.5t6.5 -19zM272 654l82 -13l-135 -123l-26 7z" />
    <glyph glyph-name="afii10093.var.accented" unicode="&#x44b;`" horiz-adv-x="614" 
d="M599 29l-2 -24q-55 -10 -80 -10q-30 0 -46 17.5t-16 65.5q0 5 3.5 71t4.5 95q2 118 2 135q0 10 -1 17.5t-3.5 13t-4.5 10t-7 7t-7 4t-8 2.5t-7.5 1.5t-7.5 0.5h-7l1 28q66 9 103 9q12 0 17 -2t9.5 -14.5t4.5 -39.5q0 -46 -3 -110q-7 -142 -7 -180q0 -54 14 -75.5
t48 -21.5zM403 181q0 -85 -67 -138.5t-144 -53.5q-121 0 -121 45q0 10 3.5 62t4.5 75l4 112q1 22 1 40t-1 32.5t-1.5 25t-3.5 18.5t-4.5 13.5t-6.5 9.5t-7 6t-8.5 3.5t-10 2t-11.5 1.5l1 28q67 9 104 9q12 0 17 -2t9.5 -14.5t4.5 -39.5q0 -7 -1.5 -37.5t-3.5 -78t-3 -76.5
q-5 -103 -5 -133q0 -62 48 -62q52 0 87 39t35 103q0 90 -74 90q-34 0 -71 -17l-2 32q64 27 109 27q118 0 118 -122zM351 654l82 -13l-135 -123l-26 7z" />
    <glyph glyph-name="afii10095.var.accented" unicode="&#x44d;`" horiz-adv-x="410" 
d="M377 259q0 -121 -63 -194.5t-151 -73.5q-49 0 -81 12t-42 25.5t-10 27.5q0 29 46 60l11 -10q9 -36 32.5 -54.5t52.5 -18.5q55 0 87 47t32 142l-181 -15l7 52l175 -4q0 105 -29 144t-76 39q-50 0 -70.5 -30.5t-17.5 -66.5l-12 -10q-34 3 -48.5 19t-14.5 33q0 38 46 66
t119 28q36 0 67.5 -10.5t59.5 -34t44.5 -68t16.5 -105.5zM249 654l82 -13l-135 -123l-26 7z" />
    <glyph glyph-name="afii10096.var.accented" unicode="&#x44e;`" horiz-adv-x="684" 
d="M647 248q0 -109 -57 -183t-151 -74q-87 0 -136.5 59t-50.5 172h-93l-1 -27q-3 -75 -2 -112q1 -27 8 -38.5t26 -15.5l-1 -27q-53 -7 -79 -7q-21 0 -28 12.5t-7 53.5q0 37 3 111l4 111q2 66 -1 99q-1 14 -4 24.5t-6 16t-10.5 8.5t-10 3.5t-11.5 0.5h-10l1 28q67 9 104 9
q12 0 17 -2t9.5 -14.5t4.5 -39.5l-3 -110l-2 -45l94 3q6 59 29 103t55.5 66.5t64 33t63.5 10.5q78 0 129.5 -52t51.5 -177zM561 237q0 63 -8 104.5t-24 61.5t-33 27.5t-41 7.5q-50 0 -84 -48t-34 -153q0 -112 30 -159.5t77 -47.5q50 0 83.5 50t33.5 157zM386 654l82 -13
l-135 -123l-26 7z" />
    <glyph glyph-name="afii10097.var.accented" unicode="&#x44f;`" horiz-adv-x="451" 
d="M434 32l-2 -24q-64 -13 -86 -13q-13 0 -20 2t-15 10t-12 26.5t-4 48.5q0 18 2 53t2 37l6 143q3 76 0 89q-2 16 -10 23t-14.5 7.5t-24.5 0.5q-38 0 -70.5 -24t-34.5 -78q-1 -33 10.5 -55.5t32.5 -31t37 -11.5t35 -3h26l-1 -28h-9q-15 0 -29 -7t-28 -26t-20.5 -29t-22 -39
t-17.5 -33q-22 -42 -39.5 -58.5t-52.5 -16.5q-13 0 -28.5 3t-24.5 6l-9 2l1 26q18 -2 33 7t22.5 19t20.5 31q31 49 53.5 75t59.5 45v4q-52 4 -93 33t-39 87q5 141 227 141q65 0 95 -14q-6 -79 -8 -154l-4 -111q-4 -72 -2 -106q2 -57 57 -57zM269 654l82 -13l-135 -123l-26 7
z" />
    <glyph glyph-name=".notdef" horiz-adv-x="500" 
 />
    <glyph glyph-name=".null" horiz-adv-x="0" 
 />
    <glyph glyph-name="nonmarkingreturn" horiz-adv-x="333" 
 />
    <glyph glyph-name="space" unicode=" " horiz-adv-x="500" 
 />
    <glyph glyph-name="exclam" unicode="!" horiz-adv-x="209" 
d="M58 696l91 21l-18 -544l-38 -10zM172 53q0 -23 -17 -40t-40 -17t-40 17t-17 40t17 40t40 17t40 -17t17 -40z" />
    <glyph glyph-name="quotedbl" unicode="&#x22;" horiz-adv-x="324" 
d="M189 690h87l-21 -203h-45zM56 690h86l-21 -203h-44z" />
    <glyph glyph-name="numbersign" unicode="#" horiz-adv-x="616" 
d="M467 506h128l-9 -47h-127l-45 -259h130l-14 -50h-123l-39 -209h-53l37 210h-157l-37 -210h-53l38 211h-133l12 50h129l46 259h-130l10 45h130l36 211h53l-38 -211h157l35 211h52zM360 201l47 258h-157l-45 -258h155z" />
    <glyph glyph-name="dollar" unicode="$" 
d="M426 196q0 -75 -44.5 -128t-122.5 -70v-76l-47 -29l2 98q-7 -1 -22 -1q-58 0 -94 10.5t-47.5 23.5t-11.5 29q0 48 44 115l15 -7q9 -130 112 -130q1 0 4 1v293l-30 16q-32 17 -51 29.5t-42.5 34t-35 50.5t-11.5 66q0 26 7.5 50t25.5 48.5t53 42t84 22.5l-1 71l48 15
l-2 -83q57 0 93 -11t47.5 -24t11.5 -29t-14 -47.5t-39 -64.5l-15 7q0 69 -23 95.5t-61 30.5v-251l16 -8q1 0 12.5 -6t17 -8.5t18.5 -10.5t20.5 -13.5t20 -15.5t20 -19.5t16.5 -23t14 -27t8.5 -30.5t3.5 -35zM214 418v225q-40 -6 -64.5 -33t-23.5 -69q1 -46 23.5 -73.5
t64.5 -49.5zM339 173q0 43 -19.5 71.5t-59.5 52.5l-1 -256q80 31 80 132z" />
    <glyph glyph-name="percent" unicode="%" horiz-adv-x="676" 
d="M325 539q0 -76 -40 -122t-96 -46q-61 0 -102 37.5t-41 117.5q0 85 44.5 126t96.5 41q22 0 41.5 -5t43.5 -19.5t38.5 -47.5t14.5 -82zM486 724l46 -2q-95 -220 -155 -359l-156 -375l-61 -15q120 259 192 427zM645 159q0 -76 -40 -122.5t-96 -46.5q-61 0 -102 38t-41 118
q0 85 44.5 125.5t96.5 40.5q22 0 41.5 -5t43.5 -19t38.5 -47t14.5 -82zM258 530q0 66 -22 95t-50 29q-14 0 -24.5 -3.5t-23 -14.5t-19 -36.5t-6.5 -64.5q0 -64 22 -95t54 -31q34 0 51.5 24t17.5 97zM578 149q0 66 -22 95.5t-50 29.5q-14 0 -24.5 -3.5t-23 -14.5t-19 -36.5
t-6.5 -64.5q0 -64 22 -95t54 -31q34 0 51.5 24t17.5 96z" />
    <glyph glyph-name="ampersand" unicode="&#x26;" horiz-adv-x="695" 
d="M657 160l23 -9q-41 -155 -134 -155q-22 0 -37.5 3t-43 20.5t-59.5 50.5q-87 -81 -198 -81q-33 0 -63.5 8.5t-59 27.5t-46 55t-17.5 84q0 37 10 69t22 52t35 41t35.5 30t36.5 24l-15 23q-47 71 -47 138q0 63 42.5 108.5t128.5 45.5q61 0 98.5 -33.5t37.5 -89.5
q0 -23 -8.5 -45t-17.5 -36t-30.5 -32.5t-31 -25t-36.5 -23.5t-30 -19q55 -84 184 -228q19 25 29.5 62.5t10.5 63.5q0 16 -3 26.5t-12 17t-13 8t-19 6.5v21q41 11 77 11q16 0 22.5 -1t12 -7t5.5 -19q0 -102 -82 -217q39 -44 59 -60t44 -16q27 0 47.5 20t42.5 81zM343 565
q0 42 -20.5 69t-61.5 27q-87 0 -87 -112q0 -41 34 -94l22 -34q59 32 86 65t27 79zM380 100q-38 41 -95.5 113.5t-101.5 138.5q-38 -31 -56 -69.5t-18 -95.5q0 -70 37 -110t92 -40q83 0 142 63z" />
    <glyph glyph-name="quotesingle" unicode="'" horiz-adv-x="172" 
d="M46 690h86l-21 -203h-44z" />
    <glyph glyph-name="parenleft" unicode="(" horiz-adv-x="309" 
d="M247 -193l-22 -19q-192 229 -192 491q0 145 50 263t142 228l22 -19q-53 -73 -90.5 -194.5t-37.5 -277.5t37.5 -277.5t90.5 -194.5z" />
    <glyph glyph-name="parenright" unicode=")" horiz-adv-x="309" 
d="M95 -212l-22 19q53 73 90.5 194.5t37.5 277.5t-37.5 277.5t-90.5 194.5l22 19q92 -110 142 -228t50 -263q0 -262 -192 -491z" />
    <glyph glyph-name="asterisk" unicode="*" horiz-adv-x="454" 
d="M384 616l31 -53l-133 -70l132 -69l-30 -52l-127 79l5 -149h-61l7 148l-127 -80l-31 54l133 70l-133 69l31 53l126 -80l-6 150h62l-6 -150z" />
    <glyph glyph-name="plus" unicode="+" horiz-adv-x="552" 
d="M494 315l-18 -58q-105 2 -175 3l4 -175l-58 -15q3 135 3 190l-198 -3l15 58q110 -3 183 -4l-3 173l58 18q-4 -142 -4 -191z" />
    <glyph glyph-name="comma" unicode="," horiz-adv-x="169" 
d="M141 35q0 -42 -26.5 -93.5t-72.5 -82.5l-15 16l13.5 13.5t22 34t13.5 49.5q0 16 -19 42t-19 40q0 25 12.5 40.5t35.5 15.5q55 0 55 -75z" />
    <glyph glyph-name="hyphen" unicode="-" horiz-adv-x="416" 
d="M375 321l-15 -65q-129 4 -180 4l-135 -4l15 65l158 -5z" />
    <glyph glyph-name="period" unicode="." horiz-adv-x="190" 
d="M153 53q0 -23 -17 -40t-40 -17t-40 17t-17 40t17 40t40 17t40 -17t17 -40z" />
    <glyph glyph-name="slash" unicode="/" horiz-adv-x="382" 
d="M348 735l42 -18l-332 -883l-39 18z" />
    <glyph glyph-name="zero" unicode="0" 
d="M443 358q0 -87 -14.5 -155t-36.5 -107.5t-52 -65t-57.5 -34.5t-56.5 -9q-87 0 -142 81t-55 248q0 89 14.5 158t37 108t53 64t57 33t55.5 8q92 0 144.5 -80t52.5 -249zM352 354q0 63 -4.5 110.5t-16.5 90.5t-36 66t-59 23q-36 0 -60 -23.5t-40 -98t-16 -202.5
q0 -290 116 -290t116 324z" />
    <glyph glyph-name="one" unicode="1" 
d="M313 27v-27h-87q-17 0 -23.5 13.5t-6.5 48.5q0 14 1.5 70t1.5 71v254q0 84 -11 106t-48 22l-59 -5v33l202 72l7 -4q-7 -119 -7 -137v-273q0 -177 9 -211q6 -26 21 -33z" />
    <glyph glyph-name="two" unicode="2" 
d="M404 157l27 -5l-54 -142q-37 -14 -180 -14h-183l26 79q5 5 36 36.5t65.5 71t76.5 92.5q109 140 109 242q0 108 -94 108q-76 0 -148 -89l-27 21q40 54 97 92t122 38q145 0 145 -136q0 -144 -189 -331l-144 -145q95 -4 178 4q62 6 89 22t48 56z" />
    <glyph glyph-name="three" unicode="3" 
d="M413 246q0 -77 -61.5 -143.5t-156.5 -103.5q-33 -13 -75 -22t-68 -11l-25 -3l4 36q71 0 153 39q47 22 89 72t42 117q0 108 -98 108q-24 0 -56 -10l-32 -9v39l32 12q141 53 141 171q0 53 -24 75t-54 22q-73 0 -147 -62l-11 33q93 80 194 80q131 0 131 -121
q0 -102 -131 -183v-6q15 0 29 -1t38.5 -8.5t41.5 -20t30.5 -38.5t13.5 -62z" />
    <glyph glyph-name="four" unicode="4" 
d="M417 235l-10 -75q-29 -5 -65 -6l-6 -151q0 -24 -26 -39t-59 -15q10 93 10 205q-99 -3 -110 -3l-126 5l2 55l292 481l31 -5q-5 -84 -6 -143q-2 -84 -2 -319zM258 220l8 297l-179 -295q58 -4 106 -4q25 0 65 2z" />
    <glyph glyph-name="five" unicode="5" 
d="M403 734l28 -5l-26 -132q-42 -22 -269 -19l-11 -184q57 12 105 12q181 0 181 -151q0 -78 -50.5 -145.5t-165.5 -110.5q-33 -12 -75 -21t-68 -12l-25 -3l4 36q71 0 153 39q45 22 88 73.5t43 115.5t-28.5 96t-91.5 32q-18 0 -37 -4t-31 -8t-27.5 -10t-19.5 -7l-9 6l22 333
q73 -4 161 -2q67 2 100 16.5t49 54.5z" />
    <glyph glyph-name="six" unicode="6" 
d="M423 236q0 -112 -56.5 -181t-139.5 -69q-185 0 -185 275q0 160 86 278.5t207 156.5l12 -32q-94 -39 -154.5 -136t-60.5 -261v-49t2 -46t5.5 -45.5t10.5 -37.5t17 -31.5t25.5 -18.5t35.5 -8q46 0 77 45t31 114q0 101 -22 144t-76 43q-46 0 -76 -23l5 42q51 28 101 28
q26 0 48.5 -6.5t49 -24t42 -58t15.5 -99.5z" />
    <glyph glyph-name="seven" unicode="7" 
d="M436 684l-21 -77l-223 -607h-82l266 597q-60 2 -146 -4q-53 -4 -74.5 -7t-46.5 -16.5t-43 -39.5l-27 5l54 132q37 17 343 17z" />
    <glyph glyph-name="eight" unicode="8" 
d="M425 182q0 -81 -53 -138.5t-145 -57.5t-141 49.5t-49 124.5q0 73 38 117.5t104 75.5q-118 78 -118 182q0 38 14.5 67t34.5 44.5t46.5 25t45 12t34.5 2.5q170 0 170 -144q0 -25 -7 -47t-16 -37.5t-24.5 -31t-25 -23t-25 -18t-18.5 -12.5q1 -1 17 -11t19 -12.5t17.5 -13
t19 -15l16 -16t15.5 -19.5t12 -20.5t11 -24.5t5.5 -27.5t2.5 -31.5zM336 535q0 59 -26 82.5t-74 23.5q-43 0 -68.5 -24t-25.5 -70q0 -36 19 -67.5t39 -47.5t52 -36q32 16 58 51.5t26 87.5zM340 172q0 21 -7 40t-14 31t-28.5 29.5t-33 25.5t-43.5 30q-19 -12 -25 -15.5
t-25 -19.5t-27 -29.5t-16.5 -38.5t-8.5 -53q0 -73 34.5 -107t80.5 -34q47 0 80 34t33 107z" />
    <glyph glyph-name="nine" unicode="9" 
d="M424 411q0 -161 -84.5 -279t-206.5 -156l-13 34q215 84 215 395q0 45 -0.5 69t-5.5 61.5t-14.5 56.5t-29 34t-47.5 15q-45 0 -76 -45t-31 -114q0 -101 21.5 -144t75.5 -43q55 0 85 27v-40q-21 -14 -54 -24t-60 -10q-20 0 -38 3t-40.5 15t-39 31t-27.5 55t-11 84
q0 111 57 180.5t140 69.5q184 0 184 -275z" />
    <glyph glyph-name="colon" unicode=":" horiz-adv-x="190" 
d="M153 413q0 -23 -17 -40t-40 -17t-40 17t-17 40t17 40t40 17t40 -17t17 -40zM153 53q0 -23 -17 -40t-40 -17t-40 17t-17 40t17 40t40 17t40 -17t17 -40z" />
    <glyph glyph-name="semicolon" unicode=";" horiz-adv-x="190" 
d="M153 413q0 -23 -17 -40t-40 -17t-40 17t-17 40t17 40t40 17t40 -17t17 -40zM141 35q0 -42 -26.5 -93.5t-72.5 -82.5l-15 16l13.5 13.5t22 34t13.5 49.5q0 16 -19 42t-19 40q0 25 12.5 40.5t35.5 15.5q55 0 55 -75z" />
    <glyph glyph-name="less" unicode="&#x3c;" horiz-adv-x="581" 
d="M133 271l377 -184l-10 -43l-437 215v24l437 215l10 -43z" />
    <glyph glyph-name="equal" unicode="=" horiz-adv-x="549" 
d="M494 343v-46h-439v46h439zM494 193v-47h-439v47h439z" />
    <glyph glyph-name="greater" unicode="&#x3e;" horiz-adv-x="581" 
d="M94 87l377 184l-377 184l10 43l437 -215v-24l-437 -215z" />
    <glyph glyph-name="question" unicode="?" horiz-adv-x="434" 
d="M410 570q0 -30 -7.5 -57.5t-24 -55t-30.5 -46t-39.5 -49t-37.5 -46.5q-60 -79 -66 -156l-32 -5q4 61 37 133q14 29 46 84t47.5 94.5t15.5 82.5q0 104 -95 104q-56 0 -85.5 -32.5t-29.5 -79.5q0 -21 5 -32q-16 -24 -47 -24q-13 0 -23.5 12t-10.5 37q0 68 58 113t160 45
q25 0 48 -4.5t50.5 -16t44 -37.5t16.5 -64zM246 53q0 -23 -17 -40t-40 -17t-40 17t-17 40t17 40t40 17t40 -17t17 -40z" />
    <glyph glyph-name="at" unicode="@" horiz-adv-x="861" 
d="M830 424q0 -73 -28 -135.5t-72 -102.5t-95.5 -62t-100.5 -22q-37 0 -37 33l13 81l-4 1q-45 -61 -82.5 -88t-80.5 -27q-27 0 -49.5 20t-22.5 73q0 54 21.5 118.5t53.5 106.5q68 93 173 93q36 0 70 -11l47 17l8 -7l-59 -235q-17 -91 -17 -104q0 -26 26 -26q64 0 118.5 71
t54.5 202q0 115 -75 184.5t-206 69.5q-162 0 -257 -113t-95 -298q0 -159 87 -252t236 -93q141 0 279 90l13 -25q-141 -105 -303 -105q-98 0 -174 31t-122 85t-69.5 123t-23.5 149q0 197 122 321.5t310 124.5q167 0 254 -78.5t87 -209.5zM559 465q-28 17 -60 17
q-65 0 -108 -87q-17 -35 -31 -87t-14 -87q0 -34 12.5 -49.5t29.5 -15.5q41 0 93 72q37 49 56 137z" />
    <glyph glyph-name="A" unicode="A" horiz-adv-x="544" 
d="M537 31l-1 -33q-61 -5 -87 -5q-23 0 -34 13.5t-23 56.5q-1 3 -45 191l-210 2q-39 -124 -39 -169q0 -27 6 -40t24 -26l-1 -23q-44 -5 -73 -5q-21 0 -26.5 9.5t-5.5 29.5q0 39 50 184l43 128q7 21 24 68t27 75t18.5 58.5t8.5 44.5q0 8 -1.5 14.5t-5.5 10.5t-7 6t-10 3.5
t-9.5 2t-11.5 0.5h-10v28q140 36 170 36q26 0 31 -20q16 -64 34 -145l57 -252q28 -127 40 -157q16 -45 30.5 -65t36.5 -21zM151 296l188 -6l-49 223q-18 85 -32 112h-9l-36 -126z" />
    <glyph glyph-name="B" unicode="B" horiz-adv-x="539" 
d="M498 188q-1 -50 -19 -88t-44.5 -59t-62.5 -34.5t-66.5 -17.5t-62.5 -4q-49 0 -106.5 10.5t-57.5 21.5q0 7 3.5 41.5t4.5 53.5q4 63 6 114l5 231q1 25 1 84q0 62 -14.5 80.5t-53.5 18.5l1 33q169 14 270 14q32 0 58 -5t54.5 -19t44 -45t14.5 -77q-1 -69 -39 -112t-80 -59
l-2 -7q68 -16 107.5 -53t38.5 -122zM385 525q1 57 -25.5 88t-76.5 31q-42 0 -59 -4.5t-29 -18.5q-15 -18 -14 -77l-2 -173l77 6q57 3 92.5 41t36.5 107zM409 188q2 72 -30.5 110.5t-112.5 38.5q-16 0 -38 -2.5t-36 -5.5l-14 -3l-3 -108q-3 -92 -3 -138q0 -28 16 -40t67 -12
q151 0 154 160z" />
    <glyph glyph-name="C" unicode="C" horiz-adv-x="531" 
d="M492 125l11 -31q-3 -4 -9.5 -11.5t-27.5 -26t-44.5 -32.5t-60.5 -25.5t-75 -11.5q-106 0 -175 78t-69 241q0 178 90 283q43 50 99.5 74t110.5 24q78 0 108 -23t30 -51q0 -16 -16.5 -45.5t-45.5 -58.5l-17 4q6 30 6 55q0 44 -21.5 60t-62.5 16q-80 0 -135.5 -79.5
t-55.5 -234.5q0 -144 52 -213.5t129 -69.5q96 0 179 78z" />
    <glyph glyph-name="D" unicode="D" horiz-adv-x="600" 
d="M567 395q0 -81 -16 -147.5t-43.5 -109.5t-60 -74t-70 -47t-68.5 -23t-60 -7q-169 0 -169 32q0 6 1.5 16.5t4 35.5t5.5 57q7 86 7 171v158q0 82 -6.5 121t-19.5 50.5t-41 11.5l1 33q169 14 270 14q31 0 56.5 -3t67 -19t70 -45t50 -87t21.5 -138zM480 368q0 57 -8 102
t-19 73.5t-30 49t-34 30t-38 15t-35.5 6t-32.5 0.5q-42 0 -59 -4.5t-29 -18.5q-14 -16 -14 -77q0 -136 -1 -221q-1 -48 -4 -136.5t-3 -106.5q0 -25 18 -37.5t65 -12.5q40 0 77 16.5t71.5 53t55 105.5t20.5 163z" />
    <glyph glyph-name="E" unicode="E" horiz-adv-x="509" 
d="M441 176l28 -5l-26 -167q-83 -10 -222 -10q-89 0 -110.5 4.5t-21.5 27.5q0 19 2 70.5t3 106.5l4 254q1 25 1 84q0 62 -14 80.5t-53 18.5l1 33q168 14 269 14q92 0 124.5 -7t32.5 -33q0 -19 -15 -61t-32 -69l-30 -5q4 28 4 55q0 19 -2 29.5t-11 23t-31.5 18.5t-58.5 6
q-68 0 -87 -23q-11 -14 -13 -77l-3 -173l189 5l-11 -59q-22 4 -66.5 7.5t-77.5 4.5l-34 1q0 -20 -2 -106t-2 -107q0 -49 19.5 -64.5t80.5 -15.5q38 0 67 12.5t48 37.5t28.5 42.5t21.5 46.5z" />
    <glyph glyph-name="F" unicode="F" horiz-adv-x="471" 
d="M459 647q0 -19 -15 -61t-32 -69l-30 -5q4 28 4 55q0 19 -2 29.5t-11 23t-31.5 18.5t-58.5 6q-69 0 -88 -23q-12 -13 -13 -77l-2 -171l189 3l-11 -59q-22 4 -66.5 7.5t-78.5 4.5l-34 1l-3 -164q-3 -76 6.5 -106t41.5 -33v-27h-107q-17 0 -23 11.5t-6 44.5q0 17 3 77.5
t3 69.5l4 254q1 56 -3 119q-1 11 -2.5 20t-5 15.5t-6 11t-7.5 7.5t-8 5t-9.5 3t-8.5 1.5t-9 0.5h-8l1 33q169 14 270 14q92 0 124.5 -7t32.5 -33z" />
    <glyph glyph-name="G" unicode="G" horiz-adv-x="552" 
d="M502 371l7 -4q-2 -42 -4 -131l-2 -142q-3 -4 -9.5 -11.5t-27.5 -26t-44.5 -32.5t-60.5 -25.5t-75 -11.5q-107 0 -176 78.5t-68 241.5q0 178 90 283q43 50 99.5 73.5t110.5 23.5q78 0 108 -23t30 -51q0 -16 -16.5 -45.5t-45.5 -58.5l-17 4q6 30 6 55q0 44 -21.5 60
t-62.5 16q-74 0 -132.5 -80.5t-58.5 -232.5q0 -144 53.5 -215t130.5 -71q35 0 61 9t35 18l8 9q1 14 1 85q0 47 -3 75t-7 45t-16.5 24t-24 8.5t-37.5 1.5v33z" />
    <glyph glyph-name="H" unicode="H" horiz-adv-x="596" 
d="M564 27v-27h-107q-17 0 -22.5 13t-5.5 49q0 14 2.5 70t2.5 71l4 141l-258 3l-2 -76q0 -18 -1.5 -68.5t-1.5 -68.5q0 -62 8.5 -81t30.5 -26v-27h-97q-17 0 -22.5 13t-5.5 49q0 44 4 164l5 231q1 25 1 84q0 62 -14 80.5t-53 18.5l1 33q80 18 128 18q27 0 27 -63
q0 -45 -3.5 -129t-4.5 -113l258 10v61q0 130 -8 156.5t-58 26.5l1 33q80 18 128 18q27 0 27 -63q0 -23 -4 -122.5t-5 -156.5l-3 -140l-2 -89q0 -45 11 -68t39 -25z" />
    <glyph glyph-name="I" unicode="I" horiz-adv-x="256" 
d="M224 27v-27h-105q-20 0 -26.5 11.5t-6.5 55.5q0 31 4 151l8 239q4 121 -4.5 152t-51.5 31v33q71 18 119 18q27 0 27 -63q0 -23 -4 -122.5t-5 -156.5l-3 -140l-2 -89q0 -45 11 -68t39 -25z" />
    <glyph glyph-name="J" unicode="J" horiz-adv-x="256" 
d="M188 628q0 -12 -1 -44.5t-2.5 -82t-2.5 -90.5l-3 -188q-1 -41 -6.5 -86.5t-20.5 -98t-36.5 -93.5t-57 -68t-80.5 -27q-47 0 -47 32q0 11 2.5 19.5t7.5 19.5t7 16l15 4q28 -35 53 -35q73 0 75 147l4 246l3 158q2 123 -6 153t-50 30v33q71 18 119 18q16 0 21.5 -11.5
t5.5 -51.5z" />
    <glyph glyph-name="K" unicode="K" horiz-adv-x="548" 
d="M551 32v-27q-44 -10 -80 -10q-23 0 -37.5 13.5t-34.5 44.5q-36 54 -87 139q-47 74 -69 101t-46 33l-9 2l1 25q68 30 147 152q39 59 39 110q0 9 -2.5 15t-7 9t-8 4.5t-10 3t-8.5 2.5v27q81 11 106 11q10 0 15 -0.5t9 -4t4 -10.5q0 -18 -19.5 -57.5t-40.5 -71.5
q-29 -45 -40.5 -61.5t-40 -51t-60.5 -63.5q35 -18 106 -122q3 -5 45 -71t57 -86q15 -19 22.5 -27.5t20.5 -17t28 -11.5zM204 27v-27h-87q-17 0 -22.5 13t-5.5 49q0 15 5 165l4 230q2 123 -6 153t-50 30v33q71 18 119 18q16 0 21.5 -11.5t5.5 -51.5q0 -21 -6 -217l-4 -140
q-5 -120 -0.5 -177t26.5 -67z" />
    <glyph glyph-name="L" unicode="L" horiz-adv-x="472" 
d="M435 176l28 -5l-26 -167q-83 -10 -180 -10q-105 0 -140 6.5t-35 24.5q0 8 5 96q8 124 9 206l2 130q0 17 0.5 42.5t0.5 35.5q0 66 -11 85.5t-46 19.5v33q71 18 119 18q16 0 21.5 -11.5t5.5 -51.5q0 -21 -6 -217l-4 -140q-5 -138 -5 -159q0 -49 18.5 -62t85.5 -13
q36 0 63.5 12.5t46 37.5t27.5 42t21 47z" />
    <glyph glyph-name="M" unicode="M" horiz-adv-x="772" 
d="M741 26v-27q-51 -6 -77 -6q-28 0 -37 11.5t-15 57.5q-5 39 -26 376l-10 159q-44 -138 -78 -230q-65 -178 -93 -226q-26 -43 -46 -43q-42 0 -87 183l-79 326l-23 -92q-21 -84 -35.5 -190t-14.5 -165t9 -93t40 -37l1 -23q-57 -14 -81 -14q-22 0 -31.5 10t-9.5 35
q0 73 25 208q16 86 27 138q39 193 39 226q0 11 -3.5 17.5t-11 9.5t-13 3.5t-16.5 0.5h-14l-3 27q82 21 132 21q27 0 39.5 -4t15.5 -17q7 -28 47 -212q52 -243 73 -243q11 0 26.5 34t59.5 153q51 137 76 248q42 32 98 40l11 -4q1 -70 18 -334q10 -160 24 -253q5 -36 13.5 -53
t29.5 -18z" />
    <glyph glyph-name="N" unicode="N" horiz-adv-x="631" 
d="M570 647q0 -22 -8 -174l-13 -238q-6 -119 -6 -157t2 -78l-40 -8q-118 196 -193 325l-150 258q-9 -285 -7 -438q1 -30 3 -47.5t10.5 -37t22.5 -27.5l1 -23q-39 -5 -63 -5q-40 0 -40 40q0 9 4.5 77t5.5 89l11 248q4 94 4 125q0 20 -6 33.5t-12 20t-20.5 10t-20 3.5h-21.5
l-1 31q98 15 124 15q28 0 37 -8.5t41 -60.5q3 -5 21 -37t41.5 -73t44.5 -78q30 -52 68 -116t62 -102l23 -37q1 37 5.5 129.5t3.5 110t-2 122.5q-2 66 -9 83.5t-38 26.5l1 27q43 11 87 11q27 0 27 -40z" />
    <glyph glyph-name="O" unicode="O" horiz-adv-x="627" 
d="M588 358q0 -86 -20.5 -154t-51.5 -107.5t-70.5 -65.5t-73.5 -35t-65 -9q-113 0 -188 86t-75 253q0 89 20.5 157.5t50.5 107.5t70.5 63.5t75.5 32.5t70 8q115 0 186 -84.5t71 -252.5zM497 354q0 298 -176 298q-186 0 -186 -322q0 -148 48 -224t134 -76q30 0 58 13.5
t57.5 46.5t47 101t17.5 163z" />
    <glyph glyph-name="P" unicode="P" horiz-adv-x="491" 
d="M475 532q0 -172 -212 -208q-19 -3 -61 -6v39q12 -1 56 5q50 8 89.5 44.5t39.5 109.5q0 62 -29.5 95t-80.5 33q-37 0 -53.5 -4.5t-28.5 -18.5q-10 -11 -13 -123q-10 -320 -10 -332q0 -63 6.5 -93t15.5 -37t31 -9v-27h-107q-20 0 -26.5 11.5t-6.5 55.5q0 13 1 47t3 73t2 48
l6 222q3 116 -9.5 149.5t-56.5 33.5l1 33q149 14 250 14q27 0 51.5 -3.5t51.5 -13.5t46 -26.5t31.5 -45t12.5 -66.5z" />
    <glyph glyph-name="Q" unicode="Q" horiz-adv-x="637" 
d="M626 -50l4 -19q-4 -5 -12 -12t-32 -19t-49 -12q-46 0 -94 56q-43 49 -60 53q-37 -10 -67 -10q-115 0 -191 81.5t-76 247.5q0 89 19.5 158.5t48.5 110t68 66.5t73 35t68 9q123 0 195 -83.5t72 -253.5q0 -224 -134 -323q12 -9 34 -33t23 -25q37 -37 69 -37q11 0 21.5 2.5
t15.5 5.5zM502 354q0 298 -186 298q-35 0 -64 -15t-55.5 -49.5t-41.5 -103t-15 -164.5q0 -290 186 -290q22 0 43.5 7.5t46 29.5t43 56.5t31 94t12.5 136.5z" />
    <glyph glyph-name="R" unicode="R" horiz-adv-x="543" 
d="M538 32l-1 -27q-42 -10 -78 -10q-24 0 -39.5 12t-31.5 41q-10 17 -39 75l-30 60q-25 50 -38 74t-30 44.5t-32 22.5l-19 3v28q54 2 69 5q59 13 93 47t35 109q1 63 -26 95.5t-78 32.5q-49 0 -67.5 -4.5t-30.5 -18.5t-13 -123q-6 -292 -6 -332v-14q0 -71 5 -92.5t30 -32.5
v-27h-89q-20 0 -26.5 10.5t-6.5 46.5q0 8 1.5 40t1.5 46l3 98q3 126 3 216q0 87 -6.5 125.5t-18.5 48t-42 9.5l1 33q159 14 260 14q37 0 68 -6.5t61.5 -22t47.5 -48t16 -78.5q-1 -41 -15.5 -74.5t-33.5 -53.5t-46.5 -35t-45.5 -21t-38 -10q32 -18 81 -108q68 -130 78 -142
q19 -25 35 -38t38 -18z" />
    <glyph glyph-name="S" unicode="S" horiz-adv-x="439" 
d="M411 196q0 -93 -65 -150t-174 -57q-58 0 -94.5 11t-48 24t-11.5 29q0 48 44 116l17 -7q9 -130 121 -130q48 0 85 36t37 105q0 25 -7.5 45t-16 33t-31.5 29.5t-36.5 24t-49.5 26.5q-5 3 -9 5l-8 4q-70 36 -92 57q-49 45 -49 124q0 29 9.5 55.5t32 53t68 42t109.5 15.5
q58 0 94.5 -11t48 -24t11.5 -29q0 -40 -53 -113l-17 7q0 36 -7 61t-17 37.5t-27 19.5t-28.5 8t-30.5 1q-48 0 -78.5 -27t-30.5 -76q0 -20 3.5 -37t12.5 -30t16.5 -22t23 -18t25 -14t29 -14t28.5 -13q74 -36 101 -58q64 -55 65 -139z" />
    <glyph glyph-name="T" unicode="T" horiz-adv-x="548" 
d="M533 652q0 -23 -13 -63.5t-34 -74.5l-30 -5q6 32 6 76q0 17 -6 28.5t-14.5 17t-24 8.5t-25 3.5t-27.5 0.5h-58q6 -36 6 -111q0 -18 -3.5 -100t-4.5 -124q-3 -138 -3 -142q0 -63 6.5 -93t15.5 -37t31 -9v-27h-110q-20 0 -26.5 11.5t-6.5 55.5q0 17 3.5 84.5t3.5 75.5
l9 262q0 6 0.5 37t0.5 39q0 24 -1 33.5t-6 22.5t-18 17.5t-35 4.5q-50 0 -71 -25q-11 -14 -16 -22.5t-12 -29t-13 -54.5l-29 -10q-8 39 -8 91q0 45 10 82l12 9q59 -1 234 -1q42 0 113.5 2.5t85.5 2.5q28 0 41 -5t15 -11t2 -20z" />
    <glyph glyph-name="U" unicode="U" horiz-adv-x="563" 
d="M511 649q0 -27 -3 -95.5t-4 -104.5l-8 -235q-4 -115 -60.5 -172.5t-157.5 -57.5q-108 0 -147 53t-39 151l6 269q2 92 -3.5 130t-16.5 45.5t-43 7.5h-5l2 33q81 18 129 18q27 0 27 -63q0 -64 -3 -129t-3 -85q-7 -219 -7 -240q0 -19 5 -39.5t16.5 -44.5t38 -39t62.5 -15
q38 0 65.5 13t42 31t24 48t12 53t4.5 57q5 88 5 300q0 66 -10.5 88.5t-39.5 22.5l1 27q33 11 77 11q33 0 33 -38z" />
    <glyph glyph-name="V" unicode="V" horiz-adv-x="551" 
d="M535 654q0 -48 -51 -205l-37 -113q-17 -52 -54 -151t-37 -100l-25 -69q-46 -19 -94 -26l-13 4q-44 218 -86 396q-32 137 -57 200q-9 24 -24 35.5t-22.5 12.5t-25.5 2l1 33q64 15 110 15q28 0 42.5 -38.5t39.5 -149.5q15 -69 41.5 -197.5t36.5 -171.5l14 -62h9l42 113
q45 120 73.5 237.5t28.5 166.5q0 29 -9.5 39.5t-32.5 18.5l1 29q67 14 96 14q33 0 33 -33z" />
    <glyph glyph-name="W" unicode="W" horiz-adv-x="830" 
d="M800 654q2 -50 -41 -205l-31 -113q-13 -50 -43.5 -144.5t-33.5 -106.5l-26 -69q-63 -24 -97 -28l-10 4q-13 126 -47 330t-49 272q-7 -38 -23 -102.5t-36.5 -140t-22.5 -81.5l-76 -251q-42 -22 -98 -27l-8 1q-14 127 -30 256l-17 134q-19 144 -41 208q-6 17 -12.5 27.5
t-15 14.5t-14.5 5.5t-17 1.5l2 33q58 15 104 15q24 0 34.5 -35t26.5 -139q36 -246 46 -376l6 -78h5q48 154 79 265q26 95 36.5 133.5t23.5 100t15 100.5q10 10 35 22.5t34 12.5q13 0 19.5 -7.5t12.5 -32.5q26 -115 52 -268q42 -241 49 -326h6l38 115q39 116 61 238t19 173
q-1 23 -8 35.5t-14.5 15t-24.5 5.5l2 31q66 14 95 14q33 0 35 -33z" />
    <glyph glyph-name="X" unicode="X" horiz-adv-x="514" 
d="M492 31l-1 -33q-61 -5 -87 -5q-23 0 -35.5 13.5t-32.5 54.5q-9 19 -47.5 114t-51.5 122q-43 -62 -78 -128.5t-35 -100.5q0 -10 1 -16t7.5 -12.5l7.5 -7.5t15 -11l-1 -23q-49 -5 -93 -5q-32 0 -32 23q0 26 63 133.5t124 187.5q-90 207 -126 257q-37 51 -77 51v33
q57 10 96 10q43 0 91 -109q5 -9 7 -14q17 -37 39 -89.5t32 -74.5q88 146 88 199q0 38 -34 50l1 23q67 14 96 14q19 0 26.5 -5.5t7.5 -21.5q0 -57 -165 -303q75 -167 112 -240q21 -43 40.5 -64t41.5 -22z" />
    <glyph glyph-name="Y" unicode="Y" horiz-adv-x="513" 
d="M498 658q0 -10 -6 -31.5t-25.5 -64.5t-48.5 -94l-114 -201l-6 -101q-7 -134 48 -139v-27h-107q-17 0 -23.5 13.5t-5.5 48.5q0 12 2 40t4 69t4 71l-72 180q-49 125 -71 168q-12 24 -24.5 35.5t-20.5 13t-25 1.5l1 33q58 15 104 15q6 0 11.5 -2.5t10.5 -8.5t9.5 -12
t9.5 -17t8.5 -19.5t8.5 -22.5t8.5 -23.5t9 -26l8.5 -25.5q14 -39 27.5 -74t29.5 -77t27 -72l49 93q76 145 76 200q1 26 -7.5 35.5t-29.5 13.5l2 26q67 11 96 11q12 0 17.5 -1t10 -8t4.5 -20z" />
    <glyph glyph-name="Z" unicode="Z" horiz-adv-x="451" 
d="M403 174l28 -5l-33 -167q-74 -9 -182 -9l-195 5v36q89 184 187 365q17 32 50.5 90t53 94.5t23.5 51.5q-33 7 -112 7q-30 0 -57.5 -9.5t-38.5 -18.5q-43 -34 -64 -109l-26 4q2 58 20 163l12 9h175q19 0 63 1t62 1q31 0 45 -3t14 -15q0 -21 -7 -46q-15 -30 -37.5 -70.5
t-55.5 -99.5t-56 -101l-158 -303q40 -7 116 -7q120 0 173 136z" />
    <glyph glyph-name="bracketleft" unicode="[" horiz-adv-x="335" 
d="M274 -120v-36h-176v886h176v-36h-99v-814h99z" />
    <glyph glyph-name="backslash" unicode="\" horiz-adv-x="408" 
d="M60 735l329 -883l-39 -18l-332 883z" />
    <glyph glyph-name="bracketright" unicode="]" horiz-adv-x="325" 
d="M62 -156v36h99v814h-99v36h176v-886h-176z" />
    <glyph glyph-name="asciicircum" unicode="^" horiz-adv-x="344" 
d="M174 743l144 -206h-34l-110 101l-110 -101h-34z" />
    <glyph glyph-name="underscore" unicode="_" horiz-adv-x="488" 
d="M492 -69v-60h-495v60h495z" />
    <glyph glyph-name="grave" unicode="`" horiz-adv-x="232" 
d="M112 748l57 -177l-34 -17l-99 156z" />
    <glyph glyph-name="a" unicode="a" horiz-adv-x="446" 
d="M436 29l-1 -23q-60 -15 -88 -15q-50 0 -53 74q-60 -77 -137 -77q-47 0 -80 29t-33 92q0 43 12 71.5t41.5 46.5t58.5 27t82 20l61 13q1 27 1 74q0 43 -18 57.5t-52 14.5q-83 0 -79 -76l-8 -11q-74 0 -74 37q0 36 66 64t146 28q56 0 78 -25.5t22 -78.5q0 -3 -5 -150l-2 -94
q0 -61 11 -79.5t51 -18.5zM298 249l-55 -11q-61 -13 -85 -35q-30 -27 -30 -75q0 -38 16.5 -60.5t45.5 -22.5q34 0 60 19t35 38l9 19z" />
    <glyph glyph-name="b" unicode="b" horiz-adv-x="465" 
d="M433 293q0 -72 -21 -130.5t-55.5 -94t-74.5 -54.5t-81 -19q-52 0 -92 12t-40 29q0 5 2 20t4 45t3 71l10 343q2 84 -10.5 115.5t-50.5 31.5l-1 23q70 12 100 12q9 0 14 -1t11.5 -8t10 -20.5t5.5 -39t1 -62.5l-5 -194q66 105 154 105q53 0 84.5 -47t31.5 -137zM351 257
q0 149 -78 149q-49 0 -80 -43.5t-33 -110.5l-6 -177q11 -39 65 -39q55 0 93.5 57t38.5 164z" />
    <glyph glyph-name="c" unicode="c" horiz-adv-x="418" 
d="M390 413q-1 -13 -19 -29t-46 -23l-12 10q-1 30 -19 47.5t-47 17.5q-49 0 -81.5 -49.5t-32.5 -142.5q0 -103 32 -152t106 -49q29 0 56.5 11.5t40.5 22.5l12 11l7 -32q-7 -7 -19.5 -17.5t-53.5 -28t-85 -17.5q-77 0 -128 52.5t-51 165.5q0 72 21 126.5t53.5 83t66.5 42.5
t67 14q132 0 132 -64z" />
    <glyph glyph-name="d" unicode="d" horiz-adv-x="471" 
d="M454 26l-2 -24q-54 -13 -76 -13q-13 0 -19.5 1.5t-15 7t-12 19t-2.5 35.5l7 71l-5 2q-44 -69 -83 -102t-88 -33q-17 0 -33 6.5t-34.5 24t-28.5 57t-8 96.5q5 141 70.5 219.5t156.5 80.5h59l1 41q3 84 -9 115.5t-50 31.5l-1 23q70 12 100 12q9 0 14 -1t11.5 -8t10 -20.5
t5 -39t0.5 -62.5l-13 -371q-3 -80 -2 -112q2 -57 47 -57zM338 416q-37 20 -75 20q-55 0 -90 -56t-39 -178q-3 -80 17.5 -114.5t48.5 -34.5q48 0 96 85q30 56 36 160z" />
    <glyph glyph-name="e" unicode="e" horiz-adv-x="429" 
d="M397 373q-2 -55 -47.5 -86.5t-111.5 -40.5l-105 -14q-3 -81 35.5 -134.5t99.5 -53.5q38 0 69 9t43 19l12 9v-32q-7 -6 -20 -16t-55 -26t-87 -16q-79 0 -132 57.5t-49 177.5q2 69 27 121t61.5 78.5t70.5 39t64 12.5q23 0 42.5 -4t40 -14.5t32 -32t10.5 -53.5zM314 371
q1 28 -13 46.5t-43 18.5q-46 0 -80 -38.5t-43 -128.5l78 9q97 11 101 93z" />
    <glyph glyph-name="f" unicode="f" horiz-adv-x="293" 
d="M361 658q0 -11 -18 -25t-47 -27l-7 8q-8 49 -56 49q-20 0 -32.5 -10t-19 -35.5t-8.5 -49.5t-4 -72v-25l131 -3l-8 -38l-125 -9q5 -154 5 -226q0 -190 -33 -268q-28 -64 -71 -108.5t-95 -44.5q-48 0 -48 28q0 22 19 60l12 3q28 -35 54 -35q41 0 58.5 36.5t21.5 101.5
q3 43 3 201l-5 252l-80 6l7 32l75 12q5 62 23.5 112.5t59.5 87t98 36.5q46 0 68.5 -14.5t21.5 -34.5z" />
    <glyph glyph-name="g" unicode="g" horiz-adv-x="454" 
d="M407 480l12 -5q-10 -98 -10 -123l-8 -294q-5 -124 -68.5 -204.5t-168.5 -80.5q-131 0 -128 74q-1 18 20 33.5t54 21.5l8 -11q0 -80 68 -80q61 0 94.5 41t39.5 157l6 112l-4 2q-41 -68 -78 -100.5t-86 -32.5q-17 0 -32.5 6.5t-34 23.5t-29.5 56.5t-11 97.5q0 141 68.5 218
t153.5 82q59 3 93 -8q3 0 18.5 6t22.5 8zM329 366q0 45 -15.5 57.5t-53.5 12.5q-52 0 -91 -57t-39 -177q0 -149 69 -149q31 0 56.5 29.5t40.5 64.5q26 61 31 151q2 33 2 68z" />
    <glyph glyph-name="h" unicode="h" horiz-adv-x="482" 
d="M474 29l-2 -24q-55 -10 -80 -10q-33 0 -47.5 18.5t-14.5 79.5q0 4 1.5 37t3 77t1.5 76q0 68 -12 93t-45 25q-41 0 -76.5 -56t-45.5 -150q-4 -42 -4 -111q0 -26 8 -38.5t28 -16.5l-1 -27q-53 -7 -79 -7q-22 0 -30 13t-8 53q0 13 3 58t3 63l4 101q6 141 6 232
q0 89 -11.5 118t-49.5 29l-1 23q70 12 100 12q9 0 14 -1t11.5 -8t10 -20.5t5.5 -39t1 -62.5q-4 -202 -6 -234q33 78 81 110t86 32q46 0 67 -29t21 -117q0 -20 -3 -91t-3 -85q0 -75 14 -99t50 -24z" />
    <glyph glyph-name="i" unicode="i" horiz-adv-x="230" 
d="M171 595q0 -23 -17 -40t-40 -17t-40 17t-17 40t17 40t40 17t40 -17t17 -40zM211 29l-2 -24q-55 -10 -80 -10q-30 0 -46 17.5t-16 65.5q0 6 1.5 35t3.5 68.5t3 62.5q1 33 1 85q0 62 -14 82.5t-45 23.5l2 28q60 9 93 9q47 0 47 -73q0 -29 -3 -93q-7 -142 -7 -180
q0 -54 14 -75.5t48 -21.5z" />
    <glyph glyph-name="j" unicode="j" horiz-adv-x="238" 
d="M181 595q0 -23 -17 -40t-40 -17t-40 17t-17 40t17 40t40 17t40 -17t17 -40zM181 399q0 -4 -5 -204q-5 -182 -35 -268q-21 -60 -66.5 -106.5t-94.5 -46.5q-48 0 -48 19q-1 25 15 68l14 4q30 -35 55 -35q19 0 32.5 10.5t22 31.5t13.5 47t7 61.5t2.5 70.5t0.5 78v43
q0 24 1 79.5t0 77.5q-1 63 -13.5 83t-42.5 23l2 28q60 9 93 9q47 0 47 -73z" />
    <glyph glyph-name="k" unicode="k" horiz-adv-x="451" 
d="M439 33l-1 -25q-49 -16 -79 -16q-27 0 -43.5 17t-50.5 72l-99 160l1 15q21 9 39.5 23t28.5 24.5t29 33.5q41 48 38 80q-1 5 -3 8.5t-4 5t-7 4l-7 3.5l1 21q52 11 92 11q26 0 26 -17q-1 -25 -34 -68q-64 -74 -129 -122q17 -20 65 -92.5t62 -89.5q37 -45 75 -48zM191 29
l-1 -27q-53 -7 -79 -7q-27 0 -32 25t-3 126q1 17 1 26l10 343q2 84 -10.5 115.5t-50.5 31.5l-1 23q70 12 100 12q9 0 14 -1t11.5 -8t10 -20.5t5.5 -39t1 -62.5l-10 -371q-2 -86 -1 -112q2 -27 9 -38.5t26 -15.5z" />
    <glyph glyph-name="l" unicode="l" horiz-adv-x="240" 
d="M227 29l-2 -24q-59 -10 -84 -10q-63 0 -63 83q0 6 1.5 35t3 68.5t2.5 62.5q6 135 6 271q0 71 -5 100.5t-16.5 38t-39.5 8.5l-1 23q70 12 100 12q14 0 22 -7t14 -37t6 -87q0 -28 -5 -198.5t-4 -229.5q1 -67 13 -88t52 -21z" />
    <glyph glyph-name="m" unicode="m" horiz-adv-x="723" 
d="M711 29l-2 -24q-55 -10 -80 -10q-31 0 -46.5 19t-15.5 79q0 4 1.5 37t3 77t1.5 76q0 65 -10 93.5t-34 28.5q-35 0 -65 -39.5t-44.5 -83t-19.5 -82.5q-5 -40 -5 -107q0 -33 7.5 -49t30.5 -18l-2 -24q-44 -7 -66 -7q-23 0 -34.5 12t-11.5 50q0 25 5.5 107.5t5.5 111.5
q0 69 -12.5 99t-41.5 30q-30 0 -57 -36.5t-41.5 -81t-17.5 -79.5l-1 -13q-3 -75 -2 -112q1 -27 8 -38.5t26 -15.5l-1 -27q-53 -7 -79 -7q-15 0 -22 5t-10 22t-3 46.5t2 80.5q0 5 0.5 7.5t0.5 7v8.5l4 111q1 31 -1 99q0 12 -2 21.5t-6 15t-7 9t-9 5t-9 2t-10 0.5h-9l1 28
q67 9 104 9q12 0 17 -2t9.5 -14.5t4.5 -39.5q0 -55 -2 -87q20 62 64.5 103.5t92.5 41.5q47 0 67.5 -33.5t20.5 -80.5v-31q69 145 161 145q39 0 61 -28t22 -104q0 -20 -3 -98t-3 -92q0 -75 14 -99t50 -24z" />
    <glyph glyph-name="n" unicode="n" horiz-adv-x="482" 
d="M476 29l-2 -24q-55 -10 -80 -10q-33 0 -47.5 18.5t-14.5 79.5q0 4 1.5 37t3 77t1.5 76q0 68 -12 93t-45 25q-41 0 -76.5 -56t-45.5 -150q-4 -42 -4 -111q0 -26 8 -38.5t28 -16.5l-1 -27q-53 -7 -79 -7q-22 0 -30 13t-8 53q0 13 3 58t3 63l4 101q2 56 -1 99q-1 12 -3 21.5
t-6 15t-7 9t-9 5t-9 2t-10 0.5h-8l1 28q63 10 100 10q11 0 17 -2.5t12 -15.5t6 -39q0 -36 -3 -84q33 78 81 110t86 32q46 0 67 -29t21 -117q0 -20 -3 -91t-3 -85q0 -75 14 -99t50 -24z" />
    <glyph glyph-name="o" unicode="o" horiz-adv-x="471" 
d="M441 248q0 -109 -57 -183t-151 -74q-88 0 -137.5 60.5t-49.5 175.5q0 69 21.5 120.5t55.5 78t68.5 39t68.5 12.5q78 0 129.5 -52t51.5 -177zM355 237q0 63 -8 104.5t-24 61.5t-33 27.5t-41 7.5q-50 0 -84 -48t-34 -153q0 -112 30 -159.5t77 -47.5q50 0 83.5 50t33.5 157z
" />
    <glyph glyph-name="p" unicode="p" horiz-adv-x="478" 
d="M443 257q-3 -84 -35.5 -145.5t-77 -89t-93.5 -27.5q-47 0 -85 17l-1 -31q0 -18 -1 -33t-1 -27q0 -56 7.5 -83t19.5 -33.5t37 -6.5l-2 -24q-55 -10 -80 -10q-22 0 -33 4t-20 24.5t-9 61.5l5 137l8 204l4 137q0 89 -30 100q-6 2 -21 3h-5l1 28q67 9 104 9q12 0 17 -2
t9.5 -14.5t4.5 -39.5v-44q23 45 60.5 75t84.5 30q60 0 98 -53t34 -167zM360 231q6 177 -85 177q-47 0 -79.5 -54t-34.5 -120l-5 -139q4 -26 26 -44t54 -18q117 0 124 198z" />
    <glyph glyph-name="q" unicode="q" horiz-adv-x="472" 
d="M457 -202l-6 -22q-48 -14 -72 -14q-36 0 -50 15t-14 62q0 92 5 170l6 112l-4 2q-41 -68 -78 -100.5t-86 -32.5q-17 0 -32.5 6.5t-34 23.5t-29.5 56.5t-11 97.5q0 141 68.5 218t153.5 82q59 3 93 -8q3 0 18.5 6t22.5 8l12 -5q-7 -36 -10 -123l-8 -294q-4 -183 -3 -204
q1 -29 13.5 -42.5t45.5 -13.5zM329 366q0 45 -15.5 57.5t-53.5 12.5q-52 0 -91 -57t-39 -177q0 -149 69 -149q31 0 56.5 29.5t40.5 64.5q26 61 31 151q2 33 2 68z" />
    <glyph glyph-name="r" unicode="r" horiz-adv-x="368" 
d="M372 446q-2 -45 -55 -85l-10 7q-5 41 -41 41t-69 -48.5t-37 -142.5l-1 -23q-4 -86 -2 -112q2 -28 8.5 -39t25.5 -15l-1 -27q-53 -7 -79 -7q-15 0 -22 5t-10 22t-3 46.5t2 80.5q0 5 0.5 7.5t0.5 7v8.5l4 111q1 31 -1 99q0 12 -2 21.5t-6 15t-7 9t-9 5t-9 2t-10 0.5h-9
l1 28q67 9 104 9q12 0 17 -2t9.5 -14.5t4.5 -39.5l-2 -60q24 55 69 89t92 34q22 0 33 -6t12.5 -11.5t1.5 -15.5z" />
    <glyph glyph-name="s" unicode="s" horiz-adv-x="387" 
d="M361 149q0 -54 -55 -106t-139 -52q-39 0 -67 7.5t-40.5 19t-18 22t-5.5 20.5q0 39 70 60l10 -10q0 -78 73 -78q43 0 67 25t24 71q0 18 -7.5 32t-23 24t-29.5 16.5t-36 14.5t-33 13q-26 12 -40.5 20.5t-31.5 23t-25 35t-8 47.5q0 52 45.5 87.5t123.5 35.5q72 0 104 -19.5
t32 -44.5q0 -38 -69 -54l-8 8q0 71 -70 71q-34 0 -56 -17t-22 -52q0 -18 6.5 -31.5t20.5 -23.5t23.5 -15t29 -12t23.5 -9q6 -3 29 -12t32 -13.5t26 -15.5t24.5 -21.5t14 -28t6.5 -38.5z" />
    <glyph glyph-name="t" unicode="t" horiz-adv-x="340" 
d="M321 80l9 -25q-44 -34 -98.5 -50t-87.5 -16q-68 0 -68 84q0 70 5 162q4 104 4 130q0 42 -10 51q-9 8 -47 8l3 37q36 13 58 45q37 57 50 164l35 8l-7 -204l131 -6l-8 -43l-125 -5q-4 -97 -5 -159l-2 -118q0 -54 12 -75t45 -21q46 0 106 33z" />
    <glyph glyph-name="u" unicode="u" horiz-adv-x="484" 
d="M469 27l-2 -24q-64 -13 -86 -13q-24 0 -37 12.5t-14 49.5q0 39 2 71q-51 -73 -105 -103.5t-88 -30.5q-30 0 -46.5 18.5t-16.5 65.5q0 32 2.5 88.5t2.5 73.5q1 26 1 94q0 62 -14 82.5t-45 23.5l2 28q60 9 93 9q47 0 47 -73q0 -11 -2 -60t-3 -78l-2 -118q1 -43 10.5 -63
t31.5 -20q49 0 91 60.5t44 113.5l2 53q1 14 1 63t-7 66.5t-25 18.5l4 24q50 15 74 15q14 0 20.5 -1.5t11.5 -12.5t5 -33q0 -11 -2 -40.5t-4.5 -79.5t-3.5 -104q-1 -66 1 -119q2 -57 57 -57z" />
    <glyph glyph-name="v" unicode="v" horiz-adv-x="429" 
d="M423 441q0 -66 -46 -177l-90 -216q-17 -38 -28 -45q-12 -8 -37 -15t-36 -7q-8 0 -10.5 4.5t-6.5 22.5q-17 77 -24 106l-18 72q-32 131 -63 204q-9 21 -20.5 32t-18.5 12.5t-19 1.5v27q64 9 101 9q18 0 29.5 -21t32.5 -101l77 -296h4l24 60q29 71 47.5 142.5t18.5 107.5
q0 37 -7.5 51.5t-26.5 20.5v21q41 11 77 11q23 0 31.5 -4t8.5 -23z" />
    <glyph glyph-name="w" unicode="w" horiz-adv-x="675" 
d="M652 441q0 -63 -46 -193l-72 -200q-13 -35 -28 -45q-13 -8 -36 -15t-35 -7q-10 0 -12.5 4t-6.5 23q-3 15 -12 63t-14 72q-12 59 -24.5 109t-18.5 70l-6 21q-25 -95 -42 -155q-25 -86 -43 -140q-12 -34 -28 -45q-13 -9 -36 -15.5t-36 -6.5q-9 0 -11.5 4t-6.5 23
q-2 11 -5.5 30.5t-8 46t-6.5 41.5l-19 109q-18 101 -34 155q-6 22 -18 33t-19 12t-21 1v27q62 9 99 9q18 0 27.5 -22t24.5 -100l53 -296h4l24 78q33 106 54 194q26 111 30 117q7 10 28 19.5t30 9.5q14 0 34 -93l73 -325h4l28 76q53 144 53 234q0 60 -38 72v21q41 11 77 11
q23 0 31.5 -4t8.5 -23z" />
    <glyph glyph-name="x" unicode="x" horiz-adv-x="439" 
d="M428 28v-27q-44 -9 -87 -9q-6 0 -10.5 1l-9 2t-8.5 5t-7.5 7t-8 10t-8 12t-9.5 16t-10.5 19.5t-13 24t-14.5 27.5l-43 80q-81 -98 -81 -129q0 -29 30 -39l-1 -24q-40 -8 -76 -8q-22 0 -31 5t-9 22q0 11 9.5 29t28 43t34.5 44t41.5 49.5t35.5 42.5l-33 64
q-9 17 -17.5 33.5t-12 24t-10.5 18.5t-17 26q-27 39 -68 39v27q64 9 101 9q20 0 32 -18t34 -67l47 -104q74 89 74 123q0 12 -5 18t-23 12v21q41 11 77 11q40 0 40 -27q0 -35 -144 -188q51 -104 102 -179q32 -46 71 -46z" />
    <glyph glyph-name="y" unicode="y" horiz-adv-x="456" 
d="M437 442q0 -30 -19.5 -110.5t-64.5 -197.5l-44 -115q-97 -254 -203 -254q-42 0 -42 33q0 34 21 74l13 2q23 -31 52 -31q24 0 39.5 20.5t15.5 54.5q0 35 -40 183l-23 85q-38 139 -67 204q-7 16 -16 26t-20 14t-14.5 4.5t-14.5 1.5v27q71 9 108 9q18 0 30 -22t34 -100
l44 -160q31 -117 40 -157h5l37 106q51 145 51 238q0 27 -10 40t-31 19l-1 21q41 11 77 11q17 0 23.5 -0.5t13 -6.5t6.5 -19z" />
    <glyph glyph-name="z" unicode="z" horiz-adv-x="391" 
d="M370 467l8 -18q-91 -122 -155 -223q-60 -94 -88 -143q132 15 148 15q46 0 62.5 -8.5t16.5 -35.5q0 -38 -20 -73l-4 -1q-9 11 -33 17t-43.5 6.5t-57.5 0.5h-12q-34 0 -91.5 -4t-65.5 -4l-1 18q63 83 150 221q80 128 91 153q-29 -6 -57 -6q-20 0 -46.5 3.5t-42.5 3.5
q-56 0 -82 -67l-18 11q32 141 76 141q37 0 103 -8t80 -8q49 0 82 9z" />
    <glyph glyph-name="braceleft" unicode="{" horiz-adv-x="389" 
d="M355 760v-38h-29q-48 0 -62.5 -35t-14.5 -124v-86q0 -39 -9 -68q-37 -110 -123 -119v-12q46 -6 76.5 -39t46.5 -80q9 -28 9 -68v-86q0 -89 14.5 -124t62.5 -35h19v-38h-37q-84 0 -115.5 45.5t-31.5 143.5v73q0 186 -119 186h-11v56h11q119 0 119 186v73q0 95 41.5 142
t135.5 47h17z" />
    <glyph glyph-name="bar" unicode="|" horiz-adv-x="229" 
d="M143 760v-951h-52v951h52z" />
    <glyph glyph-name="braceright" unicode="}" horiz-adv-x="389" 
d="M32 722v38h17q94 0 135.5 -47t41.5 -142v-73q0 -186 119 -186h11v-56h-11q-119 0 -119 -186v-73q0 -98 -31.5 -143.5t-115.5 -45.5h-37v38h19q48 0 62.5 35t14.5 124v86q0 39 9 68q16 47 46.5 80t76.5 39v12q-86 9 -123 119q-9 28 -9 68v86q0 89 -14.5 124t-62.5 35h-29z
" />
    <glyph glyph-name="asciitilde" unicode="~" horiz-adv-x="588" 
d="M526 373l23 -13q-21 -49 -63 -86.5t-100 -37.5q-42 0 -106 34.5t-103 34.5q-70 0 -114 -64l-23 15q75 118 164 118q45 0 108 -34t101 -34q66 0 113 67z" />
    <glyph glyph-name="nbspace" unicode="&#xa0;" horiz-adv-x="233" 
 />
    <glyph glyph-name="currency" unicode="&#xa4;" horiz-adv-x="543" 
d="M444 156l75 -76l-32 -33l-76 76q-62 -49 -135 -49t-135 49l-75 -76l-32 33l74 76q-48 60 -48 135t48 135l-74 75l32 33l75 -76q62 49 135 49t135 -49l76 76l32 -33l-75 -75q49 -62 49 -135t-49 -135zM443 291q0 71 -49 121t-118 50q-68 0 -117.5 -50.5t-49.5 -120.5
q0 -71 49.5 -121.5t117.5 -50.5q69 0 118 50.5t49 121.5z" />
    <glyph glyph-name="brokenbar" unicode="&#xa6;" horiz-adv-x="211" 
d="M133 696v-351h-52v351h52zM133 196v-351h-52v351h52z" />
    <glyph glyph-name="section" unicode="&#xa7;" horiz-adv-x="433" 
d="M401 321q0 -53 -29 -93t-70 -65q46 -26 60.5 -47t14.5 -70q0 -59 -48 -103.5t-126 -44.5q-125 0 -125 78q0 17 13 34t32 25l14 -4q5 -49 34 -69.5t56 -20.5q39 0 65 21.5t26 59.5q0 14 -2 25.5t-9.5 20.5t-12 14.5t-19 12.5t-20 9.5t-26 10t-26.5 9.5q-7 3 -26 9.5
t-28.5 10.5t-27 12t-27 14.5t-22.5 18t-19.5 23t-11.5 27.5t-5 34q0 43 30 83.5t69 64.5q-39 21 -56 48.5t-17 75.5q0 61 47.5 104.5t126.5 43.5q125 0 125 -78q0 -17 -13 -34t-32 -25l-14 4q-8 90 -88 90q-37 0 -65 -21.5t-28 -59.5q0 -47 27 -68.5t86 -40.5q6 -2 26 -8
t29 -9t27 -10t27 -13t22 -16.5t19.5 -21.5t11.5 -27t5 -34zM328 292q0 14 -3.5 26t-12.5 21t-16 15.5t-22.5 13t-23.5 9.5t-27 9.5t-26 8.5l-29 10q-59 -39 -59 -104q0 -11 2.5 -20.5t5 -17t9.5 -15t11 -12t15 -11t15 -9t18 -8t17.5 -6.5t19.5 -6.5t18 -6.5l29 -10
q27 18 43 49t16 64z" />
    <glyph glyph-name="dieresis" unicode="&#xa8;" horiz-adv-x="429" 
d="M368 595q0 -23 -16.5 -40t-38.5 -17t-38.5 17t-16.5 40t16.5 40t38.5 17t38.5 -17t16.5 -40zM217 595q0 -23 -16.5 -40t-38.5 -17t-38.5 17t-16.5 40t16.5 40t38.5 17t38.5 -17t16.5 -40z" />
    <glyph glyph-name="copyright" unicode="&#xa9;" horiz-adv-x="763" 
d="M738 348q0 -148 -104.5 -259.5t-251.5 -111.5q-149 0 -252 109.5t-103 261.5q0 151 103 260t252 109q147 0 251.5 -110.5t104.5 -258.5zM701 348q0 132 -93.5 232t-225.5 100q-133 0 -225.5 -98.5t-92.5 -233.5q0 -136 92.5 -235t225.5 -99q132 0 225.5 100.5t93.5 233.5
zM548 208l9 -21q-3 -3 -8 -7.5t-22 -17t-36 -22t-48.5 -17t-60.5 -7.5q-82 0 -140.5 55t-58.5 163q0 57 15.5 101.5t39.5 71t56 44t61.5 24t60.5 6.5q120 0 120 -49q0 -23 -49 -67l-11 7q0 27 -7.5 44t-22.5 23.5t-25.5 8t-28.5 1.5q-20 0 -40.5 -8.5t-43 -29t-37 -64
t-14.5 -103.5q0 -93 45.5 -140.5t101.5 -47.5q80 0 144 52z" />
    <glyph glyph-name="guillemotleft" unicode="&#xab;" horiz-adv-x="417" 
d="M291 272l98 -184l-15 -11l-180 195l180 195l15 -11zM141 272l106 -200l-15 -11l-200 211l200 211l15 -11z" />
    <glyph glyph-name="logicalnot" unicode="&#xac;" horiz-adv-x="498" 
d="M468 288v-123h-46v70h-374v53h420z" />
    <glyph glyph-name="uni00AD" unicode="&#xad;" horiz-adv-x="356" 
d="M304 268l-15 -65q-79 4 -130 4l-115 -4l15 65l138 -5z" />
    <glyph glyph-name="registered" unicode="&#xae;" horiz-adv-x="759" 
d="M740 348q0 -149 -105 -261t-253 -112q-149 0 -253.5 110.5t-104.5 262.5t104.5 262t253.5 110q148 0 253 -112t105 -260zM698 348q0 132 -92.5 231t-223.5 99q-132 0 -224 -98t-92 -232q0 -135 92 -233t224 -98q131 0 223.5 99.5t92.5 231.5zM557 149v-20
q-30 -14 -54 -14q-7 0 -12.5 2t-9 3.5t-8.5 7.5t-6 7.5t-6.5 10.5t-6.5 10q-16 24 -47 86q-24 44 -37.5 63t-28.5 27l-6 3v21q28 3 38 5q36 7 59 32.5t23 69.5q0 85 -69 85q-43 0 -56 -16q-8 -12 -8 -50v-138q0 -137 1 -161v-9.5t0.5 -8.5t1 -7t1.5 -7.5t3 -5.5t4.5 -5
t6.5 -3v-19h-53q-14 0 -20.5 4t-6.5 20q0 10 2 51.5t2 61.5v169q0 19 -4 79q-1 9 -2.5 16t-5 11t-5.5 7t-7.5 4.5t-7 2t-8.5 0.5h-6v24q114 11 181 11q47 0 83.5 -23.5t36.5 -82.5q0 -57 -38.5 -89t-81.5 -40q27 -16 61 -79q36 -67 48 -83q1 -1 4.5 -5.5t4.5 -5.5t4 -4.5
t4 -4.5t4 -3.5t4.5 -3.5t4.5 -2.5t6 -2l6 -1t7 -0.5z" />
    <glyph glyph-name="degree" unicode="&#xb0;" horiz-adv-x="311" 
d="M282 541q0 -51 -35.5 -87t-88.5 -36q-55 0 -88 35.5t-33 87.5t33 87t88 35q52 0 88 -35.5t36 -86.5zM236 541q0 33 -21.5 54.5t-56.5 21.5q-34 0 -54.5 -21.5t-20.5 -54.5t20.5 -55t54.5 -22q36 0 57 20t21 57z" />
    <glyph glyph-name="plusminus" unicode="&#xb1;" horiz-adv-x="526" 
d="M494 325l-18 -58q-105 2 -175 3l4 -115l-58 -15q3 75 3 130l-198 -3l15 58q110 -3 183 -4l-3 123l58 18q-4 -92 -4 -141zM496 107l-14 -59l-226 3l-205 -4l11 60q135 -2 202 -2z" />
    <glyph glyph-name="acute" unicode="&#xb4;" horiz-adv-x="448" 
d="M268 654l82 -13l-135 -123l-26 7z" />
    <glyph glyph-name="mu" unicode="&#xb5;" horiz-adv-x="576" 
d="M537 167l22 -5q-4 -56 -39 -115t-91 -59q-65 0 -71 80l-1 24q-22 -56 -49 -80t-73 -24q-45 0 -72 30t-42 99q-8 -85 -12 -153q-6 -99 8 -161q-11 -27 -51 -27q-19 0 -30 14t-11 36q0 18 24.5 136t31.5 212l17 294h78l-13 -277q-2 -19 -2 -63q0 -31 20 -53.5t60 -22.5
t63 35.5t26 79.5l19 301h80l-19 -303q-3 -39 -3 -60q4 -53 45 -53q18 0 32 9t22 18.5t15.5 30.5t9 28.5t6.5 28.5z" />
    <glyph glyph-name="paragraph" unicode="&#xb6;" horiz-adv-x="517" 
d="M476 687v-37h-101v-838h-43v838h-108v-838h-43v604q-139 -4 -143 135q0 58 37 97t102 39h299z" />
    <glyph glyph-name="periodcentered" unicode="&#xb7;" horiz-adv-x="277" 
d="M195 329q0 -23 -16.5 -39t-38.5 -16t-38.5 16t-16.5 39t16.5 39t38.5 16t38.5 -16t16.5 -39z" />
    <glyph glyph-name="guillemotright" unicode="&#xbb;" horiz-adv-x="417" 
d="M45 88l98 184l-98 184l15 11l180 -195l-180 -195zM187 72l106 200l-106 200l15 11l200 -211l-200 -211z" />
    <glyph glyph-name="tilde" unicode="&#x2dc;" horiz-adv-x="495" 
d="M439 582l22 -14q-57 -93 -129 -93q-12 0 -25 3t-20.5 6t-24.5 10.5t-24 10.5q-63 26 -85 26q-55 0 -86 -43l-22 14q50 82 129 82q12 0 25 -3t20 -5.5t24.5 -10l24.5 -10.5q5 -2 17 -7.5t17.5 -8t15 -5.5t18 -4.5t17.5 -1.5q44 0 86 54z" />
    <glyph glyph-name="uni037E" unicode="&#x37e;" horiz-adv-x="190" 
d="M153 413q0 -23 -17 -40t-40 -17t-40 17t-17 40t17 40t40 17t40 -17t17 -40zM141 35q0 -42 -26.5 -93.5t-72.5 -82.5l-15 16l13.5 13.5t22 34t13.5 49.5q0 16 -19 42t-19 40q0 25 12.5 40.5t35.5 15.5q55 0 55 -75z" />
    <glyph glyph-name="uni03BC" unicode="&#x3bc;" horiz-adv-x="576" 
d="M537 167l22 -5q-4 -56 -39 -115t-91 -59q-65 0 -71 80l-1 24q-22 -56 -49 -80t-73 -24q-45 0 -72 30t-42 99q-8 -85 -12 -153q-6 -99 8 -161q-11 -27 -51 -27q-19 0 -30 14t-11 36q0 18 24.5 136t31.5 212l17 294h78l-13 -277q-2 -19 -2 -63q0 -31 20 -53.5t60 -22.5
t63 35.5t26 79.5l19 301h80l-19 -303q-3 -39 -3 -60q4 -53 45 -53q18 0 32 9t22 18.5t15.5 30.5t9 28.5t6.5 28.5z" />
    <glyph glyph-name="afii10023" unicode="&#x401;" horiz-adv-x="509" 
d="M441 176l28 -5l-26 -167q-83 -10 -222 -10q-89 0 -110.5 4.5t-21.5 27.5q0 19 2 70.5t3 106.5l4 254q1 25 1 84q0 62 -14 80.5t-53 18.5l1 33q168 14 269 14q92 0 124.5 -7t32.5 -33q0 -19 -15 -61t-32 -69l-30 -5q4 28 4 55q0 19 -2 29.5t-11 23t-31.5 18.5t-58.5 6
q-68 0 -87 -23q-11 -14 -13 -77l-3 -173l189 5l-11 -59q-22 4 -66.5 7.5t-77.5 4.5l-34 1q0 -20 -2 -106t-2 -107q0 -49 19.5 -64.5t80.5 -15.5q38 0 67 12.5t48 37.5t28.5 42.5t21.5 46.5zM385 769q0 -21 -15 -35.5t-36 -14.5t-36.5 14.5t-15.5 35.5t15.5 35.5t36.5 14.5
t36 -14.5t15 -35.5zM232 769q0 -21 -15.5 -35.5t-36.5 -14.5t-36 14.5t-15 35.5t15 35.5t36 14.5t36.5 -14.5t15.5 -35.5z" />
    <glyph glyph-name="afii10051" unicode="&#x402;" horiz-adv-x="663" 
d="M631 209q0 -101 -62 -159t-131 -58q-80 0 -80 42q0 38 35 57l11 -7q7 -50 54 -50q84 0 84 154q0 87 -38 131.5t-108 44.5q-71 0 -110 -33q-4 -80 -4 -165q0 -65 3.5 -92.5t9 -33.5t22.5 -13v-27h-89q-20 0 -26.5 11.5t-6.5 55.5q0 17 3.5 84.5t3.5 75.5l8 262
q4 131 -9 149l-1 2q-5 3 -29 3q-52 0 -71 -25q-17 -21 -24.5 -39t-16.5 -67l-29 -10q-8 39 -8 91q1 51 10 82l12 9q37 -1 212 -1q42 0 123.5 2.5t95.5 2.5q21 0 34 -2t18 -8t5.5 -11t0.5 -15q0 -60 -47 -138l-30 -5q6 32 6 76q0 17 -6 28.5t-14.5 17t-24 8.5t-25 3.5
t-27.5 0.5h-78q6 -36 6 -111q0 -11 -1.5 -38.5t-3 -63t-2.5 -54.5q59 30 156 30q34 0 65.5 -10t60.5 -31.5t46 -61.5t17 -94z" />
    <glyph glyph-name="afii10052" unicode="&#x403;" horiz-adv-x="456" 
d="M445 647q0 -19 -14.5 -61t-30.5 -69l-30 -5q8 63 -2 93q-7 22 -26.5 30.5t-72.5 8.5q-24 0 -35 -1t-22.5 -6t-17.5 -15q-3 -5 -5 -16t-3 -32t-1.5 -39.5t-1.5 -56.5t-2 -65q-1 -38 -3.5 -94t-4 -96t-1.5 -57q0 -63 6.5 -93t15.5 -37t31 -9v-27h-107q-20 0 -26.5 11.5
t-6.5 55.5q0 13 1 47t3 73t2 48l6 222q3 116 -9.5 149.5t-56.5 33.5l1 33q154 14 255 14q91 0 124.5 -7.5t33.5 -32.5zM269 858l86 -14l-142 -129l-27 7z" />
    <glyph glyph-name="afii10053" unicode="&#x404;" horiz-adv-x="536" 
d="M492 125l11 -31q-3 -4 -9.5 -11.5t-27.5 -26t-44.5 -32.5t-60.5 -25.5t-75 -11.5q-107 0 -177.5 74.5t-70.5 232.5q0 94 21.5 166.5t54 114t75.5 68t80 35.5t73 9q78 0 108 -23t30 -51q0 -16 -16.5 -45.5t-45.5 -58.5l-17 4q6 30 6 55q0 44 -21.5 60t-62.5 16
q-32 0 -60 -11t-56 -38.5t-46.5 -84t-22.5 -137.5l234 3l-10 -59q-49 10 -225 10v-7q0 -271 177 -271q16 0 32 2.5t27.5 5t26 9t22 9.5t21 12.5t17.5 12.5t17 13.5t15 11.5z" />
    <glyph glyph-name="afii10054" unicode="&#x405;" horiz-adv-x="439" 
d="M411 196q0 -93 -65 -150t-174 -57q-58 0 -94.5 11t-48 24t-11.5 29q0 48 44 116l17 -7q9 -130 121 -130q48 0 85 36t37 105q0 25 -7.5 45t-16 33t-31.5 29.5t-36.5 24t-49.5 26.5q-5 3 -9 5l-8 4q-70 36 -92 57q-49 45 -49 124q0 29 9.5 55.5t32 53t68 42t109.5 15.5
q58 0 94.5 -11t48 -24t11.5 -29q0 -40 -53 -113l-17 7q0 36 -7 61t-17 37.5t-27 19.5t-28.5 8t-30.5 1q-48 0 -78.5 -27t-30.5 -76q0 -20 3.5 -37t12.5 -30t16.5 -22t23 -18t25 -14t29 -14t28.5 -13q74 -36 101 -58q64 -55 65 -139z" />
    <glyph glyph-name="afii10055" unicode="&#x406;" horiz-adv-x="256" 
d="M224 27v-27h-105q-20 0 -26.5 11.5t-6.5 55.5q0 31 4 151l8 239q4 121 -4.5 152t-51.5 31v33q71 18 119 18q27 0 27 -63q0 -23 -4 -122.5t-5 -156.5l-3 -140l-2 -89q0 -45 11 -68t39 -25z" />
    <glyph glyph-name="afii10056" unicode="&#x407;" horiz-adv-x="264" 
d="M225 769q0 -21 -15 -35.5t-36 -14.5t-36.5 14.5t-15.5 35.5t15.5 35.5t36.5 14.5t36 -14.5t15 -35.5zM102 769q0 -21 -15.5 -35.5t-36.5 -14.5t-36 14.5t-15 35.5t15 35.5t36 14.5t36.5 -14.5t15.5 -35.5zM224 27v-27h-105q-20 0 -26.5 11.5t-6.5 55.5q0 31 4 151l8 239
q4 121 -4.5 152t-51.5 31v33q71 18 119 18q27 0 27 -63q0 -23 -4 -122.5t-5 -156.5l-3 -140l-2 -89q0 -45 11 -68t39 -25z" />
    <glyph glyph-name="afii10057" unicode="&#x408;" horiz-adv-x="256" 
d="M188 628q0 -12 -1 -44.5t-2.5 -82t-2.5 -90.5l-3 -188q-1 -41 -6.5 -86.5t-20.5 -98t-36.5 -93.5t-57 -68t-80.5 -27q-47 0 -47 32q0 11 2.5 19.5t7.5 19.5t7 16l15 4q28 -35 53 -35q73 0 75 147l4 246l3 158q2 123 -6 153t-50 30v33q71 18 119 18q16 0 21.5 -11.5
t5.5 -51.5z" />
    <glyph glyph-name="afii10058" unicode="&#x409;" horiz-adv-x="755" 
d="M754 175q0 -41 -14.5 -74t-36.5 -52.5t-50 -32.5t-53 -17.5t-48 -4.5q-53 0 -97 11.5t-61 32.5q-7 9 -15 33t-14 47.5t-16 68t-17 71.5l-63 255q-23 91 -33 107h-9l-33 -121q-12 -45 -34.5 -125t-34.5 -123t-22 -89.5t-10 -67.5q0 -51 37 -76l-1 -23q-56 -2 -85 -2
q-15 0 -22.5 5.5t-9 13t-1.5 20.5q0 49 47 193l39 119q74 227 74 249q0 14 -5.5 22.5t-16.5 12.5t-17.5 4.5l-19.5 1.5v28q114 25 157 25q31 0 40 -13.5t25 -79.5q5 -17 7 -27l72 -293q35 -145 46 -172q14 -36 31.5 -51.5t58.5 -15.5q52 0 84 34t32 110q0 67 -48.5 114.5
t-128.5 47.5q-20 0 -36 -1.5t-22 -3.5l-7 -1l-6 38q28 8 64 8q138 0 205.5 -58t67.5 -148z" />
    <glyph glyph-name="afii10059" unicode="&#x40a;" horiz-adv-x="867" 
d="M839 224q0 -77 -41 -133.5t-96.5 -81t-112.5 -24.5q-76 0 -132 15q-28 8 -28 62q0 13 1 40.5t2.5 59.5t1.5 41l4 141l-258 3l-2 -76q-2 -175 5 -208q5 -29 21 -36v-27h-87q-17 0 -22.5 13t-5.5 49q0 44 4 164l5 231q2 116 -10 149.5t-56 33.5v33q81 18 129 18
q27 0 27 -63q0 -85 -8 -242l258 10v61q2 116 -10 149.5t-56 33.5v33q81 18 129 18q27 0 27 -63q0 -19 -1.5 -57t-3.5 -94.5t-3 -90.5q-10 -283 -10 -290q0 -35 19.5 -51.5t69.5 -16.5q74 0 112.5 56t38.5 129q0 144 -128 144q-55 0 -86 -13v38q44 17 109 17
q87 0 140.5 -42.5t53.5 -132.5z" />
    <glyph glyph-name="afii10060" unicode="&#x40b;" horiz-adv-x="668" 
d="M644 27v-27h-107q-20 0 -26.5 11.5t-6.5 55.5l3 136v48q0 70 -20 98t-75 28q-73 0 -126 -46q-4 -80 -4 -165q0 -65 5 -92.5t12 -33.5t29 -13v-27h-100q-20 0 -26.5 11.5t-6.5 55.5q0 17 3.5 84.5t3.5 75.5l8 262q4 131 -9 149l-1 2q-5 3 -29 3q-52 0 -71 -25
q-17 -21 -24.5 -39t-16.5 -67l-29 -10q-8 39 -8 91q1 51 10 82l12 9q37 -1 212 -1q42 0 123.5 2.5t95.5 2.5q21 0 34 -2t18 -8t5.5 -11t0.5 -15q0 -60 -47 -138l-30 -5q6 32 6 76q0 17 -6 28.5t-14.5 17t-24 8.5t-25 3.5t-27.5 0.5h-78q6 -36 6 -111q0 -11 -1 -33.5t-2 -57
t-2 -58.5q39 18 90.5 32t78.5 14q21 0 34.5 -1t34.5 -8t34 -20t22.5 -39t9.5 -63q0 -45 -2 -89t-2 -57q0 -50 5.5 -75t16 -34t34.5 -16z" />
    <glyph glyph-name="afii10061" unicode="&#x40c;" horiz-adv-x="548" 
d="M551 32v-27q-44 -10 -80 -10q-23 0 -37.5 13.5t-34.5 44.5q-36 54 -87 139q-47 74 -69 101t-46 33l-9 2l1 25q68 30 147 152q39 59 39 110q0 9 -2.5 15t-7 9t-8 4.5t-10 3t-8.5 2.5v27q81 11 106 11q10 0 15 -0.5t9 -4t4 -10.5q0 -18 -19.5 -57.5t-40.5 -71.5
q-29 -45 -40.5 -61.5t-40 -51t-60.5 -63.5q35 -18 106 -122q3 -5 45 -71t57 -86q15 -19 22.5 -27.5t20.5 -17t28 -11.5zM204 27v-27h-87q-17 0 -22.5 13t-5.5 49q0 15 5 165l4 230q2 123 -6 153t-50 30v33q71 18 119 18q16 0 21.5 -11.5t5.5 -51.5q0 -21 -6 -217l-4 -140
q-5 -120 -0.5 -177t26.5 -67zM329 858l86 -14l-142 -129l-27 7z" />
    <glyph glyph-name="afii10062" unicode="&#x40e;" horiz-adv-x="528" 
d="M518 654q0 -40 -59 -186l-49 -120q-24 -60 -73 -171l-7 -15q-6 -16 -10 -24t-13 -26.5t-16 -30t-17.5 -28t-20.5 -27t-22 -21t-24.5 -15.5t-25.5 -5q-40 0 -40 39q0 38 16 80l13 2q13 -17 23 -24t28 -7q16 0 27 16.5t11 50.5q0 8 -3 21.5t-10 33.5t-14 38t-18.5 48.5
t-19.5 51.5l-32 87q-32 86 -72 164q-27 53 -74 53v29q63 19 108 19q18 0 35 -31.5t52 -127.5l103 -288h9l46 114q21 54 41 123.5t20 108.5q0 33 -9.5 44.5t-32.5 19.5l1 23q67 14 96 14q19 0 26 -6.5t7 -26.5zM423 847l30 -10q-60 -123 -202 -123q-97 0 -97 53q0 22 16 42
t32 29l17 8q16 -39 38 -55t61 -16q61 0 105 72z" />
    <glyph glyph-name="afii10145" unicode="&#x40f;" horiz-adv-x="606" 
d="M576 24v-27q-110 7 -140 7q-49 0 -71 -35t-36 -154l-32 -5q0 79 -10.5 121t-27.5 54t-48 12q-40 0 -57.5 1t-35 8t-23 21t-5.5 40q0 41 2 86.5t2 61.5l4 242q-2 34 0.5 60.5t-1 45.5t-3 32.5t-5.5 22t-8 13t-11 6.5t-14.5 2.5t-18.5 0.5h-5v33q81 18 129 18q27 0 27 -63
q0 -64 -3 -129t-3 -85q-7 -219 -7 -240q0 -83 16 -111t80 -28q43 0 172 14q-10 41 -7 184l4 238q0 27 0.5 46t-1 36.5t-1 28.5t-3.5 21t-4 15t-7.5 9.5t-8 6t-12 3.5t-12.5 2t-17 1v33q81 18 129 18q17 0 22 -14t5 -49q0 -64 -3 -129t-3 -85q-7 -226 -7 -248
q0 -78 12.5 -108t46.5 -34z" />
    <glyph glyph-name="afii10017" unicode="&#x410;" horiz-adv-x="545" 
d="M537 31l-1 -33q-61 -5 -87 -5q-23 0 -34 13.5t-23 56.5q-1 3 -45 191l-210 2q-39 -124 -39 -169q0 -27 6 -40t24 -26l-1 -23q-44 -5 -73 -5q-21 0 -26.5 9.5t-5.5 29.5q0 39 50 184l43 128q7 21 24 68t27 75t18.5 58.5t8.5 44.5q0 8 -1.5 14.5t-5.5 10.5t-7 6t-10 3.5
t-9.5 2t-11.5 0.5h-10v28q140 36 170 36q26 0 31 -20q16 -64 34 -145l57 -252q28 -127 40 -157q16 -45 30.5 -65t36.5 -21zM151 296l188 -6l-49 223q-18 85 -32 112h-9l-36 -126z" />
    <glyph glyph-name="afii10018" unicode="&#x411;" horiz-adv-x="536" 
d="M499 224q0 -59 -23.5 -106t-61.5 -75.5t-82 -43t-89 -14.5q-53 0 -91.5 4.5t-55.5 12t-17 15.5q0 6 1.5 18t4 33.5t4.5 43.5q9 110 9 208v137q0 51 -3 119q-1 13 -3.5 22.5t-5 16.5t-8 11.5t-8.5 7t-10 4t-9.5 2t-10.5 0.5h-9l1 33q169 14 270 14q91 0 124.5 -7.5
t32.5 -32.5q0 -19 -15 -61t-32 -69l-30 -5q8 65 0 93q-7 22 -26.5 30.5t-72.5 8.5q-69 0 -88 -23q-13 -15 -14 -77q0 -12 -0.5 -39t-1 -66t-0.5 -66l-1 -87q0 -40 -3 -130l-2 -76q0 -27 16 -39.5t66 -12.5q72 0 113.5 55t41.5 130q0 144 -128 144q-55 0 -86 -13v38
q44 17 109 17q87 0 140.5 -42.5t53.5 -132.5z" />
    <glyph glyph-name="afii10019" unicode="&#x412;" horiz-adv-x="539" 
d="M498 188q-1 -50 -19 -88t-44.5 -59t-62.5 -34.5t-66.5 -17.5t-62.5 -4q-49 0 -106.5 10.5t-57.5 21.5q0 7 3.5 41.5t4.5 53.5q4 63 6 114l5 231q1 25 1 84q0 62 -14.5 80.5t-53.5 18.5l1 33q169 14 270 14q32 0 58 -5t54.5 -19t44 -45t14.5 -77q-1 -69 -39 -112t-80 -59
l-2 -7q68 -16 107.5 -53t38.5 -122zM385 525q1 57 -25.5 88t-76.5 31q-42 0 -59 -4.5t-29 -18.5q-15 -18 -14 -77l-2 -173l77 6q57 3 92.5 41t36.5 107zM409 188q2 72 -30.5 110.5t-112.5 38.5q-16 0 -38 -2.5t-36 -5.5l-14 -3l-3 -108q-3 -92 -3 -138q0 -28 16 -40t67 -12
q151 0 154 160z" />
    <glyph glyph-name="afii10020" unicode="&#x413;" horiz-adv-x="456" 
d="M445 647q0 -19 -14.5 -61t-30.5 -69l-30 -5q8 63 -2 93q-7 22 -26.5 30.5t-72.5 8.5q-24 0 -35 -1t-22.5 -6t-17.5 -15q-3 -5 -5 -16t-3 -32t-1.5 -39.5t-1.5 -56.5t-2 -65q-1 -38 -3.5 -94t-4 -96t-1.5 -57q0 -63 6.5 -93t15.5 -37t31 -9v-27h-107q-20 0 -26.5 11.5
t-6.5 55.5q0 13 1 47t3 73t2 48l6 222q3 116 -9.5 149.5t-56.5 33.5l1 33q154 14 255 14q91 0 124.5 -7.5t33.5 -32.5z" />
    <glyph glyph-name="afii10021" unicode="&#x414;" horiz-adv-x="597" 
d="M589 40q-3 -60 -23.5 -125.5t-39.5 -103.5l-27 -2q17 83 17 124q0 16 -1.5 25t-7.5 19t-21 14.5t-39 4.5q-208 0 -247 -1q-70 -2 -92.5 -7.5t-39.5 -34.5q-8 -14 -13.5 -44t-6.5 -53l-1 -22l-26 -11q-6 57 -10 121q-4 61 -4 88q40 5 57 24q28 34 65 161l40 139
q57 200 57 234q0 8 -1.5 14.5t-5.5 10.5t-7 6t-10 3.5t-9.5 2t-11.5 0.5h-10v28q140 36 170 36q28 0 34 -24q12 -44 32 -151q22 -119 51 -235q28 -111 47 -161q10 -27 18 -41t12.5 -19t14.5 -12q5 -4 15 -6t17 -2h7zM443 46q-25 46 -61 192q-12 49 -31 141.5t-28 133.5
q-21 95 -32 112h-9l-26 -109q-10 -42 -30.5 -120.5t-25.5 -96.5q-8 -31 -24.5 -90t-24 -90t-7.5 -44q0 -12 7 -18.5t24.5 -9.5t31.5 -3.5t44 -0.5z" />
    <glyph glyph-name="afii10022" unicode="&#x415;" horiz-adv-x="509" 
d="M441 176l28 -5l-26 -167q-83 -10 -222 -10q-89 0 -110.5 4.5t-21.5 27.5q0 19 2 70.5t3 106.5l4 254q1 25 1 84q0 62 -14 80.5t-53 18.5l1 33q168 14 269 14q92 0 124.5 -7t32.5 -33q0 -19 -15 -61t-32 -69l-30 -5q4 28 4 55q0 19 -2 29.5t-11 23t-31.5 18.5t-58.5 6
q-68 0 -87 -23q-11 -14 -13 -77l-3 -173l189 5l-11 -59q-22 4 -66.5 7.5t-77.5 4.5l-34 1q0 -20 -2 -106t-2 -107q0 -49 19.5 -64.5t80.5 -15.5q38 0 67 12.5t48 37.5t28.5 42.5t21.5 46.5z" />
    <glyph glyph-name="afii10024" unicode="&#x416;" horiz-adv-x="814" 
d="M790 32v-27q-42 -10 -78 -10q-23 0 -37.5 13.5t-34.5 44.5q-11 16 -42.5 71.5t-32.5 57.5q-40 68 -65 102t-50 49v20q65 29 145 152q41 64 41 110q0 9 -2.5 15t-7 9t-8 4.5t-10 3t-8.5 2.5v27q81 11 106 11q10 0 15 -0.5t9 -4t4 -10.5q0 -18 -19 -58.5t-38 -70.5
q-71 -110 -145 -179q26 -27 41.5 -48.5t58.5 -92.5q76 -125 84 -135q20 -26 36 -38.5t38 -17.5zM462 27v-27h-87q-17 0 -22.5 13t-5.5 49q0 15 5 165l4 230q3 130 -5 154q-16 27 -49 29l1 33q68 18 116 18q16 0 21.5 -11.5t5.5 -51.5q0 -21 -6 -217l-4 -140
q-5 -120 -0.5 -177t26.5 -67zM342 352l-2 -17q-18 -17 -42 -53q-26 -39 -77.5 -125t-55.5 -92q-25 -40 -47.5 -59t-53.5 -19q-13 0 -29.5 5.5t-26.5 11.5l-10 5l4 23q36 -1 97 87q11 15 27 40.5t38 59.5t34 53q12 18 69 92q-21 16 -45.5 48.5t-63.5 91l-49 73.5
q-28 41 -48 56t-46 16v26q51 16 83 16q22 0 35.5 -15t39.5 -69q29 -61 41 -85t36.5 -63.5t48.5 -68.5q26 -31 43 -38z" />
    <glyph glyph-name="afii10025" unicode="&#x417;" horiz-adv-x="469" 
d="M433 210q0 -95 -77.5 -159t-197.5 -64q-65 0 -101 24.5t-36 59.5q0 45 57 79l12 -5q0 -64 33.5 -89.5t78.5 -25.5q22 0 44 8.5t44 26.5t35.5 54t13.5 85q0 68 -33.5 97t-113.5 29l-68 -4l7 42l41 2q60 3 101 49t41 113q0 50 -26 81t-84 31q-38 0 -65 -22t-36 -41t-24 -62
q-1 -3 -2 -4.5t-1.5 -4t-1.5 -4.5l-30 -7q0 111 12 159l12 9q60 20 142 20q104 0 148.5 -30t44.5 -100q0 -66 -41 -114.5t-93 -77.5v-7q87 -9 125.5 -46t38.5 -102z" />
    <glyph glyph-name="afii10026" unicode="&#x418;" horiz-adv-x="612" 
d="M591 27v-27h-110q-17 0 -23.5 13.5t-6.5 48.5q0 14 1.5 151t1.5 152l-2 191q-24 -51 -160 -333q-70 -144 -114 -204q-14 -11 -39.5 -20t-38.5 -9l-12 7q1 25 3.5 124.5t2.5 105.5l4 230q2 116 -10 149.5t-56 33.5l1 33q80 18 128 18q27 0 27 -63q0 -85 -8 -242l-8 -293h2
q86 150 130 246q133 287 150 312q13 19 30.5 27.5t50.5 12.5l7 -4q-5 -92 -5 -150v-371q0 -29 0.5 -41.5t3 -33.5t8 -31t16 -20t26.5 -13z" />
    <glyph glyph-name="afii10027" unicode="&#x419;" horiz-adv-x="612" 
d="M473 847l30 -10q-60 -123 -202 -123q-97 0 -97 53q0 22 16 42t32 29l17 8q16 -39 38 -55t61 -16q61 0 105 72zM591 27v-27h-110q-17 0 -23.5 13.5t-6.5 48.5q0 14 1.5 151t1.5 152l-2 191q-24 -51 -160 -333q-70 -144 -114 -204q-14 -11 -39.5 -20t-38.5 -9l-12 7
q1 25 3.5 124.5t2.5 105.5l4 230q2 116 -10 149.5t-56 33.5l1 33q80 18 128 18q27 0 27 -63q0 -85 -8 -242l-8 -293h2q86 150 130 246q133 287 150 312q13 19 30.5 27.5t50.5 12.5l7 -4q-5 -92 -5 -150v-371q0 -29 0.5 -41.5t3 -33.5t8 -31t16 -20t26.5 -13z" />
    <glyph glyph-name="afii10028" unicode="&#x41a;" horiz-adv-x="548" 
d="M551 32v-27q-44 -10 -80 -10q-23 0 -37.5 13.5t-34.5 44.5q-36 54 -87 139q-47 74 -69 101t-46 33l-9 2l1 25q68 30 147 152q39 59 39 110q0 9 -2.5 15t-7 9t-8 4.5t-10 3t-8.5 2.5v27q81 11 106 11q10 0 15 -0.5t9 -4t4 -10.5q0 -18 -19.5 -57.5t-40.5 -71.5
q-29 -45 -40.5 -61.5t-40 -51t-60.5 -63.5q35 -18 106 -122q3 -5 45 -71t57 -86q15 -19 22.5 -27.5t20.5 -17t28 -11.5zM204 27v-27h-87q-17 0 -22.5 13t-5.5 49q0 15 5 165l4 230q2 123 -6 153t-50 30v33q71 18 119 18q16 0 21.5 -11.5t5.5 -51.5q0 -21 -6 -217l-4 -140
q-5 -120 -0.5 -177t26.5 -67z" />
    <glyph glyph-name="afii10029" unicode="&#x41b;" horiz-adv-x="548" 
d="M541 31v-33q-61 -5 -87 -5q-23 0 -34 13.5t-24 56.5q-6 19 -13 47.5t-17.5 72.5t-18.5 75l-63 255q-27 106 -30 112h-9l-36 -126q-101 -337 -101 -405q0 -51 37 -76l-1 -23q-56 -2 -85 -2q-15 0 -22.5 5.5t-9 13t-1.5 20.5q0 45 47 193l38 119q7 21 24 68t27 75
t18.5 58.5t8.5 44.5q0 8 -1.5 14.5t-5.5 10.5t-7 6t-10 3.5t-9.5 2t-11.5 0.5h-10v28q140 36 170 36q26 0 31 -20q2 -8 13.5 -60.5t21.5 -93.5l60 -243q31 -124 43 -154q18 -46 32 -67t36 -22z" />
    <glyph glyph-name="afii10030" unicode="&#x41c;" horiz-adv-x="772" 
d="M741 26v-27q-51 -6 -77 -6q-28 0 -37 11.5t-15 57.5q-5 39 -26 376l-10 159q-44 -138 -78 -230q-65 -178 -93 -226q-26 -43 -46 -43q-42 0 -87 183l-79 326l-23 -92q-21 -84 -35.5 -190t-14.5 -165t9 -93t40 -37l1 -23q-57 -14 -81 -14q-22 0 -31.5 10t-9.5 35
q0 73 25 208q16 86 27 138q39 193 39 226q0 11 -3.5 17.5t-11 9.5t-13 3.5t-16.5 0.5h-14l-3 27q82 21 132 21q27 0 39.5 -4t15.5 -17q7 -28 47 -212q52 -243 73 -243q11 0 26.5 34t59.5 153q51 137 76 248q42 32 98 40l11 -4q1 -70 18 -334q10 -160 24 -253q5 -36 13.5 -53
t29.5 -18z" />
    <glyph glyph-name="afii10031" unicode="&#x41d;" horiz-adv-x="596" 
d="M564 27v-27h-107q-17 0 -22.5 13t-5.5 49q0 14 2.5 70t2.5 71l4 141l-258 3l-2 -76q0 -18 -1.5 -68.5t-1.5 -68.5q0 -62 8.5 -81t30.5 -26v-27h-97q-17 0 -22.5 13t-5.5 49q0 44 4 164l5 231q1 25 1 84q0 62 -14 80.5t-53 18.5l1 33q80 18 128 18q27 0 27 -63
q0 -45 -3.5 -129t-4.5 -113l258 10v61q0 130 -8 156.5t-58 26.5l1 33q80 18 128 18q27 0 27 -63q0 -23 -4 -122.5t-5 -156.5l-3 -140l-2 -89q0 -45 11 -68t39 -25z" />
    <glyph glyph-name="afii10032" unicode="&#x41e;" horiz-adv-x="627" 
d="M588 358q0 -86 -20.5 -154t-51.5 -107.5t-70.5 -65.5t-73.5 -35t-65 -9q-113 0 -188 86t-75 253q0 89 20.5 157.5t50.5 107.5t70.5 63.5t75.5 32.5t70 8q115 0 186 -84.5t71 -252.5zM497 354q0 298 -176 298q-186 0 -186 -322q0 -148 48 -224t134 -76q30 0 58 13.5
t57.5 46.5t47 101t17.5 163z" />
    <glyph glyph-name="afii10033" unicode="&#x41f;" horiz-adv-x="605" 
d="M571 27v-27h-107q-17 0 -22.5 13t-5.5 49q0 3 5 153q7 219 7 242q0 110 -8 135q-11 37 -58 46q-23 4 -64 4q-38 0 -72.5 -2t-49.5 -4l-16 -3q5 -28 5 -135q0 -19 -7 -227q-3 -80 -3 -137q0 -60 8.5 -80t30.5 -27v-27h-97q-17 0 -22.5 13t-5.5 49q0 44 4 164l7 231
q3 116 -9.5 149.5t-56.5 33.5l1 33q159 14 264 14q178 0 203 -17q15 -10 22.5 -35t7.5 -91q0 -25 -4 -153l-6 -225q-2 -77 7.5 -106.5t41.5 -32.5z" />
    <glyph glyph-name="afii10034" unicode="&#x420;" horiz-adv-x="491" 
d="M475 532q0 -172 -212 -208q-19 -3 -61 -6v39q12 -1 56 5q50 8 89.5 44.5t39.5 109.5q0 62 -29.5 95t-80.5 33q-37 0 -53.5 -4.5t-28.5 -18.5q-10 -11 -13 -123q-10 -320 -10 -332q0 -63 6.5 -93t15.5 -37t31 -9v-27h-107q-20 0 -26.5 11.5t-6.5 55.5q0 13 1 47t3 73t2 48
l6 222q3 116 -9.5 149.5t-56.5 33.5l1 33q149 14 250 14q27 0 51.5 -3.5t51.5 -13.5t46 -26.5t31.5 -45t12.5 -66.5z" />
    <glyph glyph-name="afii10035" unicode="&#x421;" horiz-adv-x="531" 
d="M492 125l11 -31q-3 -4 -9.5 -11.5t-27.5 -26t-44.5 -32.5t-60.5 -25.5t-75 -11.5q-106 0 -175 78t-69 241q0 178 90 283q43 50 99.5 74t110.5 24q78 0 108 -23t30 -51q0 -16 -16.5 -45.5t-45.5 -58.5l-17 4q6 30 6 55q0 44 -21.5 60t-62.5 16q-80 0 -135.5 -79.5
t-55.5 -234.5q0 -144 52 -213.5t129 -69.5q96 0 179 78z" />
    <glyph glyph-name="afii10036" unicode="&#x422;" horiz-adv-x="548" 
d="M533 652q0 -23 -13 -63.5t-34 -74.5l-30 -5q6 32 6 76q0 17 -6 28.5t-14.5 17t-24 8.5t-25 3.5t-27.5 0.5h-58q6 -36 6 -111q0 -18 -3.5 -100t-4.5 -124q-3 -138 -3 -142q0 -63 6.5 -93t15.5 -37t31 -9v-27h-110q-20 0 -26.5 11.5t-6.5 55.5q0 17 3.5 84.5t3.5 75.5
l9 262q0 6 0.5 37t0.5 39q0 24 -1 33.5t-6 22.5t-18 17.5t-35 4.5q-50 0 -71 -25q-11 -14 -16 -22.5t-12 -29t-13 -54.5l-29 -10q-8 39 -8 91q0 45 10 82l12 9q59 -1 234 -1q42 0 113.5 2.5t85.5 2.5q28 0 41 -5t15 -11t2 -20z" />
    <glyph glyph-name="afii10037" unicode="&#x423;" horiz-adv-x="528" 
d="M518 654q0 -40 -59 -186l-49 -120q-24 -60 -73 -171l-7 -15q-6 -16 -10 -24t-13 -26.5t-16 -30t-17.5 -28t-20.5 -27t-22 -21t-24.5 -15.5t-25.5 -5q-40 0 -40 39q0 38 16 80l13 2q13 -17 23 -24t28 -7q16 0 27 16.5t11 50.5q0 8 -3 21.5t-10 33.5t-14 38t-18.5 48.5
t-19.5 51.5l-32 87q-32 86 -72 164q-27 53 -74 53v29q63 19 108 19q18 0 35 -31.5t52 -127.5l103 -288h9l46 114q21 54 41 123.5t20 108.5q0 33 -9.5 44.5t-32.5 19.5l1 23q67 14 96 14q19 0 26 -6.5t7 -26.5z" />
    <glyph glyph-name="afii10038" unicode="&#x424;" horiz-adv-x="704" 
d="M668 363q0 -114 -84 -192t-188 -81l-1 -87q0 -24 -26 -39t-59 -15q7 64 8 140q-42 0 -85.5 12.5t-86.5 38.5t-70.5 75.5t-27.5 114.5q0 63 24.5 113.5t65 81t87 47t96.5 20.5q1 68 -12 87t-58 19l3 33q73 18 121 18q26 0 26 -63q0 -59 -2 -94q50 0 93 -9.5t85 -32.5
t66.5 -71t24.5 -116zM583 365q0 102 -53.5 147t-130.5 45l-4 -431q70 0 129 62t59 177zM317 126l4 431q-35 -4 -65 -15.5t-59.5 -35.5t-46.5 -69t-17 -107q0 -99 55 -151.5t129 -52.5z" />
    <glyph glyph-name="afii10039" unicode="&#x425;" horiz-adv-x="514" 
d="M492 31l-1 -33q-61 -5 -87 -5q-23 0 -35.5 13.5t-32.5 54.5q-9 19 -47.5 114t-51.5 122q-43 -62 -78 -128.5t-35 -100.5q0 -10 1 -16t7.5 -12.5l7.5 -7.5t15 -11l-1 -23q-49 -5 -93 -5q-32 0 -32 23q0 26 63 133.5t124 187.5q-90 207 -126 257q-37 51 -77 51v33
q57 10 96 10q43 0 91 -109q5 -9 7 -14q17 -37 39 -89.5t32 -74.5q88 146 88 199q0 38 -34 50l1 23q67 14 96 14q19 0 26.5 -5.5t7.5 -21.5q0 -57 -165 -303q75 -167 112 -240q21 -43 40.5 -64t41.5 -22z" />
    <glyph glyph-name="afii10040" unicode="&#x426;" horiz-adv-x="631" 
d="M615 23q-4 -45 -26 -110.5t-41 -101.5l-27 -2q17 83 17 124q0 67 -80 67q-26 0 -115 -2.5t-141 -2.5q-74 0 -93.5 15.5t-19.5 60.5q0 35 4 155l5 231q1 25 1 84q0 62 -14 80.5t-53 18.5v33q81 18 129 18q27 0 27 -63q0 -64 -3 -129t-3 -85q-7 -219 -7 -240
q0 -83 13.5 -108.5t72.5 -25.5q99 0 182 9q-10 41 -7 184l4 238q0 27 0.5 46t-1 36.5t-1 28.5t-3.5 21t-4 15t-7.5 9.5t-8 6t-12 3.5t-12.5 2t-17 1v33q81 18 129 18q17 0 22 -14t5 -49q0 -64 -3 -129t-3 -85q-7 -215 -7 -236q0 -92 16 -123.5t82 -31.5z" />
    <glyph glyph-name="afii10041" unicode="&#x427;" horiz-adv-x="573" 
d="M535 27v-27h-107q-17 0 -23.5 11.5t-6.5 42.5q0 16 5 148l5 142q-10 -8 -28 -19.5t-68.5 -31t-95.5 -19.5q-44 0 -72.5 13t-41 40.5t-16.5 56t-4 73.5q0 25 1 66t1 51q0 40 -15.5 53t-52.5 13v33q81 18 129 18q27 0 27 -63q0 -12 -2 -84.5t-2 -107.5q0 -21 2.5 -36
t11.5 -32t30 -26t53 -9q26 0 50.5 6.5t41 15.5t29 18.5t18.5 16.5l5 6l1 61l2 98q0 51 -14 67t-55 18v33q81 18 129 18q27 0 27 -63q0 -23 -4 -122.5t-5 -156.5l-3 -140l-2 -89q0 -45 11 -68t39 -25z" />
    <glyph glyph-name="afii10042" unicode="&#x428;" horiz-adv-x="917" 
d="M892 24v-27q-53 2 -76 2q-20 0 -126.5 -0.5t-172.5 -0.5q-51 0 -158.5 -1.5t-156.5 -1.5q-74 0 -93.5 15.5t-19.5 60.5q0 35 4 155l5 231q1 25 1 84q0 62 -14 80.5t-53 18.5v33q81 18 129 18q27 0 27 -63q0 -64 -3 -129t-3 -85q-7 -219 -7 -240q0 -83 13.5 -108.5
t72.5 -25.5l172 4q-14 47 -14 129l5 298q3 129 -12 152q-9 14 -43 16q-1 0 -5 1h-6v33q81 18 129 18q17 0 22 -14t5 -49q0 -64 -3 -129t-3 -85q-5 -215 -5 -221q0 -85 14.5 -119t53.5 -34q101 0 184 9q-7 46 -7 153l2 255q1 126 -8.5 153t-58.5 30v33q81 18 129 18
q17 0 22 -14t5 -49q0 -22 -3 -123t-3 -127v-212q0 -73 12.5 -105.5t46.5 -36.5z" />
    <glyph glyph-name="afii10043" unicode="&#x429;" horiz-adv-x="944" 
d="M931 23q-4 -45 -26 -110.5t-41 -101.5l-27 -2q17 83 17 124q0 68 -83 68q-20 0 -104 -1.5t-150 -1.5q-57 0 -165 -1.5t-150 -1.5q-74 0 -93.5 15.5t-19.5 60.5q0 35 4 155l5 231q1 25 1 84q0 62 -14 80.5t-53 18.5v33q81 18 129 18q27 0 27 -63q0 -64 -3 -129t-3 -85
q-7 -219 -7 -240q0 -83 13.5 -108.5t72.5 -25.5l172 4q-14 47 -14 129l5 298q3 129 -12 152q-9 14 -43 16q-1 0 -5 1h-6v33q81 18 129 18q17 0 22 -14t5 -49q0 -64 -3 -129t-3 -85q-5 -215 -5 -221q0 -85 14.5 -119t53.5 -34q101 0 184 9q-7 46 -7 153l2 255q1 126 -8.5 153
t-58.5 30v33q81 18 129 18q17 0 22 -14t5 -49q0 -22 -3 -123t-3 -127v-200q0 -92 16 -123.5t82 -31.5z" />
    <glyph glyph-name="afii10044" unicode="&#x42a;" horiz-adv-x="656" 
d="M631 224q0 -59 -23.5 -106t-61.5 -75.5t-82 -43t-89 -14.5q-49 0 -106.5 10.5t-57.5 21.5q0 6 1.5 18t4 33.5t4.5 43.5q6 78 9 208l2 194q1 98 -11 113q-14 16 -50 16q-52 0 -71 -25q-17 -21 -24.5 -39t-16.5 -67l-29 -10q-8 39 -8 91q1 51 10 82l12 9l232 -1
q16 0 23.5 -2.5t13 -15t5.5 -37.5q0 -13 -1 -48.5t-2 -92t-2 -93.5l-3 -155q-1 -34 -3 -91.5t-2 -67.5q0 -29 15.5 -40.5t66.5 -11.5q75 0 115 56t40 129q0 144 -128 144q-55 0 -86 -13v38q44 17 109 17q87 0 140.5 -42.5t53.5 -132.5z" />
    <glyph glyph-name="afii10045" unicode="&#x42b;" horiz-adv-x="749" 
d="M499 224q0 -59 -23.5 -106t-61.5 -75.5t-82 -43t-89 -14.5q-49 0 -106.5 10.5t-57.5 21.5q0 6 1.5 18t4 33.5t4.5 43.5q9 110 9 208v137q0 87 -4.5 122.5t-17.5 48t-44 12.5v33q81 18 129 18q27 0 27 -63q0 -13 -1.5 -53t-3 -94t-2.5 -87l-3 -155q-1 -34 -3 -91.5
t-2 -67.5q0 -29 15.5 -40.5t66.5 -11.5q75 0 115 56t40 129q0 144 -128 144q-55 0 -86 -13v38q44 17 109 17q87 0 140.5 -42.5t53.5 -132.5zM714 27v-27h-105q-20 0 -26.5 11.5t-6.5 55.5q0 31 4 151l8 239q4 121 -4.5 152t-51.5 31v33q71 18 119 18q27 0 27 -63
q0 -23 -4 -122.5t-5 -156.5l-3 -140l-2 -89q0 -45 11 -68t39 -25z" />
    <glyph glyph-name="afii10046" unicode="&#x42c;" horiz-adv-x="524" 
d="M499 224q0 -59 -23.5 -106t-61.5 -75.5t-82 -43t-89 -14.5q-49 0 -106.5 10.5t-57.5 21.5q0 6 1.5 18t4 33.5t4.5 43.5q9 110 9 208v137q0 87 -4.5 122.5t-17.5 48t-44 12.5v33q81 18 129 18q27 0 27 -63q0 -13 -1.5 -53t-3 -94t-2.5 -87l-3 -155q-1 -34 -3 -91.5
t-2 -67.5q0 -29 15.5 -40.5t66.5 -11.5q75 0 115 56t40 129q0 144 -128 144q-55 0 -86 -13v38q44 17 109 17q87 0 140.5 -42.5t53.5 -132.5z" />
    <glyph glyph-name="afii10047" unicode="&#x42d;" horiz-adv-x="549" 
d="M508 379q0 -101 -29 -180t-75.5 -123t-98.5 -66.5t-106 -22.5q-74 0 -113 24t-39 60q0 45 57 79l12 -5q0 -64 32 -88.5t77 -24.5q19 0 40.5 6.5t47.5 26.5t47 51t37 85.5t19 123.5q-50 -3 -138 -11t-115 -13l11 66l243 -2q-1 149 -42 218t-129 69q-27 0 -50 -6.5
t-40 -21.5t-28 -27t-22 -36t-15 -34t-13 -35l-30 -7q0 111 12 159l8 13q7 4 21.5 10.5t63.5 17t103 10.5q123 0 187.5 -73.5t64.5 -242.5z" />
    <glyph glyph-name="afii10048" unicode="&#x42e;" horiz-adv-x="872" 
d="M830 358q0 -89 -21 -158t-51 -108t-69.5 -64t-71.5 -33t-61 -8q-118 0 -191 90.5t-73 267.5l-112 2l-2 -76q0 -18 -1.5 -68.5t-1.5 -68.5q0 -62 8.5 -81t30.5 -26v-27h-97q-17 0 -22.5 13t-5.5 49q0 44 4 164l5 231q1 25 1 84q0 62 -14 80.5t-53 18.5l1 33q80 18 128 18
q27 0 27 -63q0 -45 -3.5 -129t-4.5 -113l115 7q8 70 30.5 125t51 87.5t64 53.5t67 28.5t63.5 7.5q121 0 190 -83.5t69 -253.5zM740 354q0 298 -177 298q-28 0 -52 -8.5t-49 -31.5t-42 -59t-28 -95.5t-11 -137.5q0 -143 47.5 -216.5t136.5 -73.5q22 0 43 7.5t46 29.5t43 56.5
t30.5 94t12.5 136.5z" />
    <glyph glyph-name="afii10049" unicode="&#x42f;" horiz-adv-x="523" 
d="M496 27v-27h-107q-17 0 -23 13t-6 49q0 14 2 70t2 71l1 198q2 155 -3 196q-6 48 -65 48q-56 0 -98 -38t-43 -104q0 -127 118 -149q23 -4 78 -4v-21q-52 -15 -74 -46q-18 -27 -37.5 -60.5t-47.5 -85.5t-29 -54q-18 -33 -29 -48t-30.5 -28.5t-45.5 -13.5q-9 0 -25 5t-28 10
l-11 6l4 23q26 0 42.5 17.5t44.5 64.5q68 115 77 129q39 58 69 81q-17 2 -34.5 6t-43 16t-44 29t-32 46.5t-13.5 67.5q0 54 22 93t60 60t79.5 30.5t89.5 9.5l139 -4l7 -4q-7 -33 -9 -135q-2 -44 -4 -158l-3 -220q0 -78 9 -107t41 -32z" />
    <glyph glyph-name="afii10065" unicode="&#x430;" horiz-adv-x="446" 
d="M436 29l-1 -23q-60 -15 -88 -15q-50 0 -53 74q-60 -77 -137 -77q-47 0 -80 29t-33 92q0 43 12 71.5t41.5 46.5t58.5 27t82 20l61 13q1 27 1 74q0 43 -18 57.5t-52 14.5q-83 0 -79 -76l-8 -11q-74 0 -74 37q0 36 66 64t146 28q56 0 78 -25.5t22 -78.5q0 -3 -5 -150l-2 -94
q0 -61 11 -79.5t51 -18.5zM298 249l-55 -11q-61 -13 -85 -35q-30 -27 -30 -75q0 -38 16.5 -60.5t45.5 -22.5q34 0 60 19t35 38l9 19z" />
    <glyph glyph-name="afii10066" unicode="&#x431;" horiz-adv-x="461" 
d="M440 241q-4 -111 -62 -184t-150 -73q-93 0 -139.5 69.5t-41.5 201.5q4 119 22.5 194t69.5 134q20 23 51.5 45t56.5 34.5t57 27.5t38 18q27 14 40 24.5t26 33.5l20 -4q0 -3 -1.5 -15t-2 -17t-2.5 -16t-4 -17t-5 -14.5t-7 -15t-9 -11.5q-23 -25 -99 -57t-112 -61
q-42 -33 -64 -68.5t-29 -97.5h8q25 50 68.5 77.5t97.5 27.5q76 0 127 -57t46 -179zM354 207q2 61 -5 105.5t-18.5 67.5t-29.5 36t-31.5 15.5t-31.5 2.5q-40 0 -73.5 -40t-36.5 -129q-4 -127 30 -184t86 -57q45 0 76 44t34 139z" />
    <glyph glyph-name="afii10067" unicode="&#x432;" horiz-adv-x="443" 
d="M412 139q0 -45 -24.5 -77t-60.5 -46.5t-64.5 -20.5t-50.5 -6q-143 0 -143 52q0 9 2.5 58t3.5 72l2 112q0 7 0.5 40.5t0.5 39.5q0 44 -13 58t-43 14v28q142 11 226 11q146 0 146 -98q0 -82 -102 -121l-1 -6q26 -4 44 -9t37.5 -16t29.5 -32.5t10 -52.5zM310 359
q0 76 -77 76q-31 0 -44 -3.5t-24 -13.5q-7 -7 -10 -63l-2 -97l58 3q47 2 73 27t26 71zM328 140q0 85 -104 85q-19 0 -37 -1.5t-27 -3.5l-8 -1q0 -7 -0.5 -31t-0.5 -38q0 -78 9 -99q12 -22 52 -22q54 0 85 28t31 83z" />
    <glyph glyph-name="afii10068" unicode="&#x433;" horiz-adv-x="391" 
d="M355 110l12 -30q-89 -89 -184 -89q-144 0 -144 113q0 23 8.5 42.5t28.5 36.5t33 26.5t44 27t40 22.5q75 46 75 110q0 56 -65 56q-53 0 -132 -73l-19 25q99 99 194 99q18 0 34.5 -3t36.5 -10.5t32.5 -26t12.5 -45.5q0 -32 -10 -56.5t-35.5 -46t-41.5 -32t-56 -32.5
q-1 -1 -12.5 -7t-14 -8t-12.5 -8t-13.5 -10t-11 -11t-11 -13.5t-7.5 -15t-5.5 -18t-1.5 -20.5q0 -26 19 -47t65 -21q34 0 75.5 20t65.5 45z" />
    <glyph glyph-name="afii10069" unicode="&#x434;" horiz-adv-x="458" 
d="M422 389q0 -71 -12 -139t-36.5 -129.5t-68 -99t-100.5 -37.5q-70 0 -116 64.5t-46 162.5q0 127 59 196.5t145 69.5q30 0 64 -10l1 -35q-26 11 -68 11t-78.5 -52t-36.5 -158t27 -158t64 -52q33 0 53.5 26t36.5 76q25 80 25 202q0 187 -48 265t-139 78q-39 0 -84 -15v30
q51 28 119 28q115 0 177 -83t62 -241z" />
    <glyph glyph-name="afii10070" unicode="&#x435;" horiz-adv-x="429" 
d="M397 373q-2 -55 -47.5 -86.5t-111.5 -40.5l-105 -14q-3 -81 35.5 -134.5t99.5 -53.5q38 0 69 9t43 19l12 9v-32q-7 -6 -20 -16t-55 -26t-87 -16q-79 0 -132 57.5t-49 177.5q2 69 27 121t61.5 78.5t70.5 39t64 12.5q23 0 42.5 -4t40 -14.5t32 -32t10.5 -53.5zM314 371
q1 28 -13 46.5t-43 18.5q-46 0 -80 -38.5t-43 -128.5l78 9q97 11 101 93z" />
    <glyph glyph-name="afii10072" unicode="&#x436;" horiz-adv-x="678" 
d="M673 25l-2 -24q-49 -9 -79 -9q-6 0 -12 1.5t-12 5.5t-10.5 7.5t-11 11.5t-11 14t-12 17.5t-12.5 19.5t-14.5 23t-15.5 25l-81 128v12q45 23 87 71q48 54 46 89q-1 5 -3 8.5t-4 5t-7 4l-7 3.5l1 25q71 7 92 7q23 0 23 -18q0 -29 -27 -64q-28 -33 -70 -72t-61 -52
q17 -20 65.5 -93t62.5 -90t23 -27t23 -19t29 -10zM406 28l-1 -27q-36 -6 -62 -6q-21 0 -28 14.5t-7 54.5q0 38 3 108l4 111q1 54 -1 99q-1 21 -5.5 32t-8 13.5t-14.5 7.5l1 28q48 9 78 9q12 0 17 -2t9.5 -15t4.5 -39l-3 -110l-4 -111q-3 -75 -2 -112q1 -28 4.5 -39.5
t14.5 -15.5zM301 264l-1 -23l-34 -45q-24 -32 -57.5 -77t-40.5 -55q-51 -71 -92 -71q-13 0 -28.5 4.5t-24.5 8.5l-9 5v22q34 -1 93 77l125 160q-31 24 -105 112q-29 34 -43.5 43t-42.5 12l1 26q58 9 82 9q22 0 31.5 -10t26.5 -46q37 -77 90 -133q9 -10 29 -19z" />
    <glyph glyph-name="afii10073" unicode="&#x437;" horiz-adv-x="411" 
d="M377 146q0 -73 -61.5 -114t-141.5 -41q-41 0 -69 7t-40.5 18.5t-17.5 21.5t-5 21q0 18 16.5 32.5t45.5 21.5l12 -10q2 -32 23.5 -51.5t59.5 -19.5q87 0 87 102q0 31 -9.5 51t-26 27t-26 9t-22.5 2l-77 -6l7 39l56 3q38 2 64.5 29.5t26.5 72.5q0 77 -77 77
q-45 0 -65.5 -29.5t-20.5 -67.5l-12 -10q-56 16 -56 52q0 31 53 62.5t136 31.5q19 0 38 -3.5t40.5 -12.5t34.5 -29.5t13 -49.5q0 -46 -28 -75.5t-75 -53.5v-4q117 -16 117 -103z" />
    <glyph glyph-name="afii10074" unicode="&#x438;" horiz-adv-x="504" 
d="M485 32l-2 -24q-64 -13 -86 -13q-19 0 -28.5 4.5t-15.5 19.5q-9 27 -6 147l2 116q0 9 4 55.5t4 57.5l-3 1q-55 -121 -95 -201q-52 -104 -92 -160q-32 -45 -65 -45q-30 0 -30 67q0 37 3 121q3 94 3 151q0 64 -13.5 83.5t-45.5 22.5l2 28q60 9 93 9q26 0 36.5 -16t10.5 -57
q0 -9 -4 -103t-4 -122q0 -64 9 -64q3 0 7 3t9 9t9.5 12t10.5 17t10 19t11 21.5t11 21.5l11 22t10 21q18 37 39.5 83t35 75t21.5 42q12 21 63 21q15 0 20 -3.5t5 -16.5q0 -4 -2 -37t-4 -75.5t-2 -66.5l-2 -83q-2 -67 2 -106q2 -57 58 -57z" />
    <glyph glyph-name="afii10075" unicode="&#x439;" horiz-adv-x="504" 
d="M373 642l24 -2q-25 -57 -72 -86.5t-101 -29.5q-81 0 -81 50q0 21 16.5 39.5t32.5 26.5l17 8q18 -40 31.5 -53t45.5 -13q20 0 44 16t43 44zM485 32l-2 -24q-64 -13 -86 -13q-19 0 -28.5 4.5t-15.5 19.5q-9 27 -6 147l2 116q0 9 4 55.5t4 57.5l-3 1q-55 -121 -95 -201
q-52 -104 -92 -160q-32 -45 -65 -45q-30 0 -30 67q0 37 3 121q3 94 3 151q0 64 -13.5 83.5t-45.5 22.5l2 28q60 9 93 9q26 0 36.5 -16t10.5 -57q0 -9 -4 -103t-4 -122q0 -64 9 -64q3 0 7 3t9 9t9.5 12t10.5 17t10 19t11 21.5t11 21.5l11 22t10 21q18 37 39.5 83t35 75
t21.5 42q12 21 63 21q15 0 20 -3.5t5 -16.5q0 -4 -2 -37t-4 -75.5t-2 -66.5l-2 -83q-2 -67 2 -106q2 -57 58 -57z" />
    <glyph glyph-name="afii10076" unicode="&#x43a;" horiz-adv-x="438" 
d="M444 29l-1 -27q-38 -10 -74 -10q-5 0 -9.5 0.5t-9 3t-8 3.5t-7.5 5.5t-6.5 6t-7 7.5t-6 8.5t-6.5 10t-7 9.5q-14 19 -47 72q-63 100 -93 123l1 15q63 28 107 78q39 47 41 82q0 24 -16 30v17q54 7 87 7q23 0 23 -18q1 -24 -44 -79q-28 -33 -64.5 -66t-57.5 -47
q24 -17 65 -78q9 -12 24 -34t27 -39t20 -28q19 -25 33 -36t36 -16zM185 29l-1 -27q-53 -7 -79 -7q-22 0 -28.5 14.5t-6.5 62.5q0 34 3 100l4 111q1 22 1 40t-1 32.5t-1.5 25t-3.5 18.5t-4.5 13.5t-6.5 9.5t-7 6t-8.5 3.5t-10 2t-11.5 1.5l1 28q67 9 104 9q12 0 17 -2
t9.5 -14.5t4.5 -39.5q0 -34 -8 -192q-3 -72 -1 -141q1 -27 8 -38.5t26 -15.5z" />
    <glyph glyph-name="afii10077" unicode="&#x43b;" horiz-adv-x="423" 
d="M416 29v-27q-50 -11 -72 -11q-20 0 -29 10.5t-22 49.5q-2 5 -31 138l-31 155q-15 71 -24 86h-8l-25 -76q-78 -237 -76 -277q1 -27 7 -36.5t25 -15.5l-1 -19q-36 -15 -72 -15q-29 0 -31 34q-4 48 45 170l31 78q6 14 14 33.5t12.5 31t9.5 24.5t7 22.5t2 16.5q-2 32 -49 34
v23q84 16 132 16q43 0 53.5 -15t26.5 -99v-2l29 -148q17 -84 26 -112q16 -64 51 -69z" />
    <glyph glyph-name="afii10078" unicode="&#x43c;" horiz-adv-x="597" 
d="M589 27v-25q-52 -13 -74 -13q-20 0 -28.5 11t-12.5 49q-3 24 -18 240l-5 108q-28 -73 -59 -145q-59 -140 -69 -158q-24 -42 -40 -42q-11 0 -27.5 33t-49.5 126q-15 43 -28.5 81.5t-19 54.5t-10.5 29t-9 21l-17 -93q-19 -106 -19 -201q0 -64 42 -78v-19q-36 -15 -72 -15
q-32 0 -32 34q0 77 27 203l14 64q20 90 20 113q0 17 -10.5 22.5t-29.5 6.5v23q90 15 112 15q21 0 35 -43q3 -7 4 -11l49 -146q4 -11 8.5 -25.5t7.5 -23.5t6.5 -19t6 -15.5t5.5 -10.5t6 -7t6 -2q10 0 22.5 26t41.5 97q38 96 58 154q43 28 78 28q14 0 15 -22l3 -45l11 -196
q5 -81 10 -118q6 -35 15 -48.5t27 -17.5z" />
    <glyph glyph-name="afii10079" unicode="&#x43d;" horiz-adv-x="494" 
d="M484 29l-2 -24q-55 -10 -80 -10q-22 0 -33 4t-20 24.5t-9 61.5l5 137h-186l-1 -27q-3 -75 -2 -112q1 -27 8 -38.5t26 -15.5l-1 -27q-53 -7 -79 -7q-21 0 -28 12.5t-7 53.5q0 16 1.5 56t1.5 55q4 122 4 157q0 62 -14 82.5t-45 23.5l2 28q60 9 93 9q47 0 47 -73
q0 -25 -5 -138l186 7l1 15q3 48 3 68q0 37 -5.5 55.5t-12 22.5t-22.5 6l1 28q42 9 79 9q10 0 14.5 -1t12 -5.5t10.5 -17t3 -32.5q0 -18 -1.5 -59t-1.5 -51q-5 -141 -5 -154q0 -79 13 -101t49 -22z" />
    <glyph glyph-name="afii10080" unicode="&#x43e;" horiz-adv-x="471" 
d="M441 248q0 -109 -57 -183t-151 -74q-88 0 -137.5 60.5t-49.5 175.5q0 69 21.5 120.5t55.5 78t68.5 39t68.5 12.5q78 0 129.5 -52t51.5 -177zM355 237q0 63 -8 104.5t-24 61.5t-33 27.5t-41 7.5q-50 0 -84 -48t-34 -153q0 -112 30 -159.5t77 -47.5q50 0 83.5 50t33.5 157z
" />
    <glyph glyph-name="afii10081" unicode="&#x43f;" horiz-adv-x="482" 
d="M476 29l-2 -24q-55 -10 -80 -10q-33 0 -47.5 18.5t-14.5 79.5q0 4 1.5 37t3 77t1.5 76q0 68 -12 93t-45 25q-41 0 -76.5 -56t-45.5 -150q-4 -42 -4 -111q0 -26 8 -38.5t28 -16.5l-1 -27q-53 -7 -79 -7q-22 0 -30 13t-8 53q0 13 3 58t3 63l4 101q2 56 -1 99q-1 12 -3 21.5
t-6 15t-7 9t-9 5t-9 2t-10 0.5h-8l1 28q63 10 100 10q11 0 17 -2.5t12 -15.5t6 -39q0 -36 -3 -84q33 78 81 110t86 32q46 0 67 -29t21 -117q0 -20 -3 -91t-3 -85q0 -75 14 -99t50 -24z" />
    <glyph glyph-name="afii10082" unicode="&#x440;" horiz-adv-x="478" 
d="M443 257q-3 -84 -35.5 -145.5t-77 -89t-93.5 -27.5q-47 0 -85 17l-1 -31q0 -18 -1 -33t-1 -27q0 -56 7.5 -83t19.5 -33.5t37 -6.5l-2 -24q-55 -10 -80 -10q-22 0 -33 4t-20 24.5t-9 61.5l5 137l8 204l4 137q0 89 -30 100q-6 2 -21 3h-5l1 28q67 9 104 9q12 0 17 -2
t9.5 -14.5t4.5 -39.5v-44q23 45 60.5 75t84.5 30q60 0 98 -53t34 -167zM360 231q6 177 -85 177q-47 0 -79.5 -54t-34.5 -120l-5 -139q4 -26 26 -44t54 -18q117 0 124 198z" />
    <glyph glyph-name="afii10083" unicode="&#x441;" horiz-adv-x="418" 
d="M390 413q-1 -13 -19 -29t-46 -23l-12 10q-1 30 -19 47.5t-47 17.5q-49 0 -81.5 -49.5t-32.5 -142.5q0 -103 32 -152t106 -49q29 0 56.5 11.5t40.5 22.5l12 11l7 -32q-7 -7 -19.5 -17.5t-53.5 -28t-85 -17.5q-77 0 -128 52.5t-51 165.5q0 72 21 126.5t53.5 83t66.5 42.5
t67 14q132 0 132 -64z" />
    <glyph glyph-name="afii10084" unicode="&#x442;" horiz-adv-x="723" 
d="M711 29l-2 -24q-55 -10 -80 -10q-31 0 -46.5 19t-15.5 79q0 4 1.5 37t3 77t1.5 76q0 65 -10 93.5t-34 28.5q-35 0 -65 -39.5t-44.5 -83t-19.5 -82.5q-5 -40 -5 -107q0 -33 7.5 -49t30.5 -18l-2 -24q-44 -7 -66 -7q-23 0 -34.5 12t-11.5 50q0 25 5.5 107.5t5.5 111.5
q0 69 -12.5 99t-41.5 30q-30 0 -57 -36.5t-41.5 -81t-17.5 -79.5l-1 -13q-3 -75 -2 -112q1 -27 8 -38.5t26 -15.5l-1 -27q-53 -7 -79 -7q-15 0 -22 5t-10 22t-3 46.5t2 80.5q0 5 0.5 7.5t0.5 7v8.5l4 111q1 31 -1 99q0 12 -2 21.5t-6 15t-7 9t-9 5t-9 2t-10 0.5h-9l1 28
q67 9 104 9q12 0 17 -2t9.5 -14.5t4.5 -39.5q0 -55 -2 -87q20 62 64.5 103.5t92.5 41.5q47 0 67.5 -33.5t20.5 -80.5v-31q69 145 161 145q39 0 61 -28t22 -104q0 -20 -3 -98t-3 -92q0 -75 14 -99t50 -24z" />
    <glyph glyph-name="afii10085" unicode="&#x443;" horiz-adv-x="456" 
d="M437 442q0 -30 -19.5 -110.5t-64.5 -197.5l-44 -115q-97 -254 -203 -254q-42 0 -42 33q0 34 21 74l13 2q23 -31 52 -31q24 0 39.5 20.5t15.5 54.5q0 35 -40 183l-23 85q-38 139 -67 204q-7 16 -16 26t-20 14t-14.5 4.5t-14.5 1.5v27q71 9 108 9q18 0 30 -22t34 -100
l44 -160q31 -117 40 -157h5l37 106q51 145 51 238q0 27 -10 40t-31 19l-1 21q41 11 77 11q17 0 23.5 -0.5t13 -6.5t6.5 -19z" />
    <glyph glyph-name="afii10086" unicode="&#x444;" horiz-adv-x="642" 
d="M608 254q0 -118 -76.5 -191.5t-176.5 -77.5v-8q0 -8 -0.5 -26t-0.5 -30q0 -56 7.5 -83t19.5 -33.5t37 -6.5l-2 -24q-55 -10 -80 -10q-30 0 -45 17.5t-15 71.5q0 22 0.5 56.5t0.5 56.5v18q-40 0 -78 11t-74.5 35.5t-59 72.5t-22.5 114q0 123 74.5 189t177.5 70q1 24 1 39
q0 87 -11.5 117t-49.5 30l-1 23q70 12 100 12q42 0 42 -78q0 -19 -1.5 -56t-1.5 -67v-19q235 0 235 -223zM523 256q0 46 -9.5 80.5t-24 53.5t-36 30t-40.5 14.5t-42 3.5l-14 -415q166 16 166 233zM279 23l14 415q-23 -2 -42 -7t-43 -19.5t-40.5 -37t-28 -63.5t-11.5 -96
q0 -104 45.5 -148t105.5 -44z" />
    <glyph glyph-name="afii10087" unicode="&#x445;" horiz-adv-x="439" 
d="M428 28v-27q-44 -9 -87 -9q-6 0 -10.5 1l-9 2t-8.5 5t-7.5 7t-8 10t-8 12t-9.5 16t-10.5 19.5t-13 24t-14.5 27.5l-43 80q-81 -98 -81 -129q0 -29 30 -39l-1 -24q-40 -8 -76 -8q-22 0 -31 5t-9 22q0 11 9.5 29t28 43t34.5 44t41.5 49.5t35.5 42.5l-33 64
q-9 17 -17.5 33.5t-12 24t-10.5 18.5t-17 26q-27 39 -68 39v27q64 9 101 9q20 0 32 -18t34 -67l47 -104q74 89 74 123q0 12 -5 18t-23 12v21q41 11 77 11q40 0 40 -27q0 -35 -144 -188q51 -104 102 -179q32 -46 71 -46z" />
    <glyph glyph-name="afii10088" unicode="&#x446;" horiz-adv-x="498" 
d="M488 32q0 -45 -23 -114t-44 -101l-29 -2q25 83 25 117q0 22 -1.5 31t-8.5 19.5t-24 14t-46 3.5q-50 0 -91 -3.5t-75 -3.5q-22 0 -36.5 2t-30.5 10t-24 25.5t-8 45.5q0 21 7 145q3 63 3 108q0 62 -14 82.5t-45 23.5l2 28q60 9 93 9q47 0 47 -75q0 -6 -5 -116
q-6 -120 -6 -144q0 -32 1.5 -45.5t9 -29t25 -20.5t48.5 -5q51 0 103 4q-1 3 -3 10t-4.5 40.5t-0.5 80.5l4 111q1 31 1 69q0 50 -9 66t-30 17l1 28q52 9 89 9q12 0 17.5 -2t10 -15t3.5 -39q0 -5 -0.5 -25t-1.5 -46.5t-1 -38.5l-4 -111q-2 -46 -2 -95q0 -25 5 -40t18 -20.5
t22 -6.5t32 -1z" />
    <glyph glyph-name="afii10089" unicode="&#x447;" horiz-adv-x="457" 
d="M438 32l-2 -24q-64 -13 -86 -13q-34 0 -43 24q-10 24 -7 88l3 65l2 62l-23 -18q-23 -18 -62 -31.5t-70 -13.5q-92 0 -88 100q0 14 1 33t1.5 37.5t0.5 40.5q0 12 -1.5 21.5t-5.5 15t-7 9t-9.5 5t-9.5 2t-10 0.5h-9l1 28q67 9 104 9q16 0 23.5 -9t7.5 -38q0 -8 -2 -57
t-2 -79q0 -34 14 -50.5t50 -16.5q37 0 64 26.5t34 51.5l1 81q1 31 -8 41.5t-26 11.5l1 28q49 9 86 9q17 0 24.5 -10.5t6.5 -45.5q0 -8 -2 -47t-3 -62l-4 -111q-4 -62 -2 -106q2 -57 57 -57z" />
    <glyph glyph-name="afii10090" unicode="&#x448;" horiz-adv-x="720" 
d="M693 29l-1 -27q-93 -5 -123 -5h-213q-2 0 -39 -1t-87 -2t-83 -1q-30 0 -44 13t-19.5 50.5t-3.5 115.5l3 111q1 22 1 40t-1 32.5t-1.5 25t-3.5 18.5t-4.5 13.5t-6.5 9.5t-7 6t-8.5 3.5t-10 2t-11.5 1.5l1 28q67 9 104 9q12 0 17 -2t9.5 -14.5t4.5 -39.5q0 -29 -5 -154
q-3 -96 -3 -132q0 -54 19 -73.5t64 -19.5h97q-13 22 -13 109l1 137v99q0 12 -2 21.5t-6 15t-7 9t-9 5t-9 2t-10 0.5h-9l1 28q66 9 103 9q12 0 17.5 -2t10 -15t3.5 -39l-3 -110q-5 -180 -5 -183q0 -47 7 -64t24 -20q12 -2 150 -2q-16 27 -16 113l3 133q1 51 0 99
q0 12 -2 21.5t-6 15t-7 9t-9 5t-9 2t-10 0.5h-9l1 28q66 9 103 9q12 0 17.5 -2t10 -15t3.5 -39l-3 -110q-4 -118 -4 -155q0 -72 8 -93.5t40 -28.5z" />
    <glyph glyph-name="afii10091" unicode="&#x449;" horiz-adv-x="733" 
d="M722 32q0 -45 -23 -114t-44 -101l-29 -2q25 83 25 117q0 38 -15.5 53t-64.5 15q-31 0 -104 -1.5t-111 -1.5q-2 0 -39 -1t-87 -2t-83 -1q-30 0 -44 13t-19.5 50.5t-3.5 115.5l3 111q1 22 1 40t-1 32.5t-1.5 25t-3.5 18.5t-4.5 13.5t-6.5 9.5t-7 6t-8.5 3.5t-10 2
t-11.5 1.5l1 28q67 9 104 9q12 0 17 -2t9.5 -14.5t4.5 -39.5q0 -29 -5 -154q-3 -96 -3 -132q0 -54 19 -73.5t64 -19.5h97q-13 22 -13 109l1 137v99q0 12 -2 21.5t-6 15t-7 9t-9 5t-9 2t-10 0.5h-9l1 28q66 9 103 9q12 0 17.5 -2t10 -15t3.5 -39l-3 -110q-5 -180 -5 -183
q0 -47 7 -64t24 -20q12 -2 150 -2q-16 27 -16 113l3 133q1 51 0 99q0 12 -2 21.5t-6 15t-7 9t-9 5t-9 2t-10 0.5h-9l1 28q66 9 103 9q12 0 17.5 -2t10 -15t3.5 -39l-3 -110q-4 -118 -4 -206q0 -25 5 -40t18 -20.5t22 -6.5t32 -1z" />
    <glyph glyph-name="afii10092" unicode="&#x44a;" horiz-adv-x="530" 
d="M510 181q0 -85 -67 -138.5t-144 -53.5q-121 0 -121 45q0 10 3.5 62t4.5 75l4 112q5 147 -5 146q-18 3 -38 3q-38 0 -59.5 -37.5t-37.5 -99.5l-25 -6q2 50 17 174l10 8q48 -2 98 -2q26 0 66 1t45 1l11 -8q-1 -14 -2 -48t-2.5 -81t-2.5 -76q-7 -145 -7 -174q0 -31 12.5 -43
t37.5 -12q52 0 87 39t35 103q0 90 -74 90q-34 0 -71 -17l-2 32q64 27 109 27q118 0 118 -122z" />
    <glyph glyph-name="afii10093" unicode="&#x44b;" horiz-adv-x="614" 
d="M599 29l-2 -24q-55 -10 -80 -10q-30 0 -46 17.5t-16 65.5q0 5 3.5 71t4.5 95q2 118 2 135q0 10 -1 17.5t-3.5 13t-4.5 10t-7 7t-7 4t-8 2.5t-7.5 1.5t-7.5 0.5h-7l1 28q66 9 103 9q12 0 17 -2t9.5 -14.5t4.5 -39.5q0 -46 -3 -110q-7 -142 -7 -180q0 -54 14 -75.5
t48 -21.5zM403 181q0 -85 -67 -138.5t-144 -53.5q-121 0 -121 45q0 10 3.5 62t4.5 75l4 112q1 22 1 40t-1 32.5t-1.5 25t-3.5 18.5t-4.5 13.5t-6.5 9.5t-7 6t-8.5 3.5t-10 2t-11.5 1.5l1 28q67 9 104 9q12 0 17 -2t9.5 -14.5t4.5 -39.5q0 -7 -1.5 -37.5t-3.5 -78t-3 -76.5
q-5 -103 -5 -133q0 -62 48 -62q52 0 87 39t35 103q0 90 -74 90q-34 0 -71 -17l-2 32q64 27 109 27q118 0 118 -122z" />
    <glyph glyph-name="afii10094" unicode="&#x44c;" horiz-adv-x="422" 
d="M403 181q0 -85 -67 -138.5t-144 -53.5q-121 0 -121 45q0 10 3.5 62t4.5 75l4 112q1 22 1 40t-1 32.5t-1.5 25t-3.5 18.5t-4.5 13.5t-6.5 9.5t-7 6t-8.5 3.5t-10 2t-11.5 1.5l1 28q67 9 104 9q12 0 17 -2t9.5 -14.5t4.5 -39.5q0 -7 -1.5 -37.5t-3.5 -78t-3 -76.5
q-5 -103 -5 -133q0 -62 48 -62q52 0 87 39t35 103q0 90 -74 90q-34 0 -71 -17l-2 32q64 27 109 27q118 0 118 -122z" />
    <glyph glyph-name="afii10095" unicode="&#x44d;" horiz-adv-x="410" 
d="M377 259q0 -121 -63 -194.5t-151 -73.5q-49 0 -81 12t-42 25.5t-10 27.5q0 29 46 60l11 -10q9 -36 32.5 -54.5t52.5 -18.5q55 0 87 47t32 142l-181 -15l7 52l175 -4q0 105 -29 144t-76 39q-50 0 -70.5 -30.5t-17.5 -66.5l-12 -10q-34 3 -48.5 19t-14.5 33q0 38 46 66
t119 28q36 0 67.5 -10.5t59.5 -34t44.5 -68t16.5 -105.5z" />
    <glyph glyph-name="afii10096" unicode="&#x44e;" horiz-adv-x="684" 
d="M647 248q0 -109 -57 -183t-151 -74q-87 0 -136.5 59t-50.5 172h-93l-1 -27q-3 -75 -2 -112q1 -27 8 -38.5t26 -15.5l-1 -27q-53 -7 -79 -7q-21 0 -28 12.5t-7 53.5q0 37 3 111l4 111q2 66 -1 99q-1 14 -4 24.5t-6 16t-10.5 8.5t-10 3.5t-11.5 0.5h-10l1 28q67 9 104 9
q12 0 17 -2t9.5 -14.5t4.5 -39.5l-3 -110l-2 -45l94 3q6 59 29 103t55.5 66.5t64 33t63.5 10.5q78 0 129.5 -52t51.5 -177zM561 237q0 63 -8 104.5t-24 61.5t-33 27.5t-41 7.5q-50 0 -84 -48t-34 -153q0 -112 30 -159.5t77 -47.5q50 0 83.5 50t33.5 157z" />
    <glyph glyph-name="afii10097" unicode="&#x44f;" horiz-adv-x="451" 
d="M434 32l-2 -24q-64 -13 -86 -13q-13 0 -20 2t-15 10t-12 26.5t-4 48.5q0 18 2 53t2 37l6 143q3 76 0 89q-2 16 -10 23t-14.5 7.5t-24.5 0.5q-38 0 -70.5 -24t-34.5 -78q-1 -33 10.5 -55.5t32.5 -31t37 -11.5t35 -3h26l-1 -28h-9q-15 0 -29 -7t-28 -26t-20.5 -29t-22 -39
t-17.5 -33q-22 -42 -39.5 -58.5t-52.5 -16.5q-13 0 -28.5 3t-24.5 6l-9 2l1 26q18 -2 33 7t22.5 19t20.5 31q31 49 53.5 75t59.5 45v4q-52 4 -93 33t-39 87q5 141 227 141q65 0 95 -14q-6 -79 -8 -154l-4 -111q-4 -72 -2 -106q2 -57 57 -57z" />
    <glyph glyph-name="afii10071" unicode="&#x451;" horiz-adv-x="429" 
d="M397 373q-2 -55 -47.5 -86.5t-111.5 -40.5l-105 -14q-3 -81 35.5 -134.5t99.5 -53.5q38 0 69 9t43 19l12 9v-32q-7 -6 -20 -16t-55 -26t-87 -16q-79 0 -132 57.5t-49 177.5q2 69 27 121t61.5 78.5t70.5 39t64 12.5q23 0 42.5 -4t40 -14.5t32 -32t10.5 -53.5zM314 371
q1 28 -13 46.5t-43 18.5q-46 0 -80 -38.5t-43 -128.5l78 9q97 11 101 93zM368 595q0 -23 -16.5 -40t-38.5 -17t-38.5 17t-16.5 40t16.5 40t38.5 17t38.5 -17t16.5 -40zM217 595q0 -23 -16.5 -40t-38.5 -17t-38.5 17t-16.5 40t16.5 40t38.5 17t38.5 -17t16.5 -40z" />
    <glyph glyph-name="afii10099" unicode="&#x452;" horiz-adv-x="455" 
d="M413 246q0 -176 -41 -299q-57 -173 -172 -173q-60 0 -60 33q0 18 12.5 38.5t31.5 31.5l6 -4q11 -46 49 -46q50 0 71.5 81.5t21.5 263.5v91q0 138 -60 138q-37 0 -64 -36t-38 -75t-12 -72l-1 -23q-3 -62 -1 -112q2 -27 9 -38.5t26 -15.5l-1 -27q-53 -7 -79 -7
q-22 0 -29 14.5t-7 64.5q0 22 2 98q10 362 10 366l-85 4l8 34l76 7q0 79 -60 79l-1 23q70 12 100 12q11 0 17 -2.5t13 -12.5t9.5 -33.5t2.5 -62.5l148 -2l-12 -37q-137 -9 -137 -10l-5 -198q23 69 63 102t77 33q112 0 112 -228z" />
    <glyph glyph-name="afii10100" unicode="&#x453;" horiz-adv-x="391" 
d="M355 110l12 -30q-89 -89 -184 -89q-144 0 -144 113q0 23 8.5 42.5t28.5 36.5t33 26.5t44 27t40 22.5q75 46 75 110q0 56 -65 56q-53 0 -132 -73l-19 25q99 99 194 99q18 0 34.5 -3t36.5 -10.5t32.5 -26t12.5 -45.5q0 -32 -10 -56.5t-35.5 -46t-41.5 -32t-56 -32.5
q-1 -1 -12.5 -7t-14 -8t-12.5 -8t-13.5 -10t-11 -11t-11 -13.5t-7.5 -15t-5.5 -18t-1.5 -20.5q0 -26 19 -47t65 -21q34 0 75.5 20t65.5 45zM268 654l82 -13l-135 -123l-26 7z" />
    <glyph glyph-name="afii10101" unicode="&#x454;" horiz-adv-x="401" 
d="M390 413q-1 -13 -19 -29t-46 -23l-12 10q-1 30 -19 47.5t-47 17.5q-48 0 -79 -45t-35 -134l203 7l-10 -59q-32 6 -193 14q3 -176 138 -176q29 0 56.5 11.5t40.5 22.5l12 11l7 -32q-7 -7 -19.5 -17.5t-53.5 -28t-85 -17.5q-76 0 -127.5 54.5t-51.5 164.5q0 72 21 126
t53.5 83t66.5 42.5t67 13.5q132 0 132 -64z" />
    <glyph glyph-name="afii10102" unicode="&#x455;" horiz-adv-x="387" 
d="M361 149q0 -54 -55 -106t-139 -52q-39 0 -67 7.5t-40.5 19t-18 22t-5.5 20.5q0 39 70 60l10 -10q0 -78 73 -78q43 0 67 25t24 71q0 18 -7.5 32t-23 24t-29.5 16.5t-36 14.5t-33 13q-26 12 -40.5 20.5t-31.5 23t-25 35t-8 47.5q0 52 45.5 87.5t123.5 35.5q72 0 104 -19.5
t32 -44.5q0 -38 -69 -54l-8 8q0 71 -70 71q-34 0 -56 -17t-22 -52q0 -18 6.5 -31.5t20.5 -23.5t23.5 -15t29 -12t23.5 -9q6 -3 29 -12t32 -13.5t26 -15.5t24.5 -21.5t14 -28t6.5 -38.5z" />
    <glyph glyph-name="afii10103" unicode="&#x456;" horiz-adv-x="230" 
d="M171 595q0 -23 -17 -40t-40 -17t-40 17t-17 40t17 40t40 17t40 -17t17 -40zM211 29l-2 -24q-55 -10 -80 -10q-30 0 -46 17.5t-16 65.5q0 6 1.5 35t3.5 68.5t3 62.5q1 33 1 85q0 62 -14 82.5t-45 23.5l2 28q60 9 93 9q47 0 47 -73q0 -29 -3 -93q-7 -142 -7 -180
q0 -54 14 -75.5t48 -21.5z" />
    <glyph glyph-name="afii10104" unicode="&#x457;" horiz-adv-x="245" 
d="M223 595q0 -24 -12.5 -40.5t-34.5 -16.5t-34.5 16.5t-12.5 40.5t12.5 40.5t34.5 16.5t34.5 -16.5t12.5 -40.5zM103 595q0 -24 -12.5 -40.5t-34.5 -16.5t-34.5 16.5t-12.5 40.5t12.5 40.5t34.5 16.5t34.5 -16.5t12.5 -40.5zM212 29v-27q-53 -7 -79 -7q-27 0 -32.5 24.5
t-5.5 131.5v21v111q0 23 -4 99q-1 12 -3 21.5t-6 15t-7.5 9t-9.5 5t-9 2t-10 0.5h-9v28q66 9 103 9q12 0 17 -2t10 -14.5t6 -39.5q1 -12 1 -110v-111q0 -83 2 -112q2 -27 9.5 -38.5t26.5 -15.5z" />
    <glyph glyph-name="afii10105" unicode="&#x458;" horiz-adv-x="238" 
d="M181 595q0 -23 -17 -40t-40 -17t-40 17t-17 40t17 40t40 17t40 -17t17 -40zM181 399q0 -4 -5 -204q-5 -182 -35 -268q-21 -60 -66.5 -106.5t-94.5 -46.5q-48 0 -48 19q-1 25 15 68l14 4q30 -35 55 -35q19 0 32.5 10.5t22 31.5t13.5 47t7 61.5t2.5 70.5t0.5 78v43
q0 24 1 79.5t0 77.5q-1 63 -13.5 83t-42.5 23l2 28q60 9 93 9q47 0 47 -73z" />
    <glyph glyph-name="afii10106" unicode="&#x459;" horiz-adv-x="621" 
d="M598 158q0 -76 -53.5 -122.5t-123.5 -46.5q-41 0 -78 11t-43 29q-3 8 -7.5 31.5t-10.5 57.5t-10 52l-34 174q-13 68 -24 86h-8l-25 -76q-78 -237 -76 -277q1 -27 7 -36.5t25 -15.5l-1 -19q-36 -15 -72 -15q-29 0 -31 34q-4 48 45 170l31 78q6 14 14 33.5t12.5 31
t9.5 24.5t7 22.5t2 16.5q-2 32 -49 34v23q84 16 132 16q21 0 29 -1t17 -6t13 -18t9 -34t11 -56v-1q15 -83 24 -134q25 -140 31 -158q12 -37 60 -37q41 0 66 27.5t25 86.5q0 39 -11.5 64.5t-30 35t-30.5 12.5t-26 3q-37 0 -67 -13l-5 35q40 20 101 20q15 0 30.5 -2t37 -10.5
t38 -23t28 -42t11.5 -64.5z" />
    <glyph glyph-name="afii10107" unicode="&#x45a;" horiz-adv-x="686" 
d="M415 84q0 -31 12.5 -43t37.5 -12q52 0 87 39t35 103q0 90 -74 90q-34 0 -71 -17l-2 32q64 27 109 27q118 0 118 -122q0 -85 -67 -138.5t-144 -53.5q-121 0 -121 45q0 10 3.5 62t4.5 75l2 51h-186l-1 -27q-3 -75 -2 -112q1 -27 8 -38.5t26 -15.5l-1 -27q-53 -7 -79 -7
q-21 0 -28 12.5t-7 53.5q0 37 3 111l4 111q2 66 -1 99q-1 14 -4 24.5t-6 16t-10.5 8.5t-10 3.5t-11.5 0.5h-10l1 28q67 9 104 9q12 0 17 -2t9.5 -14.5t4.5 -39.5l-3 -110l-2 -45l186 7l1 19q3 33 3 64q0 37 -5.5 55.5t-12 22.5t-22.5 6l1 28q42 9 79 9q10 0 14.5 -1
t11.5 -5.5t10 -17t4 -32.5q1 -40 -3 -110q-12 -194 -12 -222z" />
    <glyph glyph-name="afii10108" unicode="&#x45b;" horiz-adv-x="482" 
d="M474 29l-2 -24q-55 -10 -80 -10q-33 0 -47.5 18.5t-14.5 79.5q0 4 1.5 37t3 77t1.5 76q0 68 -12 93t-45 25q-41 0 -76.5 -56t-45.5 -150q-4 -42 -4 -111q0 -26 8 -38.5t28 -16.5l-1 -27q-53 -7 -79 -7q-22 0 -30 13t-8 53q0 13 3 58t3 63l4 101q6 156 6 255l-88 4l8 34
l78 6q-3 46 -16 63t-43 17l-1 23q70 12 100 12q10 0 16 -2.5t13 -11.5t10 -32t3 -60l148 -7l-12 -37q-104 -6 -137 -8q-3 -186 -5 -207q33 78 81 110t86 32q46 0 67 -29t21 -117q0 -20 -3 -91t-3 -85q0 -75 14 -99t50 -24z" />
    <glyph glyph-name="afii10109" unicode="&#x45c;" horiz-adv-x="438" 
d="M444 29l-1 -27q-38 -10 -74 -10q-5 0 -9.5 0.5t-9 3t-8 3.5t-7.5 5.5t-6.5 6t-7 7.5t-6 8.5t-6.5 10t-7 9.5q-14 19 -47 72q-63 100 -93 123l1 15q63 28 107 78q39 47 41 82q0 24 -16 30v17q54 7 87 7q23 0 23 -18q1 -24 -44 -79q-28 -33 -64.5 -66t-57.5 -47
q24 -17 65 -78q9 -12 24 -34t27 -39t20 -28q19 -25 33 -36t36 -16zM185 29l-1 -27q-53 -7 -79 -7q-22 0 -28.5 14.5t-6.5 62.5q0 34 3 100l4 111q1 22 1 40t-1 32.5t-1.5 25t-3.5 18.5t-4.5 13.5t-6.5 9.5t-7 6t-8.5 3.5t-10 2t-11.5 1.5l1 28q67 9 104 9q12 0 17 -2
t9.5 -14.5t4.5 -39.5q0 -34 -8 -192q-3 -72 -1 -141q1 -27 8 -38.5t26 -15.5zM268 654l82 -13l-135 -123l-26 7z" />
    <glyph glyph-name="afii10110" unicode="&#x45e;" horiz-adv-x="456" 
d="M437 442q0 -30 -19.5 -110.5t-64.5 -197.5l-44 -115q-97 -254 -203 -254q-42 0 -42 33q0 34 21 74l13 2q23 -31 52 -31q24 0 39.5 20.5t15.5 54.5q0 35 -40 183l-23 85q-38 139 -67 204q-7 16 -16 26t-20 14t-14.5 4.5t-14.5 1.5v27q71 9 108 9q18 0 30 -22t34 -100
l44 -160q31 -117 40 -157h5l37 106q51 145 51 238q0 27 -10 40t-31 19l-1 21q41 11 77 11q17 0 23.5 -0.5t13 -6.5t6.5 -19zM383 642l24 -2q-43 -116 -173 -116q-81 0 -81 50q0 21 16.5 39.5t32.5 26.5l17 8q18 -40 31.5 -53t45.5 -13q53 0 87 60z" />
    <glyph glyph-name="afii10193" unicode="&#x45f;" horiz-adv-x="482" 
d="M447 29v-27q-54 -5 -93 -5h-41q-36 -121 -62 -186l-29 -2q19 69 19 118q0 70 -39 70q-7 0 -37 -2t-50 -2q-29 0 -35.5 30t-6.5 149v111q0 23 -4 99q-1 12 -3 21.5t-6 15t-7.5 9t-9.5 5t-9 2t-10 0.5h-9v28q66 9 103 9q12 0 17 -2t10 -14.5t6 -39.5q1 -12 1 -110v-111
q0 -95 1 -112q2 -40 36 -44q19 -2 72 -2q45 0 79 4q-13 26 -13 131v111q0 23 -4 99q-1 12 -3 21.5t-6 15t-7.5 9t-9.5 5t-9 2t-10 0.5h-9v28q66 9 103 9q12 0 17.5 -2t10.5 -15t5 -39q0 -4 0.5 -48t0.5 -62v-111q0 -83 1 -95q6 -64 40 -71z" />
    <glyph glyph-name="afii10050" unicode="&#x490;" horiz-adv-x="436" 
d="M400 800l28 -5l-29 -148q-31 -5 -113 -8q-90 -2 -102 -25q-5 -8 -7.5 -19t-3.5 -26.5t-1 -26.5t0.5 -31.5t0.5 -30.5v-314q0 -134 51 -139v-27h-107q-17 0 -23.5 13.5t-6.5 48.5q0 14 1.5 70t1.5 71v254q0 7 -5 119q-1 15 -3.5 26t-7.5 17.5t-8.5 11t-11.5 6.5t-11.5 2.5
t-12.5 0.5h-10v33q154 -4 236 7q67 9 94 32t50 88z" />
    <glyph glyph-name="afii10098" unicode="&#x491;" horiz-adv-x="333" 
d="M83 356q0 34 -11 53t-21 22t-24 4v28l138 1q68 1 100 19t55 81l22 -6q-19 -113 -32 -124q-14 -13 -51 -13q-14 0 -52 2t-50 2q6 -19 6 -88q0 -36 -2 -81l-3 -61q-3 -75 -2 -112q1 -27 8 -38.5t26 -15.5l-1 -27q-53 -7 -79 -7q-21 0 -28 12.5t-7 53.5q0 16 1.5 56t1.5 55
q5 180 5 184z" />
    <glyph glyph-name="uni2010" unicode="&#x2010;" horiz-adv-x="416" 
d="M375 321l-15 -65q-129 4 -180 4l-135 -4l15 65l158 -5z" />
    <glyph glyph-name="uni2011" unicode="&#x2011;" horiz-adv-x="416" 
d="M375 321l-15 -65q-129 4 -180 4l-135 -4l15 65l158 -5z" />
    <glyph glyph-name="figuredash" unicode="&#x2012;" horiz-adv-x="488" 
d="M448 374l-14 -61l-216 3l-175 -4l11 62q105 -2 172 -2z" />
    <glyph glyph-name="endash" unicode="&#x2013;" horiz-adv-x="488" 
d="M448 260l-14 -61l-216 3l-175 -4l11 62q105 -2 172 -2z" />
    <glyph glyph-name="emdash" unicode="&#x2014;" horiz-adv-x="648" 
d="M620 262l-12 -65q-171 5 -280 5l-290 -3l9 63q167 -4 273 -4z" />
    <glyph glyph-name="afii00208" unicode="&#x2015;" horiz-adv-x="648" 
d="M620 262l-12 -65q-171 5 -280 5l-290 -3l9 63q167 -4 273 -4z" />
    <glyph glyph-name="quoteleft" unicode="&#x2018;" horiz-adv-x="169" 
d="M27 586q0 42 26.5 93.5t72.5 82.5l15 -16l-13.5 -13.5t-22 -34t-13.5 -49.5q0 -16 19 -42t19 -40q0 -25 -12.5 -40.5t-35.5 -15.5q-55 0 -55 75z" />
    <glyph glyph-name="quoteright" unicode="&#x2019;" horiz-adv-x="169" 
d="M141 656q0 -42 -26.5 -93.5t-72.5 -82.5l-15 16l13.5 13.5t22 34t13.5 49.5q0 16 -19 42t-19 40q0 25 12.5 40.5t35.5 15.5q55 0 55 -75z" />
    <glyph glyph-name="quotesinglbase" unicode="&#x201a;" horiz-adv-x="169" 
d="M141 35q0 -42 -26.5 -93.5t-72.5 -82.5l-15 16l13.5 13.5t22 34t13.5 49.5q0 16 -19 42t-19 40q0 25 12.5 40.5t35.5 15.5q55 0 55 -75z" />
    <glyph glyph-name="quotedblleft" unicode="&#x201c;" horiz-adv-x="324" 
d="M39 586q0 42 26.5 93.5t72.5 82.5l15 -16l-13.5 -13.5t-22 -34t-13.5 -49.5q0 -16 19 -42t19 -40q0 -25 -12.5 -40.5t-35.5 -15.5q-55 0 -55 75zM179 586q0 42 26.5 93.5t72.5 82.5l15 -16l-13.5 -13.5t-22 -34t-13.5 -49.5q0 -16 19 -42t19 -40q0 -25 -12.5 -40.5
t-35.5 -15.5q-55 0 -55 75z" />
    <glyph glyph-name="quotedblright" unicode="&#x201d;" horiz-adv-x="324" 
d="M287 656q0 -42 -26.5 -93.5t-72.5 -82.5l-15 16l13.5 13.5t22 34t13.5 49.5q0 16 -19 42t-19 40q0 25 12.5 40.5t35.5 15.5q55 0 55 -75zM147 656q0 -42 -26.5 -93.5t-72.5 -82.5l-15 16l13.5 13.5t22 34t13.5 49.5q0 16 -19 42t-19 40q0 25 12.5 40.5t35.5 15.5
q55 0 55 -75z" />
    <glyph glyph-name="quotedblbase" unicode="&#x201e;" horiz-adv-x="305" 
d="M282 34q0 -42 -26.5 -93.5t-72.5 -82.5l-15 16l13.5 13.5t22 34t13.5 49.5q0 16 -19 42t-19 40q0 25 12.5 40.5t35.5 15.5q55 0 55 -75zM142 34q0 -42 -26.5 -93.5t-72.5 -82.5l-15 16l13.5 13.5t22 34t13.5 49.5q0 16 -19 42t-19 40q0 25 12.5 40.5t35.5 15.5
q55 0 55 -75z" />
    <glyph glyph-name="dagger" unicode="&#x2020;" horiz-adv-x="438" 
d="M416 490q-2 -52 -37 -52q-20 0 -60.5 19.5t-69.5 20.5h-14q0 -97 29 -128l-33 -576h-22l-33 575q29 30 29 129h-13q-29 -1 -69.5 -20.5t-60.5 -19.5q-37 0 -37 52q0 54 37 54q15 0 57 -18t72 -18h14v14q0 26 -17 74.5t-17 66.5q0 51 51 49q48 0 48 -49q0 -18 -17 -67
t-18 -74v-14h15q30 0 72 18t57 18q37 0 37 -54z" />
    <glyph glyph-name="daggerdbl" unicode="&#x2021;" horiz-adv-x="441" 
d="M416 -16q0 -54 -37 -54q-15 0 -57 18t-72 18h-15v-14q1 -25 18 -74t17 -67q0 -49 -48 -49q-51 -2 -51 49q0 18 17 66.5t17 74.5v14h-14q-30 0 -72 -18t-57 -18q-37 0 -37 54q2 52 37 52q20 0 60.5 -19.5t69.5 -20.5h13q0 30 -10.5 69t-30.5 60q38 56 38 114
q0 26 -9.5 53.5t-18.5 41.5l-10 15q20 21 30.5 60t10.5 69h-13q-29 -1 -69.5 -20.5t-60.5 -19.5q-35 0 -37 52q0 54 37 54q15 0 57 -18t72 -18h14v14q0 26 -17 74.5t-17 66.5q0 51 51 49q48 0 48 -49q0 -18 -17 -67t-18 -74v-14h15q30 0 72 18t57 18q37 0 37 -54
q-2 -52 -37 -52q-20 0 -60.5 19.5t-69.5 20.5h-14q0 -29 10.5 -68t30.5 -60q-35 -54 -35 -111q0 -26 8.5 -54.5t17.5 -44.5l9 -16q-20 -21 -30.5 -60t-10.5 -68h14q29 1 69.5 20.5t60.5 19.5q35 0 37 -52z" />
    <glyph glyph-name="bullet" unicode="&#x2022;" horiz-adv-x="445" 
d="M385 273q0 -66 -46.5 -112.5t-112.5 -46.5t-112.5 46.5t-46.5 112.5t46.5 112.5t112.5 46.5t112.5 -46.5t46.5 -112.5z" />
    <glyph glyph-name="ellipsis" unicode="&#x2026;" horiz-adv-x="684" 
d="M153 53q0 -23 -17 -40t-40 -17t-40 17t-17 40t17 40t40 17t40 -17t17 -40zM403 53q0 -23 -17 -40t-40 -17t-40 17t-17 40t17 40t40 17t40 -17t17 -40zM643 53q0 -23 -17 -40t-40 -17t-40 17t-17 40t17 40t40 17t40 -17t17 -40z" />
    <glyph glyph-name="perthousand" unicode="&#x2030;" horiz-adv-x="997" 
d="M963 159q0 -76 -40 -122.5t-96 -46.5q-61 0 -102 38t-41 118q0 85 44.5 125.5t96.5 40.5q22 0 41.5 -5t43.5 -19t38.5 -47t14.5 -82zM896 149q0 66 -22 95.5t-50 29.5q-14 0 -24.5 -3.5t-23 -14.5t-19 -36.5t-6.5 -64.5q0 -64 22 -95t54 -31q34 0 51.5 24t17.5 96z
M325 539q0 -76 -40 -122t-96 -46q-61 0 -102 37.5t-41 117.5q0 85 44.5 126t96.5 41q22 0 41.5 -5t43.5 -19.5t38.5 -47.5t14.5 -82zM486 724l46 -2q-95 -220 -155 -359l-156 -375l-61 -15q120 259 192 427zM645 159q0 -76 -40 -122.5t-96 -46.5q-61 0 -102 38t-41 118
q0 85 44.5 125.5t96.5 40.5q22 0 41.5 -5t43.5 -19t38.5 -47t14.5 -82zM258 530q0 66 -22 95t-50 29q-14 0 -24.5 -3.5t-23 -14.5t-19 -36.5t-6.5 -64.5q0 -64 22 -95t54 -31q34 0 51.5 24t17.5 97zM578 149q0 66 -22 95.5t-50 29.5q-14 0 -24.5 -3.5t-23 -14.5t-19 -36.5
t-6.5 -64.5q0 -64 22 -95t54 -31q34 0 51.5 24t17.5 96z" />
    <glyph glyph-name="guilsinglleft" unicode="&#x2039;" horiz-adv-x="278" 
d="M141 272l106 -200l-15 -11l-200 211l200 211l15 -11z" />
    <glyph glyph-name="guilsinglright" unicode="&#x203a;" horiz-adv-x="278" 
d="M35 72l106 200l-106 200l15 11l200 -211l-200 -211z" />
    <glyph glyph-name="Euro" unicode="&#x20ac;" 
d="M445 614q0 -38 -45 -96l-17 5q0 39 -6.5 65t-18.5 37t-22.5 15t-24.5 4q-62 0 -107 -62t-59 -177h226l-18 -44h-212l-1 -59h193l-18 -45h-173q4 -62 18.5 -105.5t36.5 -65t43 -30.5t45 -9q73 0 143 78l9 -31q-3 -4 -8 -11.5t-23 -26t-37.5 -32.5t-51.5 -25.5t-65 -11.5
q-81 0 -137.5 63.5t-61.5 206.5h-64l18 45h45q0 21 4 59h-67l18 44h56q25 116 77 184q75 98 185 98q66 0 93 -23t27 -50z" />
    <glyph glyph-name="afii61352" unicode="&#x2116;" horiz-adv-x="916" 
d="M868 380q0 -75 -37 -125.5t-93 -50.5q-59 0 -94.5 38.5t-35.5 117.5q0 89 40 132.5t90 43.5q20 0 35.5 -2.5t34 -11.5t31 -25t21 -46t8.5 -71zM617 149h249l-8 -56h-249zM799 370q0 126 -62 126q-60 0 -60 -126q0 -57 16 -91.5t45 -34.5q31 0 46 28t15 98zM570 647
q0 -22 -8 -174l-13 -238q-6 -119 -6 -157t2 -78l-40 -8q-118 196 -193 325l-150 258q-9 -285 -7 -438q1 -30 3 -47.5t10.5 -37t22.5 -27.5l1 -23q-39 -5 -63 -5q-40 0 -40 40q0 9 4.5 77t5.5 89l11 248q4 94 4 125q0 20 -6 33.5t-12 20t-20.5 10t-20 3.5h-21.5l-1 31
q98 15 124 15q28 0 37 -8.5t41 -60.5q3 -5 21 -37t41.5 -73t44.5 -78q30 -52 68 -116t62 -102l23 -37q1 37 5.5 129.5t3.5 110t-2 122.5q-2 66 -9 83.5t-38 26.5l1 27q43 11 87 11q27 0 27 -40z" />
    <glyph glyph-name="trademark" unicode="&#x2122;" horiz-adv-x="829" 
d="M800 365v-19q-34 -7 -51 -7t-25 8.5t-12 38.5q-5 44 -16 238l-7 95q-12 -46 -46 -142q-49 -132 -70 -158q-11 -12 -19 -12q-13 0 -29.5 39t-26.5 78l-50 202l-13 -53q-31 -121 -31 -225q0 -37 5 -58t24 -23l1 -16q-37 -12 -52 -12t-21 7.5t-6 24.5q0 47 16 132l17 86
q25 121 25 144q0 7 -2 11t-7.5 5.5t-8.5 2t-10.5 0t-8.5 -0.5l-2 19q57 13 89 13t35 -14q10 -37 30 -134q34 -148 45 -148q13 0 51 114q41 124 48 157q35 22 66 25l6 -2q1 -33 13 -213q6 -106 16 -160q5 -43 27 -43zM327 751q0 -8 -9.5 -35.5t-21.5 -49.5l-21 -3v44
q0 7 -1 13t-2.5 10t-4.5 7.5t-5 5.5t-7 4t-6.5 2.5t-8 1t-8 0.5h-9h-8.5h-21q7 -31 7 -65v-119q0 -2 -2 -67t-1 -85q0 -34 28 -45l-1 -20h-63q-17 0 -22.5 9.5t-5.5 37.5q0 9 3 68t3 90v17q0 142 -3 162q-1 11 -5.5 14t-16.5 3q-33 0 -46 -17q-16 -21 -24 -69l-21 -6
q-7 32 -7 60q0 31 6 52l9 6q24 4 138 4q103 0 130 -5t27 -25z" />
    <glyph glyph-name="uni2219" unicode="&#x2219;" horiz-adv-x="277" 
d="M195 329q0 -23 -16.5 -39t-38.5 -16t-38.5 16t-16.5 39t16.5 39t38.5 16t38.5 -16t16.5 -39z" />
    <glyph glyph-name="dotmath" unicode="&#x22c5;" horiz-adv-x="277" 
d="M195 329q0 -23 -16.5 -39t-38.5 -16t-38.5 16t-16.5 39t16.5 39t38.5 16t38.5 -16t16.5 -39z" />
    <glyph glyph-name="uniF639" unicode="&#xf639;" horiz-adv-x="468" 
d="M441 358q0 -87 -14.5 -155t-36.5 -107.5t-52 -65t-57.5 -34.5t-56.5 -9q-87 0 -142 81t-55 248q0 89 14.5 158t37 108t53 64t57 33t55.5 8q92 0 144.5 -80t52.5 -249zM350 354q0 63 -4.5 110.5t-16.5 90.5t-36 66t-59 23q-36 0 -60 -23.5t-40 -98t-16 -202.5
q0 -290 116 -290t116 324z" />
    <glyph glyph-name="uniF63A" unicode="&#xf63a;" horiz-adv-x="464" 
d="M409 157l27 -5l-54 -142q-37 -14 -180 -14h-183l26 79q5 5 36 36.5t65.5 71t76.5 92.5q109 140 109 242q0 108 -94 108q-76 0 -148 -89l-27 21q40 54 97 92t122 38q145 0 145 -136q0 -144 -189 -331l-144 -145q95 -4 178 4q62 6 89 22t48 56z" />
    <glyph glyph-name="uniF63B" unicode="&#xf63b;" horiz-adv-x="418" 
d="M399 246q0 -77 -61.5 -143.5t-156.5 -103.5q-33 -13 -75 -22t-68 -11l-25 -3l4 36q71 0 153 39q47 22 89 72t42 117q0 108 -98 108q-24 0 -56 -10l-32 -9v39l32 12q141 53 141 171q0 53 -24 75t-54 22q-73 0 -147 -62l-11 33q93 80 194 80q131 0 131 -121
q0 -102 -131 -183v-6q15 0 29 -1t38.5 -8.5t41.5 -20t30.5 -38.5t13.5 -62z" />
    <glyph glyph-name="uniF63C" unicode="&#xf63c;" horiz-adv-x="412" 
d="M395 235l-10 -75q-29 -5 -65 -6l-6 -151q0 -24 -26 -39t-59 -15q10 93 10 205q-99 -3 -110 -3l-126 5l2 55l292 481l31 -5q-5 -84 -6 -143q-2 -84 -2 -319zM236 220l8 297l-179 -295q58 -4 106 -4q25 0 65 2z" />
    <glyph glyph-name="uniF63D" unicode="&#xf63d;" horiz-adv-x="434" 
d="M387 734l28 -5l-26 -132q-42 -22 -269 -19l-11 -184q57 12 105 12q181 0 181 -151q0 -78 -50.5 -145.5t-165.5 -110.5q-33 -12 -75 -21t-68 -12l-25 -3l4 36q71 0 153 39q45 22 88 73.5t43 115.5t-28.5 96t-91.5 32q-18 0 -37 -4t-31 -8t-27.5 -10t-19.5 -7l-9 6l22 333
q73 -4 161 -2q67 2 100 16.5t49 54.5z" />
    <glyph glyph-name="uniF63E" unicode="&#xf63e;" horiz-adv-x="419" 
d="M401 236q0 -112 -56.5 -181t-139.5 -69q-185 0 -185 275q0 160 86 278.5t207 156.5l12 -32q-94 -39 -154.5 -136t-60.5 -261v-49t2 -46t5.5 -45.5t10.5 -37.5t17 -31.5t25.5 -18.5t35.5 -8q46 0 77 45t31 114q0 101 -22 144t-76 43q-46 0 -76 -23l5 42q51 28 101 28
q26 0 48.5 -6.5t49 -24t42 -58t15.5 -99.5z" />
    <glyph glyph-name="uniF63F" unicode="&#xf63f;" horiz-adv-x="423" 
d="M415 684l-21 -77l-223 -607h-82l266 597q-60 2 -146 -4q-53 -4 -74.5 -7t-46.5 -16.5t-43 -39.5l-27 5l54 132q37 17 343 17z" />
    <glyph glyph-name="uniF640" unicode="&#xf640;" horiz-adv-x="439" 
d="M413 182q0 -81 -53 -138.5t-145 -57.5t-141 49.5t-49 124.5q0 73 38 117.5t104 75.5q-118 78 -118 182q0 38 14.5 67t34.5 44.5t46.5 25t45 12t34.5 2.5q170 0 170 -144q0 -25 -7 -47t-16 -37.5t-24.5 -31t-25 -23t-25 -18t-18.5 -12.5q1 -1 17 -11t19 -12.5t17.5 -13
t19 -15l16 -16t15.5 -19.5t12 -20.5t11 -24.5t5.5 -27.5t2.5 -31.5zM324 535q0 59 -26 82.5t-74 23.5q-43 0 -68.5 -24t-25.5 -70q0 -36 19 -67.5t39 -47.5t52 -36q32 16 58 51.5t26 87.5zM328 172q0 21 -7 40t-14 31t-28.5 29.5t-33 25.5t-43.5 30q-19 -12 -25 -15.5
t-25 -19.5t-27 -29.5t-16.5 -38.5t-8.5 -53q0 -73 34.5 -107t80.5 -34q47 0 80 34t33 107z" />
    <glyph glyph-name="uniF641" unicode="&#xf641;" horiz-adv-x="419" 
d="M399 411q0 -161 -84.5 -279t-206.5 -156l-13 34q215 84 215 395q0 45 -0.5 69t-5.5 61.5t-14.5 56.5t-29 34t-47.5 15q-45 0 -76 -45t-31 -114q0 -101 21.5 -144t75.5 -43q55 0 85 27v-40q-21 -14 -54 -24t-60 -10q-20 0 -38 3t-40.5 15t-39 31t-27.5 55t-11 84
q0 111 57 180.5t140 69.5q184 0 184 -275z" />
    <glyph glyph-name="uniF6BA" unicode="&#xf6ba;" horiz-adv-x="416" 
d="M375 376l-15 -65q-129 4 -180 4l-135 -4l15 65l158 -5z" />
    <glyph glyph-name="uniF6BB" unicode="&#xf6bb;" horiz-adv-x="488" 
d="M448 374l-14 -61l-216 3l-175 -4l11 62q105 -2 172 -2z" />
    <glyph glyph-name="uniF6BC" unicode="&#xf6bc;" horiz-adv-x="648" 
d="M620 376l-12 -65q-171 5 -280 5l-290 -3l9 63q167 -4 273 -4z" />
    <glyph glyph-name="uniF6DC" unicode="&#xf6dc;" horiz-adv-x="262" 
d="M236 27v-27h-87q-17 0 -23.5 13.5t-6.5 48.5q0 14 1.5 70t1.5 71v254q0 84 -11 106t-48 22l-59 -5v33l202 72l7 -4q-7 -119 -7 -137v-273q0 -177 9 -211q7 -26 21 -33z" />
    <glyph glyph-name="uniF6DE" unicode="&#xf6de;" horiz-adv-x="486" 
d="M465 262l-9 -65q-128 5 -210 5l-218 -3l7 63q125 -4 205 -4z" />
    <glyph glyph-name="dollar.fitted" horiz-adv-x="417" 
d="M402 196q0 -75 -44.5 -128t-122.5 -70v-76l-47 -29l2 98q-7 -1 -22 -1q-58 0 -94 10.5t-47.5 23.5t-11.5 29q0 48 44 115l15 -7q9 -130 112 -130l2 1h2v293l-30 16q-32 17 -51 29.5t-42.5 34t-35 50.5t-11.5 66q0 26 7.5 50t25.5 48.5t53 42t84 22.5l-1 71l48 15l-2 -83
q57 0 93 -11t47.5 -24t11.5 -29t-14 -47.5t-39 -64.5l-15 7q0 69 -23 95.5t-61 30.5v-251l16 -8q1 0 12.5 -6t17 -8.5t18.5 -10.5t20.5 -13.5t20 -15.5t20 -19.5t16.5 -23t14 -27t8.5 -30.5t3.5 -35zM190 418v225q-40 -6 -64.5 -33t-23.5 -69q1 -46 23.5 -73.5t64.5 -49.5z
M315 173q0 43 -19.5 71.5t-59.5 52.5l-1 -256q80 31 80 132z" />
    <glyph glyph-name="Acute" horiz-adv-x="548" 
d="M329 858l86 -14l-142 -129l-27 7z" />
    <glyph glyph-name="cyrBreve" horiz-adv-x="528" 
d="M423 847l30 -10q-60 -123 -202 -123q-97 0 -97 53q0 22 16 42t32 29l17 8q16 -39 38 -55t61 -16q61 0 105 72z" />
    <glyph glyph-name="Euro.fitted" horiz-adv-x="498" 
d="M470 614q0 -38 -45 -96l-17 5q0 39 -6.5 65t-18.5 37t-22.5 15t-24.5 4q-62 0 -107 -62t-59 -177h226l-18 -44h-212l-1 -59h193l-18 -45h-173q4 -62 18.5 -105.5t36.5 -65t43 -30.5t45 -9q73 0 143 78l9 -31q-3 -4 -8 -11.5t-23 -26t-37.5 -32.5t-51.5 -25.5t-65 -11.5
q-81 0 -137.5 63.5t-61.5 206.5h-64l18 45h45q0 21 4 59h-67l18 44h56q25 116 77 184q75 98 185 98q66 0 93 -23t27 -50z" />
    <glyph glyph-name="cyrbreve" horiz-adv-x="456" 
d="M383 642l24 -2q-43 -116 -173 -116q-81 0 -81 50q0 21 16.5 39.5t32.5 26.5l17 8q18 -40 31.5 -53t45.5 -13q53 0 87 60z" />
    <glyph glyph-name="Dieresis" horiz-adv-x="509" 
d="M385 769q0 -21 -15 -35.5t-36 -14.5t-36.5 14.5t-15.5 35.5t15.5 35.5t36.5 14.5t36 -14.5t15 -35.5zM232 769q0 -21 -15.5 -35.5t-36.5 -14.5t-36 14.5t-15 35.5t15 35.5t36 14.5t36.5 -14.5t15.5 -35.5z" />
    <glyph glyph-name="hyphenminus" horiz-adv-x="416" 
d="M375 321l-15 -65q-129 4 -180 4l-135 -4l15 65l158 -5z" />
    </font>
</defs>
</svg>
