<?xml version="1.0" encoding="UTF-8" standalone="no"?>
<svg id="logo_more" xmlns:svg="http://www.w3.org/2000/svg" xmlns="http://www.w3.org/2000/svg" fill="#ffffff" height="361.44" width="975.28003" version="1.1" viewBox="0 0 975.28003 361.44">
  <title>logo_more</title>
<path
  id="path4"
  d="M 168,361.42 H 0 V 0 h 975.28 v 361.42 h -804.4 c 2,-2.27 2.14,-3.51 0.41,-5.94 a 56.78,56.78 0 0 0 -4.42,-5.37 q -4.85,-5.32 -9.82,-10.52 c -15.15,-15.91 -25.4,-34.57 -31.53,-55.6 -2.89,-9.92 -4.6,-19.94 -3.2,-30.3 a 13.86,13.86 0 0 0 0.05,-2.88 c -0.23,-2.89 -2.18,-4.08 -4.87,-2.91 a 20.64,20.64 0 0 0 -3.29,1.95 c -2.37,1.64 -4.63,3.44 -7,5 a 91.16,91.16 0 0 1 -8.49,5 28,28 0 0 1 -6.12,2 6.62,6.62 0 0 1 -7.08,-2.44 23.59,23.59 0 0 1 -3.42,-5.46 143.9,143.9 0 0 1 -5.22,-14.16 c -3.81,-12.8 -5.2,-26 -5.71,-39.3 -0.27,-7.19 -0.12,-14.4 -0.2,-21.6 a 40.26,40.26 0 0 0 -0.33,-5.49 c -0.43,-3.05 -2,-3.71 -4.44,-1.82 a 21.62,21.62 0 0 0 -4.58,4.53 84,84 0 0 0 -5.94,9.59 130.36,130.36 0 0 0 -9.11,24 235.1,235.1 0 0 0 -8.95,50.68 123.65,123.65 0 0 0 0.43,23.48 77.23,77.23 0 0 0 1.53,8.25 c 0.54,2.26 2.06,3.58 3.46,3.44 1.4,-0.14 2.47,-1.51 2.59,-4.07 0.11,-2.39 0.1,-4.79 0.06,-7.19 a 223.1,223.1 0 0 1 1.24,-32.58 161.88,161.88 0 0 1 11.42,-42.48 13.77,13.77 0 0 1 1,-1.67 c 0.09,1.32 0.14,2.1 0.19,2.88 0.5,8.14 0.87,16.3 2.38,24.34 a 110.71,110.71 0 0 0 8.64,27.87 40.38,40.38 0 0 0 7.66,11.26 c 5.76,5.73 12.49,7.22 20,4.19 a 75,75 0 0 0 7.78,-4.21 l 2.47,-1.37 a 11.92,11.92 0 0 1 0.46,1.2 c 0.19,0.78 0.37,1.56 0.5,2.34 a 124.74,124.74 0 0 0 7.94,27.35 c 7.88,18.64 20,34.13 35,47.55 4.73,4.14 9.69,8.03 15.63,10.46 z m 63.7,-49 0.08,-0.54 a 1.92,1.92 0 0 1 0.58,-0.34 21.28,21.28 0 0 1 2.37,-0.39 120,120 0 0 0 21.43,-4 c 21.74,-5.91 40.2,-17.05 53.84,-35.16 a 126.61,126.61 0 0 0 25.91,-72.29 153.07,153.07 0 0 0 -5.69,-47.69 c -6.82,-24.49 -18,-46.74 -35.18,-65.58 -18.95,-20.77 -42,-35.59 -68.41,-45.19 a 158,158 0 0 0 -42.15,-8.71 179.92,179.92 0 0 0 -40,1.2 A 160.23,160.23 0 0 0 90.92,51.9 C 68.55,64.07 49.15,79.72 34.22,100.55 A 205.1,205.1 0 0 0 6.68,154.14 c -2.76,8.11 -5.09,16.34 -5.89,24.92 a 10.57,10.57 0 0 0 0.19,3.55 c 0.58,2.28 2.71,2.81 4.41,1.14 a 8.31,8.31 0 0 0 1.64,-2.34 c 1,-2.24 2.08,-4.5 2.95,-6.82 a 351.21,351.21 0 0 1 18.84,-42.52 c 11.06,-20.54 25.3,-38.36 44,-52.59 25.33,-19.28 53.66,-30.1 85.53,-31.39 a 172.21,172.21 0 0 1 81.24,16.51 131,131 0 0 1 53.5,45.79 153.13,153.13 0 0 1 26.22,72.54 c 1.35,14.21 0.69,28.32 -3,42.14 -8.49,31.86 -27.81,54.48 -58.44,66.94 -14.45,5.88 -29.58,8.09 -45.16,5.54 a 42.24,42.24 0 0 1 -20.83,-9.17 c -1,-0.88 -2,-1.84 -3,-2.72 -1.86,-1.57 -3,-1.8 -4.3,-1 -1.3,0.8 -1.73,2.37 -0.72,4.52 a 40.68,40.68 0 0 0 3.86,6.6 104.36,104.36 0 0 0 12.73,14 50.22,50.22 0 0 0 16.72,10.59 89.35,89.35 0 0 0 46,5.25 92.7,92.7 0 0 0 41.01,-16.92 c 17,-12.18 29.56,-28 38.4,-46.8 a 193.18,193.18 0 0 0 17.74,-70.06 185.72,185.72 0 0 0 -3.25,-49.14 C 351.26,114.01 339.26,88.24 320.46,65.7 306.3,48.7 289.23,35.28 270.3,24.06 A 165.5,165.5 0 0 0 183.68,0.53 212.13,212.13 0 0 0 147.41,3.8 c -27.32,4.83 -52.24,15.22 -74.48,31.93 -24.46,18.38 -43.46,41.17 -56.22,69 -1.1,2.39 -1.94,4.9 -2.81,7.38 a 5.4,5.4 0 0 0 -0.25,2.36 c 0.23,2.08 2,3.09 3.82,2.05 a 9.37,9.37 0 0 0 2.84,-2.51 c 2,-2.71 3.89,-5.48 5.64,-8.34 a 269.32,269.32 0 0 1 19.53,-27.9 165.29,165.29 0 0 1 54,-44.55 c 21.88,-11.23 45,-17.79 69.61,-18.78 a 170.93,170.93 0 0 1 50.84,5.61 c 24.05,6.36 46.25,16.64 65.38,32.67 38.11,31.95 58,73.22 61.17,122.61 a 152.77,152.77 0 0 1 -4.72,48.37 c -4.45,17.26 -11.19,33.52 -21.63,48.07 -11.22,15.6 -25.45,27.52 -43.45,34.75 -9.29,3.73 -19,5.53 -28.93,6.44 a 54.61,54.61 0 0 1 -13.64,0 c -0.79,-0.09 -1.6,-0.37 -2.43,-0.58 z m 246.74,-121.88 -0.55,0.08 -0.87,-2.4 q -14.58,-41.52 -29.19,-83 c -2.21,-6.25 -4.57,-12.47 -7.25,-18.52 a 55,55 0 0 0 -5.92,-9.83 16.8,16.8 0 0 0 -14.07,-7 26.74,26.74 0 0 0 -11.42,2.52 74.8,74.8 0 0 1 0.64,17.84 c -0.69,10.93 -1.62,21.84 -2.54,32.76 -0.81,9.64 -1.81,19.26 -2.6,28.9 -0.66,8.13 -1.28,16.27 -1.66,24.41 -0.52,11 -0.8,22.07 0.71,33.06 0.77,5.59 2.14,11 5.44,15.71 4.2,6 10,8.46 17.25,7.64 a 10,10 0 0 0 9,-9.63 3,3 0 0 0 -1.56,-2.93 10.72,10.72 0 0 1 -3.33,-3.34 27.69,27.69 0 0 1 -2.87,-6.29 99.94,99.94 0 0 1 -2.43,-10.26 c -2.84,-15 -2.85,-30.07 -2.19,-45.19 0.55,-12.54 1.42,-25.07 2.17,-37.6 a 6.91,6.91 0 0 1 0.26,-1.16 7.93,7.93 0 0 1 1.26,2.47 q 11.5,32.81 23,65.62 c 2.27,6.4 4.71,12.75 7.26,19 a 30.56,30.56 0 0 0 6.57,10 c 4.63,4.71 10.31,6.17 16.7,5.29 a 11.74,11.74 0 0 0 5.88,-2.52 3.87,3.87 0 0 0 1.72,-3.22 16.4,16.4 0 0 1 0.67,-4.5 c 2.3,-7.82 4.43,-15.7 7.08,-23.4 8.27,-24 16.74,-48 25.15,-72 a 8,8 0 0 1 0.5,-1 2.72,2.72 0 0 1 0.43,1.65 c -0.18,6.71 -0.42,13.43 -0.53,20.15 -0.27,16.15 -0.64,32.3 -0.64,48.45 a 158.83,158.83 0 0 0 2.27,27.95 40,40 0 0 0 4.41,13.36 17.06,17.06 0 0 0 10.67,8.35 28.22,28.22 0 0 0 13.3,0.22 20.66,20.66 0 0 0 2.84,-1.05 c -1,-2.93 -2.07,-5.52 -2.81,-8.2 a 106.6,106.6 0 0 1 -3,-18.19 234.11,234.11 0 0 1 -1,-29.24 c 0.63,-21.1 1.5,-42.2 2.12,-63.3 0.19,-6.23 0,-12.47 -0.24,-18.7 a 30.39,30.39 0 0 0 -2.73,-11.37 21.54,21.54 0 0 0 -26,-11.67 69.44,69.44 0 0 1 -1.35,7.29 c -2.6,8.73 -5.14,17.49 -8.09,26.1 -9.87,28.74 -21,57 -31.88,85.38 -0.17,0.47 -0.34,0.88 -0.58,1.31 z m -283.76,56.24 0.35,-0.59 a 19.54,19.54 0 0 1 2.78,0.32 36.23,36.23 0 0 1 4.81,1.5 27.3,27.3 0 0 0 14.31,1.69 c 12,-1.59 21.73,-6.85 28,-17.53 a 54,54 0 0 0 4.22,-8.85 c 4.07,-11.24 4.16,-22.75 1.41,-34.26 -5.45,-22.8 -18.94,-38.6 -41.27,-46.36 -11.65,-4 -23.66,-4.56 -35.77,-2.57 a 91.71,91.71 0 0 0 -47.7,23 56.23,56.23 0 0 0 -6.46,7.68 12.64,12.64 0 0 0 -1.65,3.7 2.34,2.34 0 0 0 0.7,2.63 2.41,2.41 0 0 0 2.92,0.22 28.07,28.07 0 0 0 3.35,-2.36 c 2.93,-2.35 5.76,-4.84 8.77,-7.09 16.59,-12.39 35.35,-18.23 55.94,-17.16 21.09,1.1 36.4,11.45 45.08,30.92 4.59,10.29 6.5,21.06 4.57,32.3 -2.62,15.28 -15.8,25.73 -30.92,24.6 a 15.1,15.1 0 0 1 -7.63,-2.6 c -5.83,-4 -7,-10.47 -3.09,-16.23 a 12,12 0 0 0 1.54,-2.94 2.75,2.75 0 0 0 -2.31,-3.69 6.89,6.89 0 0 0 -3.06,0.29 18.51,18.51 0 0 0 -4.08,2 c -7.86,5.19 -12.94,12.36 -14.6,21.65 a 49.51,49.51 0 0 0 -0.55,11.22 c 0.47,8.9 3.13,17.15 8.73,24.22 9.35,11.81 21.79,18 36.67,19.39 7,0.66 13.87,-0.42 20.69,-2 25.66,-5.82 45,-20.08 57.44,-43.35 A 109.58,109.58 0 0 0 310.68,184.47 115.12,115.12 0 0 0 296,136.7 C 286,119.04 272.29,105.02 254.37,95.29 a 53.47,53.47 0 0 0 -15,-5.72 21.94,21.94 0 0 0 -3.8,-0.37 3.23,3.23 0 0 0 -3.37,1.82 c -0.59,1.38 0.1,2.53 1,3.46 a 33.6,33.6 0 0 0 3.43,3 c 3,2.25 6.09,4.41 9.13,6.63 a 145.66,145.66 0 0 1 23.23,20.73 c 11.56,13 19.84,27.8 23.92,44.82 a 104.58,104.58 0 0 1 1.54,40 90.8,90.8 0 0 1 -13.23,36 62,62 0 0 1 -28.54,24.27 97.76,97.76 0 0 1 -20.84,6.35 49.07,49.07 0 0 1 -31.47,-4.66 27,27 0 0 1 -11,-9.75 14.49,14.49 0 0 1 -2.36,-7.43 4,4 0 0 1 1.86,1 c 1.09,1.06 2.13,2.17 3.14,3.3 a 32.94,32.94 0 0 0 16.8,10.12 c 7.53,1.91 15.08,1.51 22.6,0 10.94,-2.24 20.9,-6.53 29.05,-14.39 15.77,-15.19 23,-33.9 22.56,-55.64 a 93.81,93.81 0 0 0 -8.43,-36.22 c -11,-24.8 -29.2,-41.76 -55.08,-50 -21.84,-6.91 -43.58,-5.36 -64.92,2.56 a 49.08,49.08 0 0 0 -15.22,9 22.14,22.14 0 0 0 -3.12,3.3 c -1.09,1.45 -1.08,2.51 -0.29,3.51 0.79,1 1.88,1.32 3.47,0.7 1.59,-0.62 3.37,-1.48 5,-2.31 a 65,65 0 0 1 13.58,-5.38 123.66,123.66 0 0 1 35.41,-3.85 69.1,69.1 0 0 1 38,13.06 90,90 0 0 1 19.16,18.36 c 12.87,16.87 19.44,35.72 17.24,57.11 a 57.55,57.55 0 0 1 -18.33,37.28 c -10.25,9.56 -22.46,13.46 -36.4,11.83 a 26.2,26.2 0 0 1 -17,-8.88 17.58,17.58 0 0 1 -1.41,-2.12 z m -83.61,-51.79 c -0.46,-2 -0.9,-3.46 -1.1,-4.92 a 65.59,65.59 0 0 1 0.72,-20.31 112.5,112.5 0 0 1 24.53,-52.93 102.15,102.15 0 0 1 15.42,-15.06 c 15.73,-12.54 33.78,-17.29 53.62,-16.16 3,0.17 6.08,0.29 9.11,0.2 a 15.46,15.46 0 0 0 4.9,-1 3.39,3.39 0 0 0 1.7,-5.31 9.65,9.65 0 0 0 -2.81,-2.88 81.7,81.7 0 0 0 -8.95,-5.09 c -12.37,-5.78 -25.5,-8.25 -39.07,-8.65 a 161,161 0 0 0 -37,3.3 C 108.32,71.03 86.95,80.97 68.42,96.83 32.37,127.7 9.37,175.7 7.96,223.12 a 80,80 0 0 0 0.77,11.23 12.55,12.55 0 0 0 1.48,4.51 c 1.45,2.63 4.22,2.5 5.59,-0.19 a 11.39,11.39 0 0 0 1,-3.19 c 0.72,-4.57 1.29,-9.18 2,-13.75 a 235.83,235.83 0 0 1 22,-66.72 138.38,138.38 0 0 1 37.91,-47.11 c 20.52,-16.34 43.88,-26 69.79,-29.66 2.45,-0.34 4.93,-0.53 7.4,-0.66 1,-0.05 2.09,-0.18 2.95,1.19 a 24.27,24.27 0 0 1 -2.61,2 c -2.92,1.67 -5.88,3.25 -8.84,4.84 A 60.14,60.14 0 0 0 130.23,99.3 c -20.11,23.27 -32.51,49.81 -34.08,80.88 a 61.08,61.08 0 0 0 3.08,23.88 24.41,24.41 0 0 0 2.93,5.73 c 2,2.81 4.84,3.34 7.81,1.59 a 56.91,56.91 0 0 0 4.87,-3.49 c 5.29,-3.87 10.49,-7.87 15.89,-11.59 a 89.84,89.84 0 0 1 43.56,-15.52 c 9.51,-0.86 18.49,0.68 26.82,5.45 a 39.61,39.61 0 0 1 3.78,2.54 7.76,7.76 0 0 1 1.14,1.65 c -1.83,-0.25 -3.14,-0.47 -4.47,-0.61 a 35,35 0 0 0 -6.66,-0.51 43.73,43.73 0 0 0 -19.78,6.77 c -9.82,6.3 -16.32,15.2 -20.19,26.06 -5.42,15.21 -5.67,30.74 -2.07,46.34 4.14,18 13.33,33.3 26.09,46.49 11.14,11.51 24.61,19.56 39.22,25.82 a 82,82 0 0 0 17.35,5.5 c 4.8,0.9 9.64,1.62 14.53,0.73 a 9.76,9.76 0 0 0 3.35,-1.17 2.57,2.57 0 0 0 0.22,-4.28 9.23,9.23 0 0 0 -2.89,-1.65 c -2.18,-0.76 -4.42,-1.4 -6.67,-2 a 109,109 0 0 1 -58.47,-36 c -15.71,-18.45 -22.28,-40 -19.55,-64.19 1.17,-10.48 5.9,-19.38 13.37,-26.73 6.11,-6 13.71,-7.9 22.07,-7.18 a 10.39,10.39 0 0 1 9.54,7.22 16.53,16.53 0 0 0 1.68,3.43 3.37,3.37 0 0 0 5.36,0.84 8,8 0 0 0 2.15,-2.53 25.72,25.72 0 0 0 2,-5.13 c 1.07,-4.38 0.52,-8.74 -0.51,-13.06 -2.63,-11 -9.05,-18.88 -19.65,-23.16 a 48.28,48.28 0 0 0 -12.05,-3.07 80.59,80.59 0 0 0 -22.95,0.51 c -12.11,1.94 -23.67,5.51 -34.15,12.06 -5.83,3.64 -11.51,7.52 -17.27,11.27 -1.28,0.91 -2.67,1.66 -4.59,2.8 z m 680,-35.23 2.58,-0.35 c 2.69,-0.36 5.41,-0.58 8.07,-1.1 8.92,-1.74 17.15,-5.08 24.25,-10.89 a 35.86,35.86 0 0 0 12.81,-20.31 40.69,40.69 0 0 0 0.24,-16 c -2.57,-14.8 -10.24,-26 -23.64,-33.06 a 68.25,68.25 0 0 0 -24.26,-7.07 c -9.18,-1.07 -18.37,-0.62 -27.56,-0.23 -9.83,0.43 -19.65,0.91 -29.48,1.25 -4.13,0.14 -8.31,0.35 -12.38,-1.57 a 20.67,20.67 0 0 0 -1,2.55 9.76,9.76 0 0 0 5.69,11.2 31.69,31.69 0 0 0 5.6,1.2 26.81,26.81 0 0 0 2.76,0.2 c 0.09,1.17 0.25,2.19 0.24,3.2 0,6.48 0,13 -0.23,19.43 -0.76,23 -1.33,46 -0.69,69.09 a 221.81,221.81 0 0 0 2.85,32.23 c 0.84,4.81 1.87,9.58 4.2,13.94 a 19.49,19.49 0 0 0 13.1,10.4 29.38,29.38 0 0 0 14,-0.29 10.58,10.58 0 0 0 1.76,-0.75 c -0.9,-2.5 -1.78,-4.73 -2.51,-7 -3.14,-9.75 -4.31,-19.84 -4.63,-30 -0.32,-10.16 -0.28,-20.47 -0.38,-30.7 a 20.13,20.13 0 0 1 0.28,-2.17 c 0.83,0.88 1.38,1.42 1.89,2 3,3.51 6,7.05 9.08,10.55 12,13.82 24,27.67 37.3,40.32 4.79,4.57 10,8.76 15.1,13 a 29,29 0 0 0 9,5 14,14 0 0 0 12.22,-1.42 c 4.12,-2.49 5.77,-6.45 5.77,-11.18 a 2,2 0 0 0 -1.31,-2 27.74,27.74 0 0 1 -4.84,-3.08 c -3.4,-2.79 -6.76,-5.63 -10,-8.64 -15.65,-14.67 -30.23,-30.38 -44.72,-46.18 -0.41,-0.42 -0.67,-0.89 -1.16,-1.57 z m -81.24,-5.21 A 140.82,140.82 0 0 0 705.18,120.03 88.66,88.66 0 0 0 693.61,93.55 58,58 0 0 0 662.13,69.7 75.64,75.64 0 0 0 632.68,66.88 60.68,60.68 0 0 0 606.36,75.17 c -10.69,6.38 -18.46,15.42 -24.1,26.4 -6.06,11.78 -9,24.4 -10,37.52 a 129.21,129.21 0 0 0 2.34,35.8 c 2.38,11.55 6.42,22.43 13.36,32.09 a 58.49,58.49 0 0 0 33,23 76.3,76.3 0 0 0 32.11,1.34 c 24,-3.76 40.89,-16.71 50.11,-39.33 4.87,-11.98 6.5,-24.53 6.65,-37.44 z m 246.14,46.71 a 11.47,11.47 0 0 1 -5.3,8.09 45.25,45.25 0 0 1 -7.48,4.24 c -6.43,2.82 -13.27,4.1 -20.21,4.84 -3.57,0.38 -7.15,0.73 -10.74,0.91 -2.86,0.15 -5.72,0 -8.69,0 -0.31,-1.07 -0.58,-1.89 -0.77,-2.73 a 148.72,148.72 0 0 1 -3.19,-29.28 c -0.24,-9.75 -0.11,-19.51 -0.14,-29.27 0,-0.78 0.11,-1.55 0.17,-2.36 a 5.63,5.63 0 0 1 1.07,-0.24 c 6.55,0 13.11,-0.15 19.66,0.08 a 38,38 0 0 1 12.84,2.76 14.77,14.77 0 0 1 6.64,4.56 2.24,2.24 0 0 0 2.32,0.81 8.19,8.19 0 0 0 7.31,-7.92 c 0.43,-7.31 -4.76,-13.88 -12.31,-15.57 a 34.07,34.07 0 0 0 -11.7,-0.27 c -7.22,0.87 -14.41,1.94 -21.62,2.91 -1.38,0.18 -2.77,0.24 -4.34,0.38 -0.18,-19.92 1.63,-39.46 0.58,-59.14 a 9.82,9.82 0 0 1 1.29,-0.19 117.76,117.76 0 0 1 25.28,2.19 c 6.56,1.39 12.76,3.65 18,8 2.45,2 4.64,4.2 5.6,7.32 a 1.85,1.85 0 0 0 2.18,1.39 8.61,8.61 0 0 0 6.42,-3.3 13,13 0 0 0 2.89,-9.87 c -0.85,-9.22 -5.88,-15.18 -14.77,-17.68 a 48.29,48.29 0 0 0 -14.23,-1.78 c -14.63,0.28 -29.26,0.76 -43.88,1.15 -7,0.19 -14.07,0.44 -21.1,0.54 -2.7,0 -5.44,-0.05 -8.07,-1.57 a 15,15 0 0 0 -0.93,2 9.87,9.87 0 0 0 5.88,11.73 29.48,29.48 0 0 0 4.91,1 c 0.92,0.16 1.87,0.19 3.09,0.31 0,1.2 0,2.22 0,3.24 -0.17,13.43 -0.27,26.87 -0.54,40.3 -0.43,21.6 -0.63,43.18 1,64.74 a 152.54,152.54 0 0 0 3.17,22.3 c 0.17,0.74 0.23,1.51 0.35,2.29 -1.46,0.34 -2.73,0.53 -3.93,0.93 a 4.58,4.58 0 0 0 -3.41,3.66 c -0.57,3.27 1.79,9 5,10.06 1,-0.3 1.86,-0.65 2.79,-0.84 a 13.67,13.67 0 0 1 2.86,-0.28 c 12.23,0.06 24.46,0.08 36.69,0.26 12.23,0.18 24.3,0.56 36.46,0.75 a 72.71,72.71 0 0 0 8.84,-0.54 21.54,21.54 0 0 0 8.47,-2.48 c 2.15,-1.22 4,-2.84 4.3,-5.43 a 23.72,23.72 0 0 0 -0.17,-7.14 C 972.8,208.76 964.82,202 955.97,201.26 Z M 82.39,139.33 a 11.39,11.39 0 0 1 -0.11,4.76 c -1,6.06 -2.25,12.11 -3.07,18.2 a 158.8,158.8 0 0 0 -1,31.36 127.49,127.49 0 0 0 4,25.55 65.16,65.16 0 0 0 6.33,15.76 22.29,22.29 0 0 0 7.38,8.05 c 4.34,2.7 8.82,3.14 13.44,0.72 1.34,-0.71 2.66,-1.47 4,-2.25 3.1,-1.83 6.15,-3.73 9.27,-5.52 3.43,-2 4.37,-1.41 4.51,2.45 0.17,4.71 0.3,9.43 0.65,14.13 a 141.34,141.34 0 0 0 3.81,24.86 c 6.31,24.48 18,45.72 37.31,62.41 5.7,4.93 11.53,9.65 18.21,13.21 a 50.16,50.16 0 0 0 23.23,6 9.22,9.22 0 0 0 3.06,-0.38 2.36,2.36 0 0 0 0.85,-4.18 8.12,8.12 0 0 0 -2,-1.29 c -1.65,-0.81 -3.32,-1.57 -5,-2.33 a 101.76,101.76 0 0 1 -29.95,-20.86 c -14.12,-14 -24,-30.63 -30.37,-49.42 -4.5,-13.28 -7.36,-26.82 -6.66,-40.94 a 60.28,60.28 0 0 1 4,-19.17 49.33,49.33 0 0 1 12,-18 14.26,14.26 0 0 0 2.79,-3.55 c 1.31,-2.49 0,-4.43 -2.73,-4.11 a 18.06,18.06 0 0 0 -4.82,1.32 65.52,65.52 0 0 0 -14.13,8.08 c -5.65,4.18 -11.16,8.57 -16.72,12.88 -3.73,2.9 -7.39,5.87 -11.18,8.68 a 29.2,29.2 0 0 1 -4.79,2.7 3.79,3.79 0 0 1 -4.94,-1.18 21.66,21.66 0 0 1 -2.68,-4.22 86.22,86.22 0 0 1 -7.63,-32.24 125.24,125.24 0 0 1 2.33,-31 119.88,119.88 0 0 1 25,-52.78 c 1.3,-1.62 2.68,-3.19 3.83,-4.92 a 9.81,9.81 0 0 0 1.41,-3.5 c 0.3,-1.58 -0.44,-2.45 -2.06,-2.57 a 8.13,8.13 0 0 0 -3.3,0.34 71,71 0 0 0 -8,3.26 128.11,128.11 0 0 0 -28,19.24 C 62.79,134.82 49.2,153.94 39.07,175.55 a 181.08,181.08 0 0 0 -16.71,62 119.93,119.93 0 0 0 0.35,26.58 c 0.35,2.53 0.68,5.1 2.09,7.32 1.41,2.22 4,2.32 5.36,-0.08 a 10.24,10.24 0 0 0 1.16,-3.85 c 0.83,-9.8 1.53,-19.61 2.35,-29.41 a 129.3,129.3 0 0 1 4.62,-26.42 c 7.34,-24.48 19.68,-46.26 36,-65.86 a 63.52,63.52 0 0 1 5.2,-5.31 3,3 0 0 1 2.9,-1.19 z M 61.78,282.12 c 1,1.13 2,2.06 2.75,3.12 2.09,2.83 4,5.76 6.16,8.57 a 30.61,30.61 0 0 0 7.34,7.2 14.19,14.19 0 0 0 14.14,1.47 c 0.51,-0.22 1,-0.47 1.55,-0.65 1.81,-0.62 2.63,-0.4 3.66,1.21 1.48,2.28 2.91,4.59 4.26,6.95 3.42,6 6.73,12 10.18,18 a 94.51,94.51 0 0 0 21.49,25.3 39,39 0 0 0 5,3.28 2.51,2.51 0 0 0 3.12,-0.31 2.59,2.59 0 0 0 0.66,-3.28 14,14 0 0 0 -2.44,-3.47 114.61,114.61 0 0 1 -31.26,-50.95 c -0.85,-2.83 -1.8,-5.64 -2.85,-8.41 a 12.24,12.24 0 0 0 -2,-3.5 c -1.71,-2 -3.79,-1.94 -5.81,-0.23 a 37.1,37.1 0 0 1 -5.76,4.26 10.8,10.8 0 0 1 -12,-0.58 30.79,30.79 0 0 1 -5.47,-5 47.38,47.38 0 0 1 -7.73,-12.4 c -2.83,-6.44 -5.38,-13 -8,-19.5 a 14.58,14.58 0 0 0 -0.82,-2 2.74,2.74 0 0 0 -2.77,-1.54 2.64,2.64 0 0 0 -2.23,1.93 10,10 0 0 0 -0.56,2.08 71.65,71.65 0 0 0 -0.85,7.14 171.83,171.83 0 0 0 3.39,42.89 79,79 0 0 0 3.47,10.7 6.48,6.48 0 0 0 2.18,2.75 c 1.82,1.35 3.78,0.35 3.91,-1.89 a 11,11 0 0 0 -0.28,-2.61 c -0.84,-4.64 -1.87,-9.25 -2.53,-13.91 -0.61,-4.27 -0.87,-8.59 -1.2,-12.89 a 4.13,4.13 0 0 1 1.3,-3.73 z m 15.1,44.58 c 1.61,-2.5 -0.28,-5.11 0.6,-7.79 a 20.08,20.08 0 0 0 1.8,1.73 46.52,46.52 0 0 0 5.22,3.75 c 2,1.13 4.18,1.57 6.43,-0.08 1.28,1.48 2.58,2.78 3.65,4.25 1.94,2.64 3.62,5.46 5.63,8 2.38,3.09 4.92,6.07 7.55,9 a 7.83,7.83 0 0 0 3.27,1.81 2.65,2.65 0 0 0 2.15,-0.45 c 0.76,-0.58 0.3,-1.46 -0.1,-2.17 -1.24,-2.23 -2.43,-4.5 -3.74,-6.69 q -6.6,-11 -13.3,-21.92 a 24.77,24.77 0 0 0 -2.59,-3.44 c -1,-1.14 -1.7,-1.11 -2.82,0 -0.69,0.66 -1.32,1.39 -2,2.1 a 5.07,5.07 0 0 1 -6.12,1.26 10.73,10.73 0 0 1 -3.42,-2.16 37.71,37.71 0 0 1 -4.29,-4.81 c -1.81,-2.43 -3.39,-5 -5.11,-7.53 -0.51,-0.74 -1.14,-1.38 -2,-2.44 a 11.06,11.06 0 0 0 -0.37,2.14 59.67,59.67 0 0 0 6.85,23.51 3.1,3.1 0 0 0 2.71,1.93 z m 348.28,-64.54 c -3.32,0 -6.19,0.08 -9.05,0 a 2.64,2.64 0 0 0 -2.88,1.92 c -2.31,5.78 -4.73,11.53 -7,17.32 -0.57,1.43 -1,2.89 -2.92,3.17 -0.05,3.94 0,7.73 0.06,11.54 a 13.63,13.63 0 0 0 1.49,0.29 c 2.19,0.1 2.39,-0.11 2.57,-2.36 0.1,-1.19 0.25,-2.38 0.45,-3.56 0.33,-2 0.45,-2.1 2.46,-2.12 q 5.4,-0.06 10.8,0 c 2.58,0 2.68,0.14 2.75,2.72 0.05,1.65 0.07,3.31 0.11,5 a 14.61,14.61 0 0 0 1.86,0.29 c 1.83,0 2,-0.19 2.19,-2 0.25,-2.47 0.58,-4.92 0.83,-7.39 0.08,-0.83 0,-1.68 0,-2.47 a 5.71,5.71 0 0 0 -0.91,-0.3 c -2.72,-0.37 -2.77,-0.36 -2.78,-3 0,-5.35 0,-10.71 0,-16.07 z m 182.42,26.29 c 2.79,0 5.4,0.17 8,0.11 a 14.05,14.05 0 0 0 7.1,-1.86 7.39,7.39 0 0 0 1.23,-12 5.86,5.86 0 0 0 -1,-0.64 c 0.48,-0.86 0.8,-1.41 1.09,-2 2.29,-4.37 0.46,-8.48 -4.29,-9.6 a 13,13 0 0 0 -2.85,-0.32 c -2.56,0 -5.11,0 -7.67,0 a 10.41,10.41 0 0 0 -1.61,0.27 z m -57,-26.1 v 2.43 q 0,10.56 0,21.11 c 0,2.35 0.47,2.8 2.81,2.57 a 1.81,1.81 0 0 0 1.64,-1.14 18,18 0 0 1 1.8,-3.1 c 2.63,-3.43 5.32,-6.8 8,-10.18 0.2,-0.25 0.6,-0.34 1.21,-0.68 0,1.12 0,1.9 0,2.69 0,3.36 -0.08,6.72 -0.06,10.08 0,0.67 0.18,1.88 0.44,1.93 a 10.65,10.65 0 0 0 4,0.16 c 1.1,-0.21 0.72,-1.44 0.72,-2.27 q 0,-10.68 0,-21.36 c 0,-0.69 -0.1,-1.39 -0.14,-1.95 a 3.89,3.89 0 0 0 -0.62,-0.34 3.38,3.38 0 0 0 -0.7,-0.1 c -2.3,-0.13 -2.28,-0.12 -3.35,2.07 a 11.48,11.48 0 0 1 -1.23,2.05 q -4.06,5.2 -8.2,10.33 c -0.21,0.26 -0.61,0.35 -1.27,0.7 v -15 z m 246.26,26 v -26 h -3.86 c -1.92,4.17 -9.16,13.64 -11.64,15.1 0,-2.6 0.05,-5.06 0,-7.51 -0.05,-2.45 0.38,-5 0,-7.51 h -4.81 v 25.9 h 3.82 c 1.65,-3.51 8.73,-12.89 11.43,-15 0.07,1.38 0.2,2.53 0.18,3.68 0,3 -0.16,5.92 -0.22,8.87 0,0.77 0.08,1.54 0.14,2.48 z m 21.78,-15 0.66,0.3 v 14.59 h 5.08 v -25.88 h -4 c -1.35,3.7 -9.15,13.93 -11.52,15 0,-2.56 0.06,-5 0,-7.46 -0.06,-2.46 0.66,-5 0.08,-7.53 h -4.84 c 0,3 0,5.88 0,8.73 0,2.85 0,5.75 0,8.63 v 8.59 h 3.71 c 2.74,-5.8 7.28,-10.01 10.82,-14.97 z m -275.13,14.92 v -25.95 h -3.91 c -1.5,3.75 -9,13.62 -11.53,15.11 -0.26,-5.09 0.07,-10.05 0.21,-15.06 -2,-0.17 -3.62,-0.48 -5.32,0.24 0.1,4.27 0.28,8.49 0.29,12.71 0.01,4.22 -0.15,8.55 -0.24,13 h 3.93 c 2.07,-4.13 9.33,-13.53 11.54,-14.82 a 68.71,68.71 0 0 1 0.12,7.43 c 0,2.43 0,4.86 0,7.35 z m 111.09,-13 a 17.55,17.55 0 0 0 0,-1.92 c -0.54,-5.22 -3.1,-9.07 -8.09,-10.88 -4.99,-1.81 -9.31,-0.51 -12.89,3.24 -3.9,4.09 -4.49,9.09 -3.24,14.31 a 11.9,11.9 0 0 0 19.85,6 13.74,13.74 0 0 0 4.37,-10.78 z m -156.11,13 c 1,0.08 1.67,0.19 2.37,0.19 2.52,0 2.72,-0.18 2.7,-2.71 0,-2.16 -0.11,-4.32 -0.07,-6.48 0,-1.71 0.53,-2.08 2.23,-1.87 a 5.25,5.25 0 0 1 4.59,3.69 c 0.67,1.87 1.22,3.8 1.93,5.66 0.23,0.61 0.75,1.44 1.25,1.54 a 7.4,7.4 0 0 0 4.87,-0.35 c -1.66,-4.7 -2.58,-9.61 -6.62,-13.34 3.6,-3.31 4.44,-7.8 5.82,-12.13 a 5.44,5.44 0 0 0 -1,-0.26 c -0.63,0 -1.27,0 -1.91,0 -2.18,0 -2.37,0.21 -3,2.3 a 37.13,37.13 0 0 1 -1.43,4.56 6.05,6.05 0 0 1 -4.85,3.84 c -1.5,0.23 -1.94,-0.06 -2,-1.57 0,-2.15 0.07,-4.31 0.06,-6.47 a 23.69,23.69 0 0 0 -0.25,-2.44 h -4.81 z m 253.35,-25.92 c -0.06,0.92 -0.14,1.55 -0.14,2.17 q 0,10.67 0,21.32 a 3.7,3.7 0 0 0 0.07,1.42 c 0.2,0.44 0.64,1 1,1.08 1.31,0.16 2.69,0.46 4.15,-0.56 V 277.7 a 5.49,5.49 0 0 1 1.13,-0.31 c 2.34,0 4.27,0.82 5.21,3.09 0.78,1.91 1.3,3.94 2.07,5.86 0.29,0.75 0.84,1.8 1.45,1.95 a 7.76,7.76 0 0 0 4.89,-0.25 c -1.7,-4.77 -2.7,-9.72 -6.67,-13.49 3.59,-3.29 4.43,-7.7 5.75,-11.94 -4.43,-1.11 -5.1,-0.72 -6.08,3.28 a 22.07,22.07 0 0 1 -0.81,2.5 6.71,6.71 0 0 1 -2.89,3.7 c -1.24,0.7 -2.55,1.34 -4.22,0.32 v -10.06 z m 109.47,26 4.16,0.12 c 1,0 1.55,-0.42 1.78,-1.48 0.37,-1.63 1,-3.22 1.4,-4.83 a 1.9,1.9 0 0 1 2.13,-1.5 c 2.08,0 4.16,0.05 6.23,0 a 2,2 0 0 1 2.24,1.7 c 0.44,1.53 0.92,3.06 1.38,4.59 0.21,0.7 0.41,1.44 1.32,1.47 1.41,0 2.82,0 4.59,0 a 18.78,18.78 0 0 0 -0.59,-3.08 c -3,-7.65 -6,-15.29 -9.13,-23.15 h -2.76 c -2.69,0 -2.67,-0.15 -3.36,2.32 a 14.12,14.12 0 0 1 -0.6,1.57 c -2.56,6.21 -5.14,12.41 -7.68,18.62 -0.44,1.06 -0.72,2.2 -1.11,3.64 z M 438.1,266.7 h 10.58 c 0.14,-1.57 0.25,-2.86 0.37,-4.12 -2.7,-0.56 -13.91,-0.49 -15.84,0.05 v 25.42 c 2.49,0.67 14.66,0.6 16.67,-0.11 v -4 c -1.44,0 -2.7,0 -4,0 -1.92,0 -3.84,0.19 -5.75,0.18 -1.74,0 -2,-0.27 -2,-1.92 -0.06,-1.2 0,-2.4 0,-3.6 0,-1.2 0.59,-1.73 1.76,-1.71 q 2.16,0 4.32,0.06 c 2.48,0 2.75,-0.23 2.69,-2.71 a 15.58,15.58 0 0 0 -0.29,-1.73 h -2 l -4.79,0.13 c -1.2,0 -1.76,-0.54 -1.73,-1.74 0.03,-1.2 0.01,-2.51 0.01,-4.2 z m 488,-4.13 c -2.69,-0.56 -13.9,-0.48 -15.77,0.08 a 9.72,9.72 0 0 0 -0.17,1.36 q 0,11.16 0,22.32 c 0,1.95 0.18,2.13 2.25,2.15 3.84,0 7.68,0 11.52,0 3,0 3.28,-0.24 3.24,-3.25 a 8.73,8.73 0 0 0 -0.21,-1.29 c -3.86,-0.39 -7.68,0.79 -11.75,-0.17 v -5.33 a 1.33,1.33 0 0 1 1.46,-1.5 c 1.2,0 2.4,0 3.6,0 3.86,0.08 4,0 3.57,-3.83 0,-0.14 -0.15,-0.27 -0.34,-0.57 h -2 c -1.6,0 -3.2,0.09 -4.8,0.1 -0.78,0 -1.46,-0.29 -1.49,-1.21 0,-1.48 -0.33,-3 0.4,-4.72 h 10.13 c 0.15,-1.59 0.25,-2.89 0.36,-4.16 z m -68.2,-0.36 c -3.34,0 -6.44,0 -9.54,0 -2,0 -2,0.05 -2.52,2.05 a 61.57,61.57 0 0 1 -5.69,15 20,20 0 0 1 -2.53,3.76 c -1.55,1.79 -1.82,3.38 -0.64,5.75 a 3.48,3.48 0 0 0 3.36,-1.39 22.39,22.39 0 0 0 3.34,-4.68 c 1.75,-3.67 3.23,-7.47 4.77,-11.23 a 22.36,22.36 0 0 0 1,-3.21 c 0.27,-1.13 0.72,-1.95 2.07,-1.82 1.53,0.15 1.41,1.33 1.41,2.33 0,5.52 -0.11,11 -0.17,16.54 0,0.93 0,1.86 0,2.82 a 8,8 0 0 0 5.16,-0.11 z m -136.78,10.3 c -0.82,0 -1.51,0 -2.2,0 -1.6,0 -3.19,0.11 -4.79,0.14 -0.76,0 -1.51,-0.16 -1.61,-1.08 -0.17,-1.55 -0.49,-3.14 0.34,-4.68 3.4,-0.53 6.84,0.26 10.35,-0.37 -0.07,-1.52 0.52,-2.85 -0.32,-4.16 h -15.41 v 2 l 0.06,20.12 c 0,0.72 0,1.44 -0.05,2.15 0,1.19 0.52,1.79 1.72,1.77 h 1.68 c 3.75,0 7.5,0 11.26,0 1.89,0 2,-0.18 2.2,-2 0.08,-0.82 0,-1.66 0,-2.51 -4,-0.33 -7.76,0.79 -11.66,-0.14 0,-2.27 -0.73,-4.44 0.17,-6.85 1.58,0 3.08,0 4.58,0 4.24,0.13 4.24,0.13 3.68,-4.39 z m 233.42,15.73 c 4.27,0.51 8.34,0.86 12.29,-0.44 a 11.41,11.41 0 0 0 4.09,-2.37 7.64,7.64 0 0 0 -2.84,-12.94 21.44,21.44 0 0 0 -3.75,-0.73 23.88,23.88 0 0 0 -2.39,-0.1 c -2.22,-0.11 -2.41,-0.29 -2.39,-2.59 0,-1.36 0.15,-2.71 0.2,-4.07 0,-0.84 0,-1.69 0,-2.74 -1.92,0 -3.55,-0.39 -5.21,0.28 z m -17.64,-9.29 c 1.73,-0.27 3.15,-0.44 4.56,-0.71 a 11,11 0 0 0 6.3,-3.15 8.11,8.11 0 0 0 1.74,-8.26 c -0.84,-2.85 -3.25,-4 -6,-4.55 a 7.83,7.83 0 0 0 -1.67,-0.12 c -2.79,0 -5.59,0 -8.38,0 a 12.66,12.66 0 0 0 -1.79,0.34 c 0,0.8 0,1.51 0,2.21 0,4 0.09,8 0.09,12 0,3.19 -0.1,6.38 -0.08,9.57 0,0.65 0.29,1.81 0.58,1.86 a 9.49,9.49 0 0 0 4,0 c 1.09,-0.31 0.59,-1.66 0.61,-2.56 0.07,-2.12 0.04,-4.26 0.04,-6.63 z m -271.73,0 a 28.25,28.25 0 0 0 4.35,-0.7 19.55,19.55 0 0 0 5.43,-2.35 c 2.79,-2 3.58,-5 2.88,-8.32 a 6.71,6.71 0 0 0 -6.4,-5.25 c -3.73,-0.23 -7.49,0 -11.24,0.07 -0.1,0 -0.21,0.22 -0.16,0.17 v 25.69 a 8.21,8.21 0 0 0 4.93,-0.2 c 0.64,-3.08 -0.68,-6.12 0.21,-9.14 z m 35.15,9.38 v -25.85 a 8.12,8.12 0 0 0 -5,0.17 c 0,1.07 0,2.18 0,3.28 0.05,1.84 0.19,3.68 0.17,5.52 -0.02,1.84 -0.35,2.17 -2.28,2.27 a 23.54,23.54 0 0 1 -3.36,0 c -2.31,-0.22 -3.3,-1.15 -3.52,-3.47 -0.16,-1.75 -0.06,-3.52 -0.1,-5.28 0,-0.84 -0.07,-1.68 -0.11,-2.53 h -4.92 c 0,3.86 -0.4,7.52 0.63,11.12 a 5.53,5.53 0 0 0 4.52,4.17 56.57,56.57 0 0 0 6.66,0.43 c 0.68,0 1.38,-0.05 2.19,-0.09 0.84,3.49 -0.35,6.85 0.2,10.28 z m 45.78,-25.37 a 12.44,12.44 0 0 0 -9.15,-0.44 c -8.57,2.5 -11.94,12.41 -8.23,19.81 a 11.42,11.42 0 0 0 9.66,6.51 29.35,29.35 0 0 0 4.78,0.05 c 3.87,-0.23 4.22,-0.65 4.09,-4.44 a 2.5,2.5 0 0 0 -0.31,-0.74 c -1.49,0.24 -3,0.56 -4.46,0.71 a 8.6,8.6 0 0 1 -9.28,-5.27 9.86,9.86 0 0 1 -0.35,-6.79 c 1.07,-3.62 3.58,-5.63 7.36,-5.66 1.57,0 3.15,0.26 5.07,0.43 0.26,-1.37 0.53,-2.74 0.82,-4.2 z m -253.25,0 a 9.16,9.16 0 0 0 -1.35,-0.62 c -8.6,-1.9 -16.5,3.07 -17.52,12.33 -0.74,6.7 3.32,12.63 9.68,14 a 21.79,21.79 0 0 0 5.71,0.32 c 5.25,-0.29 4.32,-0.79 4.63,-4.93 0,-0.06 -0.09,-0.13 -0.22,-0.31 -1.56,0.25 -3.18,0.63 -4.82,0.76 a 8.63,8.63 0 0 1 -9.56,-6.86 c -1.48,-7.14 3.22,-12 10.38,-10.69 0.68,0.12 1.36,0.21 2.23,0.35 0.3,-1.61 0.55,-2.95 0.84,-4.42 z m 103.32,3.74 h 7.39 v -4.35 h -20.09 v 4.35 h 7.38 c 0.08,1.23 0.2,2.17 0.2,3.11 0,5.27 0,10.55 0,15.83 0,0.84 0.11,1.68 0.17,2.59 0.89,0.08 1.52,0.18 2.15,0.19 2.65,0.06 2.8,-0.1 2.79,-2.83 q 0,-8 -0.07,-16.06 c -0.05,-0.83 0.03,-1.69 0.08,-2.83 z m -124.12,-4.19 c -3.16,-0.55 -18.61,-0.43 -20.46,0.14 v 4.05 h 7.58 c 0.33,3.67 0.18,7.17 0.2,10.66 0.02,3.49 0,7.13 0,10.69 a 6.35,6.35 0 0 0 5,-0.19 c 0,-0.69 0,-1.47 0,-2.26 -0.08,-5.35 -0.18,-10.7 -0.24,-16 0,-0.92 0.18,-1.84 0.29,-3 h 7.26 c 0.15,-1.48 0.25,-2.72 0.37,-4.09 z m 418.12,25.82 c 1.34,0 2.51,0.1 3.68,0.09 a 1.24,1.24 0 0 0 1.32,-1.37 c 0,-0.48 0,-1 0,-1.44 0,-5.43 -0.08,-10.85 -0.1,-16.28 0,-2.38 0.12,-2.51 2.61,-2.52 1.6,0 3.2,0 4.79,0.08 3.86,0.08 4.07,-0.16 3.54,-4.06 0,-0.14 -0.18,-0.25 -0.46,-0.63 -4.95,0 -10.09,-0.06 -15.37,0 z m -69.34,-32.55 c -2.19,-0.94 -2.19,-0.94 -4.06,-0.37 -0.28,1.33 -0.11,3 -2.13,3.21 -1.5,0.13 -2.08,-0.55 -3,-3.7 l -3.93,0.57 c -0.28,4.72 2.24,7.1 7,7 4.18,-0.1 6.55,-2.68 6.12,-6.71 z m -266.58,-0.35 c 0,3 0.72,5.25 3.15,6.34 2.65,1.18 5.54,1.34 8,-0.5 a 5.14,5.14 0 0 0 2,-5.83 l -3.45,-0.48 c -0.95,1.43 -0.47,3.65 -2.8,3.68 -2.33,0.03 -2.16,-2.16 -3,-3.72 z"
  style="fill:none"/>
<path
  id="path6"
  d="m 168,361.42 c -5.94,-2.43 -10.9,-6.32 -15.62,-10.55 -15,-13.42 -27.09,-28.91 -35,-47.55 a 124.74,124.74 0 0 1 -7.94,-27.35 c -0.13,-0.78 -0.31,-1.56 -0.5,-2.34 a 11.92,11.92 0 0 0 -0.46,-1.2 l -2.47,1.37 a 75,75 0 0 1 -7.78,4.21 c -7.53,3 -14.26,1.54 -20,-4.19 A 40.38,40.38 0 0 1 70.57,262.56 110.71,110.71 0 0 1 61.94,234.7 c -1.51,-8 -1.88,-16.2 -2.38,-24.34 0,-0.78 -0.1,-1.56 -0.19,-2.88 a 13.77,13.77 0 0 0 -1,1.67 161.88,161.88 0 0 0 -11.42,42.48 223.1,223.1 0 0 0 -1.27,32.57 c 0,2.4 0.05,4.8 -0.06,7.19 -0.12,2.56 -1.07,3.92 -2.59,4.07 -1.52,0.15 -2.92,-1.18 -3.46,-3.44 a 77.23,77.23 0 0 1 -1.53,-8.25 123.65,123.65 0 0 1 -0.43,-23.48 235.1,235.1 0 0 1 8.95,-50.68 130.36,130.36 0 0 1 9.12,-23.91 84,84 0 0 1 5.91,-9.57 21.62,21.62 0 0 1 4.58,-4.53 c 2.48,-1.89 4,-1.23 4.44,1.82 a 40.26,40.26 0 0 1 0.33,5.49 c 0.08,7.2 -0.07,14.41 0.2,21.6 0.51,13.29 1.9,26.5 5.71,39.3 a 143.9,143.9 0 0 0 5.22,14.16 23.59,23.59 0 0 0 3.42,5.46 6.62,6.62 0 0 0 7.08,2.44 28,28 0 0 0 6.12,-2 91.16,91.16 0 0 0 8.49,-5 c 2.41,-1.56 4.67,-3.36 7,-5 a 20.64,20.64 0 0 1 3.29,-1.95 c 2.69,-1.17 4.64,0 4.87,2.91 a 13.86,13.86 0 0 1 -0.05,2.88 c -1.4,10.36 0.31,20.38 3.2,30.3 6.13,21 16.38,39.69 31.53,55.6 q 5,5.21 9.82,10.52 a 56.78,56.78 0 0 1 4.42,5.37 c 1.73,2.43 1.56,3.67 -0.41,5.94 z"/>
<path
  id="path8"
  d="m 231.68,312.38 c 0.81,0.21 1.62,0.49 2.44,0.63 a 54.61,54.61 0 0 0 13.64,0 c 9.92,-0.91 19.64,-2.71 28.93,-6.44 18,-7.23 32.2,-19.15 43.42,-34.78 10.44,-14.55 17.18,-30.81 21.63,-48.07 a 152.77,152.77 0 0 0 4.71,-48.29 C 343.24,126.04 323.39,84.77 285.28,52.82 266.15,36.82 243.95,26.51 219.9,20.15 a 170.93,170.93 0 0 0 -50.84,-5.61 c -24.62,1 -47.73,7.55 -69.61,18.78 a 165.29,165.29 0 0 0 -54,44.55 269.32,269.32 0 0 0 -19.53,27.83 c -1.75,2.86 -3.66,5.63 -5.64,8.34 a 9.37,9.37 0 0 1 -2.84,2.51 c -1.8,1 -3.59,0 -3.82,-2.05 a 5.4,5.4 0 0 1 0.25,-2.36 c 0.87,-2.48 1.71,-5 2.81,-7.38 C 29.44,76.88 48.44,54.09 72.9,35.76 95.14,19.05 120.06,8.66 147.38,3.83 a 212.13,212.13 0 0 1 36.3,-3.3 165.5,165.5 0 0 1 86.65,23.57 c 18.93,11.22 36,24.68 50.16,41.64 18.8,22.51 30.8,48.28 36.61,77 a 185.72,185.72 0 0 1 3.25,49.17 193.18,193.18 0 0 1 -17.74,70.06 c -8.84,18.79 -21.44,34.62 -38.4,46.8 a 92.7,92.7 0 0 1 -41.12,16.93 89.35,89.35 0 0 1 -46,-5.25 50.22,50.22 0 0 1 -16.72,-10.59 104.36,104.36 0 0 1 -12.73,-14 40.68,40.68 0 0 1 -3.86,-6.6 c -1,-2.15 -0.59,-3.68 0.72,-4.52 1.31,-0.84 2.44,-0.61 4.3,1 1,0.88 2,1.84 3,2.72 a 42.24,42.24 0 0 0 20.88,9.09 c 15.58,2.55 30.71,0.34 45.16,-5.54 30.63,-12.46 49.95,-35.08 58.44,-66.94 3.69,-13.82 4.35,-27.93 3,-42.14 A 153.13,153.13 0 0 0 293.06,110.39 131,131 0 0 0 239.56,64.6 172.21,172.21 0 0 0 158.32,48.09 C 126.45,49.38 98.12,60.2 72.79,79.48 54.1,93.71 39.86,111.53 28.79,132.07 A 351.21,351.21 0 0 0 9.95,174.59 c -0.87,2.32 -1.9,4.58 -2.95,6.82 a 8.31,8.31 0 0 1 -1.64,2.34 c -1.7,1.67 -3.83,1.14 -4.41,-1.14 a 10.57,10.57 0 0 1 -0.19,-3.55 c 0.8,-8.58 3.13,-16.81 5.89,-24.92 A 205.1,205.1 0 0 1 34.21,100.57 C 49.14,79.74 68.54,64.09 90.91,51.92 a 160.23,160.23 0 0 1 53.56,-18.17 179.92,179.92 0 0 1 40,-1.2 158,158 0 0 1 42.21,8.71 c 26.39,9.6 49.46,24.42 68.41,45.19 17.19,18.84 28.36,41.09 35.18,65.58 a 153.07,153.07 0 0 1 5.64,47.67 126.61,126.61 0 0 1 -25.91,72.27 c -13.64,18.11 -32.1,29.25 -53.84,35.16 a 120,120 0 0 1 -21.43,4 21.28,21.28 0 0 0 -2.37,0.39 1.92,1.92 0 0 0 -0.58,0.34 z"/>
<path
  id="path10"
  d="m 478.44,190.54 c 0.2,-0.43 0.41,-0.86 0.58,-1.3 10.89,-28.36 22,-56.64 31.88,-85.38 2.95,-8.61 5.49,-17.37 8.09,-26.1 a 69.44,69.44 0 0 0 1.35,-7.29 21.54,21.54 0 0 1 26,11.67 30.39,30.39 0 0 1 2.73,11.37 c 0.23,6.23 0.43,12.47 0.24,18.7 -0.62,21.1 -1.49,42.2 -2.12,63.3 a 234.11,234.11 0 0 0 1,29.24 106.6,106.6 0 0 0 3,18.19 c 0.74,2.68 1.79,5.27 2.81,8.2 a 20.66,20.66 0 0 1 -2.84,1.05 28.22,28.22 0 0 1 -13.3,-0.22 17.06,17.06 0 0 1 -10.67,-8.35 40,40 0 0 1 -4.41,-13.36 158.83,158.83 0 0 1 -2.27,-27.95 c 0,-16.15 0.37,-32.3 0.64,-48.45 0.11,-6.72 0.35,-13.44 0.53,-20.15 a 2.72,2.72 0 0 0 -0.35,-1.65 8,8 0 0 0 -0.5,1 c -8.41,24 -16.88,48 -25.15,72 -2.65,7.7 -4.78,15.58 -7.08,23.4 a 16.4,16.4 0 0 0 -0.67,4.5 3.87,3.87 0 0 1 -1.72,3.22 11.74,11.74 0 0 1 -5.88,2.52 c -6.39,0.88 -12.07,-0.58 -16.7,-5.29 a 30.56,30.56 0 0 1 -6.57,-10 c -2.55,-6.29 -5,-12.64 -7.26,-19 q -11.6,-32.79 -23,-65.62 a 7.93,7.93 0 0 0 -1.26,-2.47 6.91,6.91 0 0 0 -0.26,1.16 c -0.75,12.53 -1.62,25.06 -2.17,37.6 -0.66,15.12 -0.65,30.23 2.19,45.19 a 99.94,99.94 0 0 0 2.38,10.21 27.69,27.69 0 0 0 2.87,6.29 10.72,10.72 0 0 0 3.33,3.34 3,3 0 0 1 1.56,2.93 10,10 0 0 1 -9,9.63 c -7.2,0.82 -13.05,-1.64 -17.25,-7.64 -3.3,-4.7 -4.67,-10.12 -5.44,-15.71 -1.51,-11 -1.23,-22 -0.71,-33.06 0.38,-8.14 1,-16.28 1.66,-24.41 0.79,-9.64 1.79,-19.26 2.6,-28.9 0.92,-10.92 1.85,-21.83 2.54,-32.76 a 74.8,74.8 0 0 0 -0.64,-17.84 26.74,26.74 0 0 1 11.42,-2.52 16.8,16.8 0 0 1 14.07,7 55,55 0 0 1 5.89,9.87 c 2.68,6.05 5,12.27 7.25,18.52 q 14.69,41.49 29.19,83 l 0.87,2.4 z"/>
<path
  id="path12"
  d="m 194.68,246.78 a 17.58,17.58 0 0 0 1.4,2.08 26.2,26.2 0 0 0 17,8.88 c 13.94,1.63 26.15,-2.27 36.4,-11.83 a 57.55,57.55 0 0 0 18.33,-37.28 c 2.2,-21.39 -4.37,-40.24 -17.24,-57.11 a 90,90 0 0 0 -19.16,-18.36 69.1,69.1 0 0 0 -38,-13.06 123.66,123.66 0 0 0 -35.41,3.85 65,65 0 0 0 -13.58,5.38 c -1.63,0.83 -3.29,1.64 -5,2.31 -1.71,0.67 -2.66,0.32 -3.47,-0.7 -0.81,-1.02 -0.8,-2.06 0.29,-3.51 a 22.14,22.14 0 0 1 3.12,-3.3 49.08,49.08 0 0 1 15.22,-9 c 21.34,-7.92 43.08,-9.47 64.92,-2.56 25.88,8.19 44.11,25.15 55.08,50 a 93.81,93.81 0 0 1 8.43,36.22 c 0.44,21.74 -6.79,40.45 -22.56,55.64 -8.15,7.86 -18.11,12.15 -29.05,14.39 -7.52,1.53 -15.07,1.93 -22.6,0 A 32.94,32.94 0 0 1 191.98,258.7 c -1,-1.13 -2.05,-2.24 -3.14,-3.3 a 4,4 0 0 0 -1.86,-1 14.49,14.49 0 0 0 2.36,7.43 27,27 0 0 0 11,9.75 49.07,49.07 0 0 0 31.47,4.66 97.76,97.76 0 0 0 20.87,-6.31 62,62 0 0 0 28.62,-24.23 90.8,90.8 0 0 0 13.23,-36 104.58,104.58 0 0 0 -1.54,-40 c -4.08,-17 -12.36,-31.79 -23.92,-44.82 a 145.66,145.66 0 0 0 -23.23,-20.73 c -3,-2.22 -6.12,-4.38 -9.13,-6.63 a 33.6,33.6 0 0 1 -3.43,-3 c -0.94,-0.93 -1.63,-2.08 -1,-3.46 a 3.23,3.23 0 0 1 3.37,-1.82 21.94,21.94 0 0 1 3.8,0.37 53.47,53.47 0 0 1 15,5.72 c 17.92,9.73 31.62,23.75 41.63,41.41 a 115.12,115.12 0 0 1 14.6,47.73 109.58,109.58 0 0 1 -12.85,62.06 c -12.46,23.27 -31.78,37.53 -57.44,43.35 -6.82,1.55 -13.7,2.63 -20.69,2 -14.88,-1.4 -27.32,-7.58 -36.67,-19.39 -5.6,-7.07 -8.26,-15.32 -8.73,-24.22 a 49.51,49.51 0 0 1 0.55,-11.22 c 1.66,-9.29 6.74,-16.46 14.6,-21.65 a 18.51,18.51 0 0 1 4.08,-2 6.89,6.89 0 0 1 3.06,-0.29 2.75,2.75 0 0 1 2.31,3.69 12,12 0 0 1 -1.54,2.94 c -3.94,5.76 -2.74,12.21 3.09,16.23 a 15.1,15.1 0 0 0 7.63,2.6 c 15.12,1.13 28.3,-9.32 30.92,-24.6 1.93,-11.24 0,-22 -4.57,-32.3 -8.68,-19.47 -24,-29.82 -45.08,-30.92 -20.59,-1.07 -39.35,4.77 -55.94,17.16 -3,2.25 -5.84,4.74 -8.77,7.09 a 28.07,28.07 0 0 1 -3.31,2.36 2.41,2.41 0 0 1 -2.92,-0.22 2.34,2.34 0 0 1 -0.7,-2.63 12.64,12.64 0 0 1 1.65,-3.7 56.23,56.23 0 0 1 6.46,-7.68 91.71,91.71 0 0 1 47.7,-23 c 12.11,-2 24.12,-1.47 35.77,2.57 22.33,7.76 35.82,23.56 41.27,46.36 2.75,11.51 2.66,23 -1.41,34.26 a 54,54 0 0 1 -4.22,8.85 c -6.27,10.68 -16,15.94 -28,17.53 a 27.3,27.3 0 0 1 -14.34,-1.65 36.23,36.23 0 0 0 -4.81,-1.5 19.54,19.54 0 0 0 -2.78,-0.32 z"/>
<path
  id="path14"
  d="m 111.04,194.99 c 1.92,-1.14 3.31,-1.89 4.63,-2.75 5.76,-3.75 11.44,-7.63 17.27,-11.27 10.48,-6.55 22,-10.12 34.15,-12.06 a 80.59,80.59 0 0 1 22.95,-0.51 48.28,48.28 0 0 1 12.05,3.07 c 10.6,4.28 17,12.12 19.65,23.16 1,4.32 1.58,8.68 0.51,13.06 a 25.72,25.72 0 0 1 -2,5.13 8,8 0 0 1 -2.15,2.53 3.37,3.37 0 0 1 -5.36,-0.84 16.53,16.53 0 0 1 -1.68,-3.43 10.39,10.39 0 0 0 -9.54,-7.22 c -8.36,-0.72 -16,1.18 -22.07,7.18 -7.47,7.35 -12.2,16.25 -13.37,26.73 -2.73,24.17 3.84,45.74 19.55,64.19 a 109,109 0 0 0 58.47,36 c 2.25,0.55 4.49,1.19 6.67,2 a 9.23,9.23 0 0 1 2.89,1.65 2.57,2.57 0 0 1 -0.22,4.28 9.76,9.76 0 0 1 -3.35,1.17 c -4.89,0.89 -9.73,0.17 -14.53,-0.73 a 82,82 0 0 1 -17.35,-5.5 c -14.61,-6.26 -28.08,-14.31 -39.22,-25.82 -12.76,-13.19 -22,-28.49 -26.09,-46.49 -3.6,-15.6 -3.35,-31.13 2.07,-46.34 3.87,-10.86 10.37,-19.76 20.19,-26.06 a 43.73,43.73 0 0 1 19.78,-6.77 35,35 0 0 1 6.66,0.51 c 1.33,0.14 2.64,0.36 4.47,0.61 a 7.76,7.76 0 0 0 -1.14,-1.65 39.61,39.61 0 0 0 -3.78,-2.54 c -8.33,-4.77 -17.31,-6.31 -26.82,-5.45 a 89.84,89.84 0 0 0 -43.56,15.52 c -5.4,3.72 -10.6,7.72 -15.89,11.59 a 56.91,56.91 0 0 1 -4.87,3.49 c -3,1.75 -5.82,1.22 -7.81,-1.59 a 24.41,24.41 0 0 1 -2.93,-5.73 61.08,61.08 0 0 1 -3.08,-23.88 c 1.57,-31.07 14,-57.61 34.08,-80.88 a 60.14,60.14 0 0 1 17.17,-13.69 c 3,-1.59 5.92,-3.17 8.84,-4.84 a 24.27,24.27 0 0 0 2.61,-2 c -0.86,-1.37 -2,-1.24 -2.95,-1.19 -2.47,0.13 -4.95,0.32 -7.4,0.66 -25.91,3.65 -49.27,13.32 -69.79,29.66 a 138.38,138.38 0 0 0 -37.91,47.11 235.83,235.83 0 0 0 -22,66.72 c -0.76,4.57 -1.33,9.18 -2,13.75 a 11.39,11.39 0 0 1 -1,3.19 c -1.37,2.69 -4.14,2.82 -5.59,0.19 A 12.55,12.55 0 0 1 8.77,234.4 80,80 0 0 1 8,223.17 C 9.37,175.7 32.37,127.7 68.43,96.87 86.96,81.01 108.33,71.07 132.15,66.22 a 161,161 0 0 1 37,-3.3 c 13.57,0.4 26.7,2.87 39.07,8.65 a 81.7,81.7 0 0 1 8.95,5.09 9.65,9.65 0 0 1 2.81,2.88 3.39,3.39 0 0 1 -1.7,5.31 15.46,15.46 0 0 1 -4.9,1 c -3,0.09 -6.07,0 -9.11,-0.2 -19.84,-1.13 -37.89,3.62 -53.62,16.16 a 102.15,102.15 0 0 0 -15.42,15.06 112.5,112.5 0 0 0 -24.55,52.89 65.59,65.59 0 0 0 -0.72,20.31 c 0.18,1.46 0.62,2.9 1.08,4.92 z"/>
<path
  id="path16"
  d="m 791.07,159.76 c 0.49,0.68 0.75,1.15 1.11,1.55 14.49,15.8 29.07,31.51 44.72,46.18 3.21,3 6.57,5.85 10,8.64 a 27.74,27.74 0 0 0 4.84,3.08 2,2 0 0 1 1.31,2 c 0,4.73 -1.65,8.69 -5.77,11.18 a 14,14 0 0 1 -12.22,1.42 29,29 0 0 1 -9,-5 c -5.14,-4.19 -10.31,-8.38 -15.1,-13 -13.28,-12.61 -25.28,-26.46 -37.28,-40.28 -3,-3.5 -6,-7 -9.08,-10.55 -0.51,-0.59 -1.06,-1.13 -1.89,-2 a 20.13,20.13 0 0 0 -0.28,2.17 c 0.1,10.23 0,20.48 0.38,30.7 0.38,10.22 1.49,20.26 4.63,30 0.73,2.28 1.61,4.51 2.51,7 a 10.58,10.58 0 0 1 -1.76,0.75 29.38,29.38 0 0 1 -14,0.29 19.49,19.49 0 0 1 -13.1,-10.4 c -2.33,-4.36 -3.36,-9.13 -4.2,-13.94 a 221.81,221.81 0 0 1 -2.85,-32.23 c -0.64,-23 -0.07,-46.06 0.69,-69.09 0.21,-6.47 0.18,-13 0.23,-19.43 0,-1 -0.15,-2 -0.24,-3.2 a 26.81,26.81 0 0 1 -2.76,-0.2 31.69,31.69 0 0 1 -5.6,-1.2 9.76,9.76 0 0 1 -5.69,-11.2 20.67,20.67 0 0 1 1,-2.55 c 4.07,1.92 8.25,1.71 12.38,1.57 9.83,-0.34 19.65,-0.82 29.48,-1.25 9.19,-0.39 18.38,-0.84 27.56,0.23 a 68.25,68.25 0 0 1 24.26,7.07 c 13.4,7.07 21.07,18.26 23.64,33.06 a 40.69,40.69 0 0 1 -0.24,16 35.86,35.86 0 0 1 -12.81,20.31 c -7.1,5.81 -15.33,9.15 -24.25,10.89 -2.66,0.52 -5.38,0.74 -8.07,1.1 z m -28.27,-7.52 c 1.23,0 2,0.06 2.81,0 4.05,-0.34 8.14,-0.52 12.15,-1.13 a 46.67,46.67 0 0 0 17.52,-6.17 29.74,29.74 0 0 0 14.28,-19.84 38,38 0 0 0 0.2,-13.58 c -2.23,-15.23 -11.59,-24.74 -26.79,-27.17 -6.21,-1 -12.43,-0.45 -18.65,-0.12 -0.2,0 -0.4,0.22 -0.73,0.42 1,11.13 0.39,22.3 0.11,33.47 -0.28,11.17 -0.59,22.48 -0.9,34.12 z"/>
<path
  id="path18"
  d="m 709.83,154.55 c -0.14,12.91 -1.78,25.46 -6.65,37.42 -9.22,22.62 -26.09,35.57 -50.11,39.33 a 76.3,76.3 0 0 1 -32.11,-1.34 58.49,58.49 0 0 1 -33,-23 c -6.94,-9.66 -11,-20.54 -13.36,-32.09 a 129.21,129.21 0 0 1 -2.34,-35.8 c 1,-13.12 4,-25.74 10,-37.52 5.64,-11 13.41,-20 24.1,-26.4 a 60.68,60.68 0 0 1 26.32,-8.27 75.64,75.64 0 0 1 29.45,2.82 58,58 0 0 1 31.48,23.89 88.66,88.66 0 0 1 11.57,26.48 140.82,140.82 0 0 1 4.65,34.48 z M 600.6,149.42 a 170.5,170.5 0 0 0 2.4,27.44 77.47,77.47 0 0 0 7.53,23.16 44.48,44.48 0 0 0 11.77,14.68 29.64,29.64 0 0 0 38.19,-0.77 43.5,43.5 0 0 0 9.67,-12.12 75.9,75.9 0 0 0 7.62,-20.37 139.94,139.94 0 0 0 0.18,-60.66 81.68,81.68 0 0 0 -8.63,-23.8 42.39,42.39 0 0 0 -10.75,-12.75 c -10,-7.8 -25.78,-9.21 -37.16,1.47 a 50.45,50.45 0 0 0 -5.17,5.66 61,61 0 0 0 -9.08,17.08 c -4.8,13.26 -6.42,26.99 -6.57,40.98 z"/>
<path
  id="path20"
  d="m 955.97,201.26 c 8.85,0.74 16.83,7.5 18.59,15.87 a 23.72,23.72 0 0 1 0.17,7.14 c -0.25,2.59 -2.15,4.21 -4.3,5.43 a 21.54,21.54 0 0 1 -8.47,2.48 72.71,72.71 0 0 1 -8.84,0.54 c -12.16,-0.19 -24.3,-0.58 -36.46,-0.75 -12.16,-0.17 -24.46,-0.2 -36.69,-0.26 a 13.67,13.67 0 0 0 -2.86,0.28 c -0.93,0.19 -1.83,0.54 -2.79,0.84 -3.19,-1.08 -5.55,-6.79 -5,-10.06 a 4.58,4.58 0 0 1 3.41,-3.66 c 1.2,-0.4 2.47,-0.59 3.93,-0.93 -0.12,-0.78 -0.18,-1.55 -0.35,-2.29 a 152.54,152.54 0 0 1 -3.17,-22.3 c -1.67,-21.56 -1.47,-43.14 -1,-64.74 0.27,-13.43 0.37,-26.87 0.54,-40.3 0,-1 0,-2 0,-3.24 -1.22,-0.12 -2.17,-0.15 -3.09,-0.31 a 29.48,29.48 0 0 1 -4.91,-1 9.87,9.87 0 0 1 -5.88,-11.73 15,15 0 0 1 0.93,-2 c 2.63,1.52 5.37,1.61 8.07,1.57 7,-0.1 14.06,-0.35 21.1,-0.54 14.62,-0.39 29.25,-0.87 43.88,-1.15 a 48.29,48.29 0 0 1 14.23,1.78 c 8.89,2.5 13.92,8.46 14.77,17.68 a 13,13 0 0 1 -2.89,9.87 8.61,8.61 0 0 1 -6.42,3.3 1.85,1.85 0 0 1 -2.18,-1.39 c -1,-3.12 -3.15,-5.32 -5.6,-7.32 -5.27,-4.33 -11.47,-6.59 -18,-8 a 117.76,117.76 0 0 0 -25.28,-2.19 9.82,9.82 0 0 0 -1.29,0.19 c 1,19.68 -0.76,39.22 -0.58,59.14 1.57,-0.14 3,-0.2 4.34,-0.38 7.21,-1 14.4,-2 21.62,-2.91 a 34.07,34.07 0 0 1 11.7,0.27 c 7.55,1.69 12.74,8.26 12.31,15.57 a 8.19,8.19 0 0 1 -7.31,7.92 2.24,2.24 0 0 1 -2.32,-0.81 14.77,14.77 0 0 0 -6.64,-4.56 38,38 0 0 0 -12.84,-2.76 c -6.55,-0.23 -13.11,-0.08 -19.66,-0.08 a 5.63,5.63 0 0 0 -1.07,0.24 c -0.06,0.81 -0.17,1.58 -0.17,2.36 0,9.76 -0.1,19.52 0.14,29.27 a 148.72,148.72 0 0 0 3.19,29.28 c 0.19,0.84 0.46,1.66 0.77,2.73 3,0 5.83,0.12 8.69,0 3.59,-0.18 7.17,-0.53 10.74,-0.91 6.94,-0.74 13.78,-2 20.21,-4.84 a 45.25,45.25 0 0 0 7.48,-4.24 11.47,11.47 0 0 0 5.25,-8.1 z"/>
<path
  id="path22"
  d="m 82.39,139.33 a 3,3 0 0 0 -3,1.14 63.52,63.52 0 0 0 -5.2,5.31 c -16.28,19.6 -28.62,41.38 -36,65.86 a 129.3,129.3 0 0 0 -4.62,26.42 c -0.82,9.8 -1.52,19.61 -2.35,29.41 a 10.24,10.24 0 0 1 -1.16,3.85 c -1.32,2.4 -3.9,2.41 -5.36,0.08 -1.46,-2.33 -1.74,-4.79 -2.09,-7.32 a 119.93,119.93 0 0 1 -0.35,-26.58 181.08,181.08 0 0 1 16.71,-62 C 49.1,153.89 62.69,134.77 80.56,118.83 a 128.11,128.11 0 0 1 28,-19.24 71,71 0 0 1 8,-3.26 8.13,8.13 0 0 1 3.3,-0.34 c 1.62,0.12 2.36,1 2.06,2.57 a 9.81,9.81 0 0 1 -1.41,3.5 c -1.15,1.73 -2.53,3.3 -3.83,4.92 a 119.88,119.88 0 0 0 -25,52.78 125.24,125.24 0 0 0 -2.33,31 86.22,86.22 0 0 0 7.63,32.24 21.66,21.66 0 0 0 2.68,4.22 3.79,3.79 0 0 0 4.94,1.18 29.2,29.2 0 0 0 4.79,-2.7 c 3.79,-2.81 7.45,-5.78 11.18,-8.68 5.56,-4.31 11.07,-8.7 16.72,-12.88 a 65.52,65.52 0 0 1 14.13,-8.08 18.06,18.06 0 0 1 4.82,-1.32 c 2.76,-0.32 4,1.62 2.73,4.11 a 14.26,14.26 0 0 1 -2.79,3.55 49.33,49.33 0 0 0 -12,18 60.28,60.28 0 0 0 -4,19.17 c -0.7,14.12 2.16,27.66 6.66,40.94 6.37,18.79 16.25,35.39 30.37,49.42 a 101.76,101.76 0 0 0 29.95,20.86 c 1.68,0.76 3.35,1.52 5,2.33 a 8.12,8.12 0 0 1 2,1.29 2.36,2.36 0 0 1 -0.85,4.18 9.22,9.22 0 0 1 -3.06,0.38 50.16,50.16 0 0 1 -23.23,-6 c -6.68,-3.56 -12.51,-8.28 -18.21,-13.21 -19.33,-16.69 -31,-37.93 -37.31,-62.41 a 141.34,141.34 0 0 1 -3.82,-24.81 c -0.35,-4.7 -0.48,-9.42 -0.65,-14.13 -0.14,-3.86 -1.08,-4.42 -4.51,-2.45 -3.12,1.79 -6.17,3.69 -9.27,5.52 -1.3,0.78 -2.62,1.54 -4,2.25 -4.62,2.42 -9.1,2 -13.44,-0.72 a 22.29,22.29 0 0 1 -7.38,-8.05 65.16,65.16 0 0 1 -6.33,-15.76 127.49,127.49 0 0 1 -4,-25.55 158.8,158.8 0 0 1 1,-31.36 c 0.82,-6.09 2,-12.14 3.07,-18.2 a 11.39,11.39 0 0 0 0.22,-4.76 z"/>
<path
  id="path24"
  d="m 61.78,282.12 a 4.13,4.13 0 0 0 -1.3,3.74 c 0.33,4.3 0.59,8.62 1.2,12.89 0.66,4.66 1.69,9.27 2.53,13.91 a 11,11 0 0 1 0.28,2.61 c -0.13,2.24 -2.09,3.24 -3.91,1.89 a 6.48,6.48 0 0 1 -2.18,-2.75 79,79 0 0 1 -3.47,-10.7 171.83,171.83 0 0 1 -3.44,-42.93 71.65,71.65 0 0 1 0.85,-7.14 10,10 0 0 1 0.56,-2.08 2.64,2.64 0 0 1 2.23,-1.93 2.74,2.74 0 0 1 2.77,1.54 14.58,14.58 0 0 1 0.82,2 c 2.67,6.51 5.22,13.06 8,19.5 a 47.38,47.38 0 0 0 7.68,12.41 30.79,30.79 0 0 0 5.47,5 10.8,10.8 0 0 0 12,0.58 37.1,37.1 0 0 0 5.76,-4.26 c 2,-1.71 4.1,-1.79 5.81,0.23 a 12.24,12.24 0 0 1 2,3.5 c 1,2.77 2,5.58 2.85,8.41 a 114.61,114.61 0 0 0 31.39,50.92 14,14 0 0 1 2.44,3.47 2.59,2.59 0 0 1 -0.66,3.28 2.51,2.51 0 0 1 -3.12,0.31 39,39 0 0 1 -5,-3.28 94.51,94.51 0 0 1 -21.49,-25.3 c -3.45,-6 -6.76,-12 -10.18,-18 -1.35,-2.36 -2.78,-4.67 -4.26,-6.95 -1,-1.61 -1.85,-1.83 -3.66,-1.21 -0.53,0.18 -1,0.43 -1.55,0.65 a 14.19,14.19 0 0 1 -14.14,-1.47 30.61,30.61 0 0 1 -7.34,-7.2 c -2.11,-2.81 -4.07,-5.74 -6.16,-8.57 -0.82,-1.01 -1.77,-1.94 -2.78,-3.07 z"/>
<path
  id="path26"
  d="m 76.88,326.7 a 3.1,3.1 0 0 1 -2.71,-2 59.67,59.67 0 0 1 -6.85,-23.51 11.06,11.06 0 0 1 0.37,-2.14 c 0.9,1.06 1.53,1.7 2,2.44 1.72,2.5 3.3,5.1 5.11,7.53 a 37.71,37.71 0 0 0 4.29,4.81 10.73,10.73 0 0 0 3.42,2.16 5.07,5.07 0 0 0 6.12,-1.26 c 0.64,-0.71 1.27,-1.44 2,-2.1 1.12,-1.07 1.82,-1.1 2.82,0 a 24.77,24.77 0 0 1 2.59,3.44 q 6.69,10.93 13.3,21.92 c 1.31,2.19 2.5,4.46 3.74,6.69 0.4,0.71 0.86,1.59 0.1,2.17 a 2.65,2.65 0 0 1 -2.15,0.45 7.83,7.83 0 0 1 -3.27,-1.81 c -2.63,-2.88 -5.17,-5.86 -7.55,-9 -2,-2.59 -3.69,-5.41 -5.63,-8 -1.07,-1.47 -2.37,-2.77 -3.65,-4.25 -2.25,1.65 -4.45,1.21 -6.43,0.08 a 46.52,46.52 0 0 1 -5.22,-3.62 20.08,20.08 0 0 1 -1.8,-1.73 c -0.88,2.64 1.01,5.25 -0.6,7.73 z"/>
<path
  id="path28"
  d="m 425.16,262.18 v 3 c 0,5.36 0,10.72 0,16.07 0,2.65 0.06,2.64 2.78,3 a 5.71,5.71 0 0 1 0.91,0.3 c 0,0.79 0.07,1.64 0,2.47 -0.25,2.47 -0.58,4.92 -0.83,7.39 -0.18,1.8 -0.36,2 -2.19,2 a 14.61,14.61 0 0 1 -1.86,-0.29 c 0,-1.73 -0.06,-3.39 -0.11,-5 -0.07,-2.58 -0.17,-2.71 -2.75,-2.72 q -5.4,0 -10.8,0 c -2,0 -2.13,0.15 -2.46,2.12 -0.2,1.18 -0.35,2.37 -0.45,3.56 -0.18,2.25 -0.38,2.46 -2.57,2.36 a 13.63,13.63 0 0 1 -1.49,-0.29 c -0.06,-3.81 -0.11,-7.6 -0.06,-11.54 1.93,-0.28 2.35,-1.74 2.92,-3.17 2.31,-5.79 4.73,-11.54 7,-17.32 a 2.64,2.64 0 0 1 2.88,-1.92 c 2.89,0.06 5.76,-0.02 9.08,-0.02 z m -15,21.8 a 50.76,50.76 0 0 0 9,0.05 c 0.92,-0.09 1,-0.91 1,-1.66 l -0.06,-14.16 c 0,-0.86 -0.17,-1.63 -1.21,-1.75 a 1.93,1.93 0 0 0 -2.26,0.94 c -0.24,0.5 -0.47,1 -0.68,1.53 -1.51,3.78 -3,7.57 -4.52,11.36 -0.42,1.03 -0.75,2.11 -1.23,3.69 z"/>
<path
  id="path30"
  d="m 607.58,288.45 v -26 a 10.41,10.41 0 0 1 1.61,-0.27 c 2.56,0 5.11,-0.07 7.67,0 a 13,13 0 0 1 2.85,0.32 c 4.75,1.12 6.58,5.23 4.29,9.6 -0.29,0.55 -0.61,1.1 -1.09,2 a 5.86,5.86 0 0 1 1,0.64 7.39,7.39 0 0 1 -1.23,11.96 14.05,14.05 0 0 1 -7.11,1.87 c -2.59,0.05 -5.2,-0.08 -7.99,-0.12 z m 4.89,-8.28 c 0,0.64 0,1.28 0,1.92 0.16,1.78 0.44,2.12 2.21,2.06 a 20.25,20.25 0 0 0 4.24,-0.6 2.77,2.77 0 0 0 2.36,-2.9 2.92,2.92 0 0 0 -2.15,-3.09 13,13 0 0 0 -3.26,-0.7 c -3.34,-0.27 -3.49,-0.08 -3.4,3.31 z m -0.1,-8 a 9.78,9.78 0 0 0 5.74,-0.36 2.44,2.44 0 0 0 1.68,-2.61 2.34,2.34 0 0 0 -1.91,-2.43 22.31,22.31 0 0 0 -4,-0.34 c -1.06,0 -1.53,0.65 -1.51,1.71 0.02,1.27 0,2.56 0,4.04 z"/>
<path
  id="path32"
  d="m 550.57,262.35 h 5.11 v 15 c 0.66,-0.35 1.06,-0.44 1.27,-0.7 q 4.13,-5.13 8.2,-10.33 a 11.48,11.48 0 0 0 1.23,-2.05 c 1.07,-2.19 1.05,-2.2 3.35,-2.07 a 3.38,3.38 0 0 1 0.7,0.1 3.89,3.89 0 0 1 0.62,0.34 c 0,0.56 0.14,1.26 0.14,1.95 q 0,10.68 0,21.36 c 0,0.83 0.38,2.06 -0.72,2.27 a 10.65,10.65 0 0 1 -4,-0.16 c -0.26,-0.05 -0.44,-1.26 -0.44,-1.93 0,-3.36 0,-6.72 0.06,-10.08 0,-0.79 0,-1.57 0,-2.69 -0.61,0.34 -1,0.43 -1.21,0.68 -2.7,3.38 -5.39,6.75 -8,10.18 a 18,18 0 0 0 -1.8,3.1 1.81,1.81 0 0 1 -1.64,1.14 c -2.34,0.23 -2.81,-0.22 -2.81,-2.57 q 0,-10.56 0,-21.11 z"/>
<path
  id="path34"
  d="m 796.83,288.3 h -5 c -0.06,-0.94 -0.15,-1.71 -0.14,-2.48 0.06,-2.95 0.18,-5.91 0.22,-8.87 0,-1.15 -0.11,-2.3 -0.18,-3.68 -2.7,2.14 -9.78,11.52 -11.43,15 h -3.82 V 262.4 h 4.81 c 0.43,2.46 0,5 0,7.51 0,2.51 0,4.91 0,7.51 2.48,-1.46 9.72,-10.93 11.64,-15.1 h 3.86 z"/>
<path
  id="path36"
  d="m 818.61,273.35 c -3.54,5 -8.08,9.17 -10.84,15 h -3.71 v -8.65 c 0,-2.88 0,-5.75 0,-8.63 0,-2.88 0,-5.7 0,-8.73 h 4.84 c 0.58,2.5 -0.16,5 -0.08,7.53 0.08,2.53 0,4.9 0,7.46 2.37,-1.06 10.17,-11.29 11.52,-15 h 4 v 25.88 h -5.08 V 273.7 Z"/>
<path
  id="path38"
  d="m 543.49,288.27 h -4.9 c 0,-2.49 0,-4.92 0,-7.35 a 68.71,68.71 0 0 0 -0.12,-7.43 c -2.21,1.29 -9.47,10.69 -11.54,14.82 H 523 c 0.09,-4.44 0.25,-8.71 0.24,-13 -0.01,-4.29 -0.19,-8.44 -0.29,-12.71 1.7,-0.72 3.33,-0.41 5.32,-0.24 -0.14,5 -0.47,10 -0.21,15.06 2.56,-1.49 10,-11.36 11.53,-15.11 h 3.91 z"/>
<path
  id="path40"
  d="m 654.58,275.24 a 13.74,13.74 0 0 1 -4.38,10.73 11.9,11.9 0 0 1 -19.85,-6 c -1.25,-5.22 -0.66,-10.22 3.24,-14.31 3.58,-3.75 8,-5 12.89,-3.24 4.89,1.76 7.55,5.66 8.09,10.88 a 17.55,17.55 0 0 1 0.01,1.94 z m -5,-0.73 a 21.23,21.23 0 0 0 -1.38,-4.43 c -2.5,-4.77 -8.29,-5.14 -11.38,-0.84 a 11.88,11.88 0 0 0 -0.3,12.08 c 3,4.64 8.74,4.53 11.57,-0.2 1.01,-1.78 1.33,-3.73 1.45,-6.61 z"/>
<path
  id="path42"
  d="m 498.47,288.27 v -25.86 h 4.81 a 23.69,23.69 0 0 1 0.25,2.44 c 0,2.16 -0.1,4.32 -0.06,6.47 0,1.51 0.47,1.8 2,1.57 a 6.05,6.05 0 0 0 4.85,-3.84 37.13,37.13 0 0 0 1.43,-4.56 c 0.59,-2.09 0.78,-2.27 3,-2.3 0.64,0 1.28,0 1.91,0 a 5.44,5.44 0 0 1 1,0.26 c -1.38,4.33 -2.22,8.82 -5.82,12.13 4,3.73 5,8.64 6.62,13.34 a 7.4,7.4 0 0 1 -4.87,0.35 c -0.5,-0.1 -1,-0.93 -1.25,-1.54 -0.71,-1.86 -1.26,-3.79 -1.93,-5.66 a 5.25,5.25 0 0 0 -4.73,-3.67 c -1.7,-0.21 -2.2,0.16 -2.23,1.87 0,2.16 0,4.32 0.07,6.48 0,2.53 -0.18,2.74 -2.7,2.71 -0.68,0 -1.38,-0.11 -2.35,-0.19 z"/>
<path
  id="path44"
  d="m 751.82,262.35 h 4.94 v 10.05 c 1.67,1 3,0.38 4.22,-0.32 a 6.71,6.71 0 0 0 2.89,-3.7 22.07,22.07 0 0 0 0.81,-2.5 c 1,-4 1.65,-4.39 6.08,-3.28 -1.32,4.24 -2.16,8.65 -5.75,11.94 4,3.77 5,8.72 6.67,13.49 a 7.76,7.76 0 0 1 -4.89,0.25 c -0.61,-0.15 -1.16,-1.2 -1.45,-1.95 -0.77,-1.92 -1.29,-3.95 -2.07,-5.86 -0.94,-2.27 -2.87,-3.09 -5.21,-3.09 a 5.49,5.49 0 0 0 -1.13,0.31 v 10.09 c -1.46,1 -2.84,0.72 -4.15,0.56 -0.39,-0.05 -0.83,-0.64 -1,-1.08 a 3.7,3.7 0 0 1 -0.07,-1.42 q 0,-10.67 0,-21.32 c -0.03,-0.62 0.05,-1.25 0.11,-2.17 z"/>
<path
  id="path46"
  d="m 861.29,288.34 c 0.43,-1.44 0.67,-2.58 1.11,-3.65 2.54,-6.21 5.12,-12.41 7.68,-18.62 a 14.12,14.12 0 0 0 0.6,-1.57 c 0.69,-2.47 0.67,-2.3 3.36,-2.32 h 2.76 c 3.11,7.86 6.15,15.5 9.13,23.15 a 18.78,18.78 0 0 1 0.59,3.08 c -1.77,0 -3.18,0 -4.59,0 -0.91,0 -1.11,-0.77 -1.32,-1.47 -0.46,-1.53 -0.94,-3.06 -1.38,-4.59 a 2,2 0 0 0 -2.24,-1.7 c -2.07,0.06 -4.15,0.05 -6.23,0 a 1.9,1.9 0 0 0 -2.13,1.5 c -0.45,1.61 -1,3.2 -1.4,4.83 -0.23,1.06 -0.74,1.52 -1.78,1.48 z m 15.57,-12.23 a 38.22,38.22 0 0 0 -3.07,-7.36 38.21,38.21 0 0 0 -2.75,7.36 z"/>
<path
  id="path48"
  d="m 438.1,266.7 c 0,1.71 0,3 0,4.23 0,1.23 0.58,1.77 1.73,1.77 l 4.79,-0.13 h 2 a 15.58,15.58 0 0 1 0.29,1.73 c 0.06,2.48 -0.21,2.74 -2.69,2.71 q -2.16,0 -4.32,-0.06 c -1.17,0 -1.8,0.47 -1.76,1.71 0.04,1.24 0,2.4 0,3.6 0.08,1.65 0.31,1.9 2,1.92 1.91,0 3.83,-0.14 5.75,-0.18 1.26,0 2.52,0 4,0 v 4 c -2,0.71 -14.18,0.78 -16.67,0.11 v -25.5 c 1.93,-0.54 13.14,-0.61 15.84,-0.05 -0.12,1.26 -0.23,2.55 -0.37,4.12 z"/>
<path
  id="path50"
  d="m 926.1,262.55 c -0.11,1.27 -0.21,2.57 -0.34,4.16 h -10.08 c -0.73,1.72 -0.44,3.24 -0.4,4.72 0,0.92 0.71,1.21 1.49,1.21 1.6,0 3.2,-0.07 4.8,-0.1 h 2 c 0.19,0.3 0.33,0.43 0.34,0.57 0.4,3.81 0.29,3.91 -3.57,3.83 -1.2,0 -2.4,0 -3.6,0 a 1.33,1.33 0 0 0 -1.46,1.5 v 5.33 c 4.07,1 7.89,-0.22 11.75,0.17 a 8.73,8.73 0 0 1 0.21,1.29 c 0,3 -0.19,3.24 -3.24,3.25 -3.84,0 -7.68,0 -11.52,0 -2.07,0 -2.25,-0.2 -2.25,-2.15 q 0,-11.16 0,-22.32 a 9.72,9.72 0 0 1 0.17,-1.36 c 1.8,-0.58 13.01,-0.66 15.7,-0.1 z"/>
<path
  id="path52"
  d="m 857.9,262.19 v 25.83 a 8,8 0 0 1 -5.16,0.11 c 0,-1 0,-1.89 0,-2.82 0.06,-5.51 0.14,-11 0.17,-16.54 0,-1 0.12,-2.18 -1.41,-2.33 -1.35,-0.13 -1.8,0.69 -2.07,1.82 a 22.36,22.36 0 0 1 -1,3.21 c -1.54,3.76 -3,7.56 -4.77,11.23 a 22.39,22.39 0 0 1 -3.37,4.62 3.48,3.48 0 0 1 -3.36,1.39 c -1.18,-2.37 -0.91,-4 0.64,-5.75 a 20,20 0 0 0 2.53,-3.76 61.57,61.57 0 0 0 5.69,-15 c 0.47,-2 0.47,-2 2.52,-2.05 3.15,0.02 6.25,0.04 9.59,0.04 z"/>
<path
  id="path54"
  d="m 721.12,272.51 c 0.51,4.52 0.51,4.52 -3.66,4.43 -1.5,0 -3,0 -4.58,0 -0.9,2.41 -0.15,4.58 -0.17,6.85 3.9,0.93 7.64,-0.19 11.66,0.14 0,0.85 0.06,1.69 0,2.51 -0.17,1.85 -0.31,2 -2.2,2 -3.76,0 -7.51,0 -11.26,0 h -1.68 c -1.2,0 -1.75,-0.58 -1.72,-1.77 0,-0.71 0.05,-1.43 0.05,-2.15 L 707.5,264.4 v -2 h 15.41 c 0.84,1.31 0.25,2.64 0.32,4.16 -3.51,0.63 -6.95,-0.16 -10.35,0.37 -0.83,1.54 -0.51,3.13 -0.34,4.68 0.1,0.92 0.85,1.09 1.61,1.08 1.6,0 3.19,-0.1 4.79,-0.14 0.67,-0.06 1.36,-0.04 2.18,-0.04 z"/>
<path
  id="path56"
  d="m 954.54,288.24 v -25.7 c 1.66,-0.67 3.29,-0.26 5.21,-0.28 0,1.05 0,1.9 0,2.74 0,1.36 -0.19,2.71 -0.2,4.07 0,2.3 0.17,2.48 2.39,2.59 a 23.88,23.88 0 0 1 2.39,0.1 21.44,21.44 0 0 1 3.75,0.73 7.64,7.64 0 0 1 2.84,12.94 11.41,11.41 0 0 1 -4.09,2.37 c -3.95,1.3 -8.02,0.95 -12.29,0.44 z m 4.93,-8.56 c 0.06,1 0.1,2.08 0.19,3.11 0.07,0.84 0.56,1.41 1.39,1.33 a 29.64,29.64 0 0 0 5.16,-0.8 3.07,3.07 0 0 0 2,-3.22 3.2,3.2 0 0 0 -1.88,-3.1 10.35,10.35 0 0 0 -2.73,-0.81 c -3.75,-0.67 -4.15,-0.31 -4.13,3.51 z"/>
<path
  id="path58"
  d="m 936.9,278.95 c 0,2.37 0,4.51 0,6.65 0,0.9 0.48,2.25 -0.61,2.56 a 9.49,9.49 0 0 1 -4,0 c -0.29,-0.05 -0.57,-1.21 -0.58,-1.86 0,-3.19 0.08,-6.38 0.08,-9.57 0,-4 -0.06,-8 -0.09,-12 0,-0.7 0,-1.41 0,-2.21 a 12.66,12.66 0 0 1 1.79,-0.34 c 2.79,0 5.59,0 8.38,0 a 7.83,7.83 0 0 1 1.67,0.12 c 2.7,0.57 5.11,1.7 6,4.55 a 8.11,8.11 0 0 1 -1.74,8.26 11,11 0 0 1 -6.3,3.15 c -1.45,0.25 -2.82,0.44 -4.6,0.69 z m -0.06,-5 a 8.76,8.76 0 0 0 6.28,-0.69 c 2.27,-1.4 2.43,-4.71 0.16,-5.95 a 7.78,7.78 0 0 0 -6.44,-0.54 z"/>
<path
  id="path60"
  d="m 665.17,278.92 c -0.89,3 0.43,6.06 -0.21,9.11 a 8.21,8.21 0 0 1 -4.93,0.2 v -25.69 c -0.05,0.05 0.06,-0.17 0.16,-0.17 3.75,-0.05 7.51,-0.3 11.24,-0.07 a 6.71,6.71 0 0 1 6.4,5.25 c 0.7,3.31 -0.09,6.32 -2.88,8.32 a 19.55,19.55 0 0 1 -5.43,2.35 28.25,28.25 0 0 1 -4.35,0.7 z m -0.43,-8.57 h 0.09 a 17.9,17.9 0 0 0 0.05,2.84 c 0.07,0.41 0.63,1 1,1.05 a 8.86,8.86 0 0 0 5.52,-1.06 3.27,3.27 0 0 0 1.6,-3.23 3.15,3.15 0 0 0 -2.1,-2.93 11.51,11.51 0 0 0 -2.53,-0.6 c -3.11,-0.36 -3.64,0.13 -3.63,3.21 z"/>
<path
  id="path62"
  d="m 700.32,288.3 h -4.91 c -0.55,-3.43 0.64,-6.79 -0.2,-10.28 -0.81,0 -1.51,0.12 -2.19,0.09 a 56.57,56.57 0 0 1 -6.66,-0.43 5.53,5.53 0 0 1 -4.52,-4.17 c -1,-3.6 -0.6,-7.26 -0.63,-11.12 h 4.92 c 0,0.85 0.09,1.69 0.11,2.53 0,1.76 -0.06,3.53 0.1,5.28 0.22,2.32 1.21,3.25 3.52,3.47 a 23.54,23.54 0 0 0 3.36,0 c 1.93,-0.1 2.26,-0.39 2.28,-2.27 0.02,-1.88 -0.12,-3.68 -0.17,-5.52 0,-1.1 0,-2.21 0,-3.28 a 8.12,8.12 0 0 1 5,-0.17 v 25.87 z"/>
<path
  id="path64"
  d="m 746.1,262.93 c -0.29,1.46 -0.56,2.83 -0.82,4.17 -1.92,-0.17 -3.5,-0.44 -5.07,-0.43 -3.78,0 -6.29,2 -7.36,5.66 a 9.86,9.86 0 0 0 0.35,6.79 8.6,8.6 0 0 0 9.28,5.27 c 1.49,-0.15 3,-0.47 4.46,-0.71 a 2.5,2.5 0 0 1 0.31,0.74 c 0.13,3.79 -0.22,4.21 -4.09,4.44 a 29.35,29.35 0 0 1 -4.78,-0.05 11.42,11.42 0 0 1 -9.7,-6.51 c -3.71,-7.4 -0.34,-17.31 8.23,-19.81 a 12.44,12.44 0 0 1 9.19,0.44 z"/>
<path
  id="path66"
  d="m 492.85,262.89 c -0.29,1.47 -0.54,2.77 -0.84,4.31 -0.87,-0.14 -1.55,-0.23 -2.23,-0.35 -7.16,-1.29 -11.86,3.55 -10.38,10.69 a 8.63,8.63 0 0 0 9.56,6.86 c 1.64,-0.13 3.26,-0.51 4.82,-0.76 0.13,0.18 0.22,0.25 0.22,0.31 -0.31,4.14 0.62,4.64 -4.63,4.93 a 21.79,21.79 0 0 1 -5.71,-0.32 c -6.36,-1.33 -10.42,-7.26 -9.68,-14 1,-9.26 8.92,-14.23 17.52,-12.33 a 9.16,9.16 0 0 1 1.35,0.66 z"/>
<path
  id="path68"
  d="m 596.17,266.7 c 0,1.14 -0.13,2 -0.13,2.87 q 0,8 0.07,16.06 c 0,2.73 -0.14,2.89 -2.79,2.83 -0.63,0 -1.26,-0.11 -2.15,-0.19 -0.06,-0.91 -0.17,-1.75 -0.17,-2.59 0,-5.28 0,-10.56 0,-15.83 0,-0.94 -0.12,-1.88 -0.2,-3.11 h -7.38 v -4.39 h 20.09 v 4.35 z"/>
<path
  id="path70"
  d="m 472.05,262.51 c -0.12,1.37 -0.22,2.61 -0.35,4.07 h -7.24 c -0.11,1.13 -0.29,2.05 -0.29,3 0.06,5.35 0.16,10.7 0.24,16 0,0.79 0,1.57 0,2.26 a 6.35,6.35 0 0 1 -5,0.19 c 0,-3.56 0,-7.12 0,-10.69 0,-3.57 0.13,-7 -0.2,-10.66 h -7.58 v -3.98 c 1.81,-0.62 17.26,-0.74 20.42,-0.19 z"/>
<path
  id="path72"
  d="m 890.17,288.33 v -26.1 c 5.28,-0.09 10.42,0 15.37,0 0.28,0.38 0.44,0.49 0.46,0.63 0.53,3.9 0.32,4.14 -3.54,4.06 -1.59,0 -3.19,-0.09 -4.79,-0.08 -2.49,0 -2.62,0.14 -2.61,2.52 0,5.43 0.07,10.85 0.1,16.28 0,0.48 0,1 0,1.44 a 1.24,1.24 0 0 1 -1.32,1.37 c -1.16,-0.02 -2.33,-0.08 -3.67,-0.12 z"/>
<path id="path74" d="m 820.83,255.78 c 0.43,4 -1.94,6.61 -6.14,6.71 -4.77,0.1 -7.29,-2.28 -7,-7 l 3.93,-0.57 c 1,3.15 1.53,3.83 3,3.7 2,-0.19 1.85,-1.88 2.13,-3.21 1.93,-0.57 1.93,-0.57 4.08,0.37 z"/>
<path id="path76" d="m 554.25,255.43 3.95,-0.51 c 0.83,1.56 0.58,3.75 3,3.72 2.42,-0.03 1.85,-2.25 2.8,-3.68 l 3.45,0.48 a 5.14,5.14 0 0 1 -2,5.83 c -2.45,1.84 -5.34,1.68 -8,0.5 -2.48,-1.07 -3.23,-3.38 -3.2,-6.34 z"/>
</svg>
